<svg id="iaas_alt" data-name="iaas alt" xmlns="http://www.w3.org/2000/svg" viewBox="0 0 1480 800"><defs><style>.cls-1,.cls-2,.cls-3,.cls-5{fill:none;stroke-width:5px;}.cls-1{stroke:#2c7cb0;}.cls-1,.cls-2,.cls-5{stroke-linecap:round;stroke-linejoin:round;}.cls-2,.cls-3{stroke:#36393a;}.cls-3{stroke-miterlimit:10;}.cls-4{fill:#36393a;}.cls-5{stroke:#65be7b;stroke-dasharray:0 10;}.cls-6{fill:#65be7b;}</style></defs><title>BDES-34_What is IaaS_illustration_alt</title><path class="cls-1" d="M933.15,255.94a94.43,94.43,0,0,1,94.57-91.87,96.34,96.34,0,0,1,22.43,2.47,154.7,154.7,0,0,1,289.21,71.92A94.77,94.77,0,0,1,1309,423H957.1a85.23,85.23,0,0,1-24-167.06"/><g id="type_copy_3" data-name="type copy 3"><line class="cls-2" x1="67.72" y1="353.55" x2="367.72" y2="353.55"/><polyline class="cls-3" points="88.65 351.57 88.65 227.17 138.1 227.17 138.1 176.66 156.64 176.66 156.64 144.57 227.59 144.57 227.59 176.66 245.94 176.66 245.94 353.55"/><polyline class="cls-3" points="261.07 353.55 261.07 201.22 344.84 201.22 344.84 353.55"/><line class="cls-3" x1="156.64" y1="176.66" x2="227.59" y2="176.66"/><line class="cls-3" x1="138.1" y1="227.17" x2="138.1" y2="353.55"/><polygon class="cls-4" points="187.12 144.02 192.11 95.17 197.12 144.02 187.12 144.02"/><line class="cls-3" x1="166.64" y1="235.05" x2="216.85" y2="235.05"/><line class="cls-3" x1="166.64" y1="268.03" x2="216.85" y2="268.03"/><line class="cls-3" x1="166.64" y1="301.01" x2="216.85" y2="301.01"/><line class="cls-3" x1="99.39" y1="264.87" x2="110.63" y2="264.87"/><line class="cls-3" x1="117.94" y1="264.61" x2="129.18" y2="264.61"/><line class="cls-3" x1="99.39" y1="281.06" x2="110.63" y2="281.06"/><line class="cls-3" x1="117.94" y1="281.06" x2="129.18" y2="281.06"/><line class="cls-3" x1="99.39" y1="297.5" x2="110.63" y2="297.5"/><line class="cls-3" x1="117.94" y1="297.5" x2="129.18" y2="297.5"/><line class="cls-3" x1="99.39" y1="313.95" x2="110.63" y2="313.95"/><line class="cls-3" x1="117.94" y1="313.95" x2="129.18" y2="313.95"/><line class="cls-3" x1="99.39" y1="330.39" x2="110.63" y2="330.39"/><line class="cls-3" x1="117.94" y1="330.39" x2="129.18" y2="330.39"/><line class="cls-3" x1="280.69" y1="220.06" x2="280.69" y2="238.92"/><line class="cls-3" x1="296.04" y1="220.06" x2="296.04" y2="238.92"/><line class="cls-3" x1="311.39" y1="220.06" x2="311.39" y2="238.92"/><line class="cls-3" x1="326.74" y1="220.06" x2="326.74" y2="238.92"/><line class="cls-3" x1="280.69" y1="250.84" x2="280.69" y2="269.69"/><line class="cls-3" x1="296.04" y1="250.84" x2="296.04" y2="269.69"/><line class="cls-3" x1="311.39" y1="250.84" x2="311.39" y2="269.69"/><line class="cls-3" x1="326.74" y1="250.84" x2="326.74" y2="269.69"/><line class="cls-3" x1="280.69" y1="281.61" x2="280.69" y2="300.47"/><line class="cls-3" x1="296.04" y1="281.61" x2="296.04" y2="300.47"/><line class="cls-3" x1="311.39" y1="281.61" x2="311.39" y2="300.47"/><line class="cls-3" x1="326.74" y1="281.61" x2="326.74" y2="300.47"/><line class="cls-3" x1="280.69" y1="312.39" x2="280.69" y2="331.25"/><line class="cls-3" x1="296.04" y1="312.39" x2="296.04" y2="331.25"/><line class="cls-3" x1="311.39" y1="312.39" x2="311.39" y2="331.25"/><line class="cls-3" x1="326.74" y1="312.39" x2="326.74" y2="331.25"/><line class="cls-2" x1="987.77" y1="760.55" x2="1287.77" y2="760.55"/><polyline class="cls-3" points="1008.71 758.57 1008.71 634.17 1058.15 634.17 1058.15 583.66 1076.69 583.66 1076.69 551.57 1147.64 551.57 1147.64 583.66 1165.99 583.66 1165.99 760.54"/><polyline class="cls-3" points="1181.13 760.54 1181.13 608.22 1264.9 608.22 1264.9 760.54"/><line class="cls-3" x1="1076.69" y1="583.66" x2="1147.64" y2="583.66"/><line class="cls-3" x1="1058.15" y1="634.17" x2="1058.15" y2="760.55"/><polygon class="cls-4" points="1107.17 551.02 1112.16 502.17 1117.17 551.02 1107.17 551.02"/><line class="cls-3" x1="1086.69" y1="642.05" x2="1136.91" y2="642.05"/><line class="cls-3" x1="1086.69" y1="675.03" x2="1136.91" y2="675.03"/><line class="cls-3" x1="1086.69" y1="708.01" x2="1136.91" y2="708.01"/><line class="cls-3" x1="1019.44" y1="671.87" x2="1030.69" y2="671.87"/><line class="cls-3" x1="1037.99" y1="671.61" x2="1049.24" y2="671.61"/><line class="cls-3" x1="1019.44" y1="688.06" x2="1030.69" y2="688.06"/><line class="cls-3" x1="1037.99" y1="688.06" x2="1049.24" y2="688.06"/><line class="cls-3" x1="1019.44" y1="704.5" x2="1030.69" y2="704.5"/><line class="cls-3" x1="1037.99" y1="704.5" x2="1049.24" y2="704.5"/><line class="cls-3" x1="1019.44" y1="720.95" x2="1030.69" y2="720.95"/><line class="cls-3" x1="1037.99" y1="720.95" x2="1049.24" y2="720.95"/><line class="cls-3" x1="1019.44" y1="737.39" x2="1030.69" y2="737.39"/><line class="cls-3" x1="1037.99" y1="737.39" x2="1049.24" y2="737.39"/><line class="cls-3" x1="1200.74" y1="627.06" x2="1200.74" y2="645.92"/><line class="cls-3" x1="1216.09" y1="627.06" x2="1216.09" y2="645.92"/><line class="cls-3" x1="1231.44" y1="627.06" x2="1231.44" y2="645.92"/><line class="cls-3" x1="1246.8" y1="627.06" x2="1246.8" y2="645.92"/><line class="cls-3" x1="1200.74" y1="657.84" x2="1200.74" y2="676.69"/><line class="cls-3" x1="1216.09" y1="657.84" x2="1216.09" y2="676.69"/><line class="cls-3" x1="1231.44" y1="657.84" x2="1231.44" y2="676.69"/><line class="cls-3" x1="1246.8" y1="657.84" x2="1246.8" y2="676.69"/><line class="cls-3" x1="1200.74" y1="688.61" x2="1200.74" y2="707.47"/><line class="cls-3" x1="1216.09" y1="688.61" x2="1216.09" y2="707.47"/><line class="cls-3" x1="1231.44" y1="688.61" x2="1231.44" y2="707.47"/><line class="cls-3" x1="1246.8" y1="688.61" x2="1246.8" y2="707.47"/><line class="cls-3" x1="1200.74" y1="719.39" x2="1200.74" y2="738.25"/><line class="cls-3" x1="1216.09" y1="719.39" x2="1216.09" y2="738.25"/><line class="cls-3" x1="1231.44" y1="719.39" x2="1231.44" y2="738.25"/><line class="cls-3" x1="1246.8" y1="719.39" x2="1246.8" y2="738.25"/></g><line class="cls-5" x1="251.04" y1="685.96" x2="389.96" y2="547.04"/><polygon class="cls-6" points="264.08 684.91 252.09 684.91 252.09 672.92 247 678.01 247 690 258.99 690 264.08 684.91"/><polygon class="cls-6" points="388.91 560.08 388.91 548.09 376.92 548.09 382.01 543 394 543 394 554.99 388.91 560.08"/><line class="cls-5" x1="563.96" y1="685.96" x2="425.04" y2="547.04"/><polygon class="cls-6" points="562.91 672.92 562.91 684.91 550.92 684.91 556.01 690 568 690 568 678.01 562.91 672.92"/><polygon class="cls-6" points="438.08 548.09 426.09 548.09 426.09 560.08 421 554.99 421 543 432.99 543 438.08 548.09"/><line class="cls-5" x1="1081.54" y1="339.93" x2="1190.11" y2="339.93"/><polygon class="cls-6" points="1091.5 348.4 1083.02 339.93 1091.5 331.45 1084.3 331.45 1075.82 339.93 1084.3 348.4 1091.5 348.4"/><polygon class="cls-6" points="1180.15 348.4 1188.63 339.93 1180.15 331.45 1187.35 331.45 1195.82 339.93 1187.35 348.4 1180.15 348.4"/><line class="cls-5" x1="334.55" y1="727.93" x2="486.12" y2="727.93"/><polygon class="cls-6" points="344.51 736.4 336.03 727.93 344.51 719.45 337.31 719.45 328.84 727.93 337.31 736.4 344.51 736.4"/><polygon class="cls-6" points="476.17 736.4 484.65 727.93 476.17 719.45 483.36 719.45 491.84 727.93 483.36 736.4 476.17 736.4"/><line class="cls-5" x1="1257.23" y1="226.92" x2="1321.15" y2="290.83"/><polygon class="cls-6" points="1258.28 239.95 1258.27 227.96 1270.27 227.96 1265.17 222.88 1253.19 222.88 1253.19 234.86 1258.28 239.95"/><polygon class="cls-6" points="1308.11 289.79 1320.1 289.79 1320.1 277.8 1325.19 282.89 1325.19 294.88 1313.2 294.88 1308.11 289.79"/><line class="cls-5" x1="1110.52" y1="226.92" x2="1046.6" y2="290.83"/><polygon class="cls-6" points="1097.48 227.96 1109.48 227.96 1109.47 239.95 1114.56 234.86 1114.56 222.88 1102.58 222.88 1097.48 227.96"/><polygon class="cls-6" points="1047.65 277.8 1047.65 289.79 1059.64 289.79 1054.55 294.88 1042.56 294.88 1042.56 282.89 1047.65 277.8"/><path class="cls-4" d="M1255.31,153.24H1115.15a4.93,4.93,0,0,0-4.92,4.92v48a4.93,4.93,0,0,0,4.92,4.92h140.16a4.92,4.92,0,0,0,4.92-4.92v-48A4.92,4.92,0,0,0,1255.31,153.24Zm-.7,52.19H1115.86V158.87h138.75Zm-71.07-14.24V173.11a1.69,1.69,0,0,1,3.38,0v18.08a1.69,1.69,0,0,1-3.38,0Zm12.59,0V173.11a1.69,1.69,0,0,1,3.38,0v18.08a1.69,1.69,0,0,1-3.38,0Zm12.58,0V173.11a1.69,1.69,0,0,1,3.38,0v18.08a1.69,1.69,0,1,1-3.38,0Zm12.59,0V173.11a1.69,1.69,0,1,1,3.37,0v18.08a1.69,1.69,0,1,1-3.37,0Zm-88.09,0V173.11a1.69,1.69,0,1,1,3.37,0v18.08a1.69,1.69,0,1,1-3.37,0Zm12.58,0V173.11a1.69,1.69,0,1,1,3.38,0v18.08a1.69,1.69,0,0,1-3.38,0Zm12.59,0V173.11a1.69,1.69,0,1,1,3.37,0v18.08a1.69,1.69,0,1,1-3.37,0Zm12.58,0V173.11a1.69,1.69,0,0,1,3.38,0v18.08a1.69,1.69,0,1,1-3.38,0Zm62.92,0V173.11a1.69,1.69,0,1,1,3.38,0v18.08a1.69,1.69,0,0,1-3.38,0ZM1237.6,219a2.81,2.81,0,0,1-2.81,2.81h-99.12a2.81,2.81,0,0,1,0-5.62h99.12A2.81,2.81,0,0,1,1237.6,219Z"/><path class="cls-4" d="M1350.31,310.74H1210.15a4.93,4.93,0,0,0-4.92,4.92v48a4.93,4.93,0,0,0,4.92,4.92h140.16a4.92,4.92,0,0,0,4.92-4.92v-48A4.92,4.92,0,0,0,1350.31,310.74Zm-.7,52.19H1210.86V316.37h138.75Zm-71.07-14.24V330.61a1.69,1.69,0,1,1,3.38,0v18.08a1.69,1.69,0,0,1-3.38,0Zm12.59,0V330.61a1.69,1.69,0,0,1,3.38,0v18.08a1.69,1.69,0,0,1-3.38,0Zm12.58,0V330.61a1.69,1.69,0,1,1,3.38,0v18.08a1.69,1.69,0,1,1-3.38,0Zm12.59,0V330.61a1.69,1.69,0,1,1,3.37,0v18.08a1.69,1.69,0,1,1-3.37,0Zm-88.09,0V330.61a1.69,1.69,0,1,1,3.37,0v18.08a1.69,1.69,0,1,1-3.37,0Zm12.58,0V330.61a1.69,1.69,0,1,1,3.38,0v18.08a1.69,1.69,0,0,1-3.38,0Zm12.59,0V330.61a1.69,1.69,0,1,1,3.37,0v18.08a1.69,1.69,0,1,1-3.37,0Zm12.58,0V330.61a1.69,1.69,0,1,1,3.38,0v18.08a1.69,1.69,0,1,1-3.38,0Zm62.92,0V330.61a1.69,1.69,0,0,1,3.38,0v18.08a1.69,1.69,0,0,1-3.38,0Zm3.72,27.78a2.81,2.81,0,0,1-2.81,2.81h-99.12a2.81,2.81,0,0,1,0-5.62h99.12A2.81,2.81,0,0,1,1332.6,376.47Z"/><path class="cls-4" d="M1062.31,310.74H922.15a4.93,4.93,0,0,0-4.92,4.92v48a4.93,4.93,0,0,0,4.92,4.92h140.16a4.92,4.92,0,0,0,4.92-4.92v-48A4.92,4.92,0,0,0,1062.31,310.74Zm-.7,52.19H922.86V316.37h138.75Zm-71.07-14.24V330.61a1.69,1.69,0,1,1,3.38,0v18.08a1.69,1.69,0,1,1-3.38,0Zm12.59,0V330.61a1.69,1.69,0,1,1,3.38,0v18.08a1.69,1.69,0,1,1-3.38,0Zm12.58,0V330.61a1.69,1.69,0,0,1,3.38,0v18.08a1.69,1.69,0,0,1-3.38,0Zm12.59,0V330.61a1.69,1.69,0,1,1,3.37,0v18.08a1.69,1.69,0,1,1-3.37,0Zm-88.09,0V330.61a1.69,1.69,0,1,1,3.37,0v18.08a1.69,1.69,0,1,1-3.37,0Zm12.58,0V330.61a1.69,1.69,0,1,1,3.38,0v18.08a1.69,1.69,0,1,1-3.38,0Zm12.59,0V330.61a1.69,1.69,0,1,1,3.37,0v18.08a1.69,1.69,0,1,1-3.37,0Zm12.58,0V330.61a1.69,1.69,0,0,1,3.38,0v18.08a1.69,1.69,0,0,1-3.38,0Zm62.92,0V330.61a1.69,1.69,0,0,1,3.38,0v18.08a1.69,1.69,0,0,1-3.38,0Zm3.72,27.78a2.81,2.81,0,0,1-2.81,2.81H942.67a2.81,2.81,0,1,1,0-5.62h99.12A2.81,2.81,0,0,1,1044.6,376.47Z"/><path class="cls-4" d="M479.8,465.24H339.63a4.92,4.92,0,0,0-4.91,4.92v48a4.92,4.92,0,0,0,4.91,4.92H479.8a4.93,4.93,0,0,0,4.92-4.92v-48A4.93,4.93,0,0,0,479.8,465.24Zm-.71,52.19H340.34V470.87H479.09ZM408,503.19V485.11a1.69,1.69,0,1,1,3.37,0v18.08a1.69,1.69,0,1,1-3.37,0Zm12.58,0V485.11a1.69,1.69,0,1,1,3.38,0v18.08a1.69,1.69,0,0,1-3.38,0Zm12.58,0V485.11a1.69,1.69,0,0,1,3.38,0v18.08a1.69,1.69,0,0,1-3.38,0Zm12.59,0V485.11a1.69,1.69,0,0,1,3.38,0v18.08a1.69,1.69,0,1,1-3.38,0Zm-88.09,0V485.11a1.69,1.69,0,0,1,3.38,0v18.08a1.69,1.69,0,0,1-3.38,0Zm12.58,0V485.11a1.69,1.69,0,1,1,3.38,0v18.08a1.69,1.69,0,0,1-3.38,0Zm12.59,0V485.11a1.69,1.69,0,1,1,3.37,0v18.08a1.69,1.69,0,1,1-3.37,0Zm12.58,0V485.11a1.69,1.69,0,0,1,3.38,0v18.08a1.69,1.69,0,0,1-3.38,0Zm62.92,0V485.11a1.69,1.69,0,1,1,3.38,0v18.08a1.69,1.69,0,0,1-3.38,0ZM462.09,531a2.81,2.81,0,0,1-2.82,2.81H360.16a2.81,2.81,0,1,1,0-5.62h99.11A2.81,2.81,0,0,1,462.09,531Z"/><path class="cls-4" d="M310.8,699.24H170.63a4.92,4.92,0,0,0-4.91,4.92v48a4.92,4.92,0,0,0,4.91,4.92H310.8a4.93,4.93,0,0,0,4.92-4.92v-48A4.93,4.93,0,0,0,310.8,699.24Zm-.71,52.19H171.34V704.87H310.09ZM239,737.19V719.11a1.69,1.69,0,1,1,3.37,0v18.08a1.69,1.69,0,1,1-3.37,0Zm12.58,0V719.11a1.69,1.69,0,1,1,3.38,0v18.08a1.69,1.69,0,1,1-3.38,0Zm12.58,0V719.11a1.69,1.69,0,1,1,3.38,0v18.08a1.69,1.69,0,1,1-3.38,0Zm12.59,0V719.11a1.69,1.69,0,1,1,3.38,0v18.08a1.69,1.69,0,0,1-3.38,0Zm-88.09,0V719.11a1.69,1.69,0,1,1,3.38,0v18.08a1.69,1.69,0,0,1-3.38,0Zm12.58,0V719.11a1.69,1.69,0,1,1,3.38,0v18.08a1.69,1.69,0,0,1-3.38,0Zm12.59,0V719.11a1.69,1.69,0,1,1,3.37,0v18.08a1.69,1.69,0,1,1-3.37,0Zm12.58,0V719.11a1.69,1.69,0,1,1,3.38,0v18.08a1.69,1.69,0,1,1-3.38,0Zm62.92,0V719.11a1.69,1.69,0,1,1,3.38,0v18.08a1.69,1.69,0,1,1-3.38,0ZM293.09,765a2.81,2.81,0,0,1-2.82,2.81H191.16a2.81,2.81,0,1,1,0-5.62h99.11A2.81,2.81,0,0,1,293.09,765Z"/><path class="cls-4" d="M648.8,699.24H508.63a4.92,4.92,0,0,0-4.91,4.92v48a4.92,4.92,0,0,0,4.91,4.92H648.8a4.93,4.93,0,0,0,4.92-4.92v-48A4.93,4.93,0,0,0,648.8,699.24Zm-.71,52.19H509.34V704.87H648.09ZM577,737.19V719.11a1.69,1.69,0,1,1,3.37,0v18.08a1.69,1.69,0,1,1-3.37,0Zm12.58,0V719.11a1.69,1.69,0,0,1,3.38,0v18.08a1.69,1.69,0,0,1-3.38,0Zm12.58,0V719.11a1.69,1.69,0,1,1,3.38,0v18.08a1.69,1.69,0,0,1-3.38,0Zm12.59,0V719.11a1.69,1.69,0,1,1,3.38,0v18.08a1.69,1.69,0,1,1-3.38,0Zm-88.09,0V719.11a1.69,1.69,0,0,1,3.38,0v18.08a1.69,1.69,0,0,1-3.38,0Zm12.58,0V719.11a1.69,1.69,0,1,1,3.38,0v18.08a1.69,1.69,0,1,1-3.38,0Zm12.59,0V719.11a1.69,1.69,0,1,1,3.37,0v18.08a1.69,1.69,0,1,1-3.37,0Zm12.58,0V719.11a1.69,1.69,0,0,1,3.38,0v18.08a1.69,1.69,0,0,1-3.38,0Zm62.92,0V719.11a1.69,1.69,0,1,1,3.38,0v18.08a1.69,1.69,0,1,1-3.38,0ZM631.09,765a2.81,2.81,0,0,1-2.82,2.81H529.16a2.81,2.81,0,1,1,0-5.62h99.11A2.81,2.81,0,0,1,631.09,765Z"/><line class="cls-3" x1="1137.77" y1="527.29" x2="1137.77" y2="446.71"/><polygon class="cls-4" points="1146.24 517.33 1137.77 525.81 1129.29 517.33 1129.29 524.52 1137.77 533 1146.24 524.52 1146.24 517.33"/><polygon class="cls-4" points="1146.24 456.67 1137.77 448.19 1129.29 456.67 1129.29 449.48 1137.77 441 1146.24 449.48 1146.24 456.67"/><path class="cls-3" d="M306.1,581.62c-114.29-41.1-127-123.74-114.18-253.43"/><polygon class="cls-4" points="299.63 570.21 304.73 581.06 293.88 586.16 300.65 588.6 311.5 583.5 306.4 572.65 299.63 570.21"/><polygon class="cls-4" points="199.49 338.89 191.83 329.66 182.61 337.32 183.28 330.15 192.5 322.5 200.16 331.73 199.49 338.89"/><g id="type_copy_3-2" data-name="type copy 3"><path class="cls-4" d="M951.71,56.76h-3V34.89h3Z"/><path class="cls-4" d="M959.37,40.51l.2,2.43a5.8,5.8,0,0,1,2.07-2,5.69,5.69,0,0,1,2.87-.72,5.44,5.44,0,0,1,4.14,1.54,6.68,6.68,0,0,1,1.47,4.76V56.76h-3V46.56a4.34,4.34,0,0,0-.88-3.05,3.56,3.56,0,0,0-2.67-.9,4.74,4.74,0,0,0-2.4.57,4,4,0,0,0-1.55,1.57v12h-3V40.51Z"/><path class="cls-4" d="M975.27,56.76V42.7h-2.59V40.51h2.59V38.45a5.5,5.5,0,0,1,1.39-4A5.11,5.11,0,0,1,980.51,33a6.53,6.53,0,0,1,1.07.09c.36.06.74.13,1.13.23l-.36,2.26a4.55,4.55,0,0,0-.67-.12,7,7,0,0,0-.81,0,2.43,2.43,0,0,0-2,.79,3.46,3.46,0,0,0-.65,2.24v2.06h3.5V42.7h-3.5V56.76Z"/><path class="cls-4" d="M992.26,43.14l-1.53-.09a3.52,3.52,0,0,0-2.06.56,3.6,3.6,0,0,0-1.29,1.59V56.76h-3V40.51h2.66l.2,2.52A5.62,5.62,0,0,1,989.05,41a4.1,4.1,0,0,1,2.46-.76,3.42,3.42,0,0,1,.65.06,4,4,0,0,1,.51.11Z"/><path class="cls-4" d="M1005,56.76c-.09-.44-.17-.86-.22-1.23a10.83,10.83,0,0,1-.12-1.13,6.63,6.63,0,0,1-2.06,1.91,5.26,5.26,0,0,1-2.8.77,5.43,5.43,0,0,1-3.92-1.31,4.7,4.7,0,0,1-1.36-3.57,4.23,4.23,0,0,1,1.88-3.65,8.84,8.84,0,0,1,5.15-1.32h3.11V45.62a3,3,0,0,0-.84-2.26,3.4,3.4,0,0,0-2.47-.81,3.52,3.52,0,0,0-2.31.7,2.16,2.16,0,0,0-.85,1.73l-2.81,0,0-.09a3.91,3.91,0,0,1,1.62-3.25,6.75,6.75,0,0,1,4.54-1.47,6.61,6.61,0,0,1,4.44,1.41,5,5,0,0,1,1.65,4v7.83a13.18,13.18,0,0,0,.1,1.7,8,8,0,0,0,.34,1.58Zm-4.76-2.15a5,5,0,0,0,2.83-.81,3.88,3.88,0,0,0,1.59-1.9V49.23h-3.2a4.39,4.39,0,0,0-2.92.9,2.72,2.72,0,0,0-1.07,2.13,2.21,2.21,0,0,0,.7,1.72A3,3,0,0,0,1000.2,54.61Z"/><path class="cls-4" d="M1021.79,52.39a1.9,1.9,0,0,0-.77-1.59,7.48,7.48,0,0,0-2.89-1.08,12,12,0,0,1-4.5-1.73,3.47,3.47,0,0,1-1.57-3,4.26,4.26,0,0,1,1.71-3.39,7.7,7.7,0,0,1,9,.08,4.26,4.26,0,0,1,1.67,3.5l0,.1h-2.81a2.56,2.56,0,0,0-1-1.9,3.52,3.52,0,0,0-2.44-.85,3.59,3.59,0,0,0-2.42.7,2.16,2.16,0,0,0-.8,1.67,1.75,1.75,0,0,0,.69,1.48,7.73,7.73,0,0,0,2.86,1,11.87,11.87,0,0,1,4.61,1.78,3.61,3.61,0,0,1,1.57,3,4.24,4.24,0,0,1-1.78,3.52,7.45,7.45,0,0,1-4.65,1.37,7.35,7.35,0,0,1-5-1.58,4.48,4.48,0,0,1-1.73-3.67l0-.1h2.82a2.68,2.68,0,0,0,1.21,2.29,4.75,4.75,0,0,0,2.65.73,4.35,4.35,0,0,0,2.56-.66A2,2,0,0,0,1021.79,52.39Z"/><path class="cls-4" d="M1032,36.59v3.92h3.64V42.7H1032v9.85a2.5,2.5,0,0,0,.42,1.64,1.41,1.41,0,0,0,1.13.5,5.39,5.39,0,0,0,.93-.09,3.22,3.22,0,0,0,.78-.21l.66,2a4,4,0,0,1-1.38.51,8.48,8.48,0,0,1-1.76.2,3.34,3.34,0,0,1-2.73-1.25,6.11,6.11,0,0,1-1-3.88V42.7h-2.52V40.51h2.52V36.59Z"/><path class="cls-4" d="M1046.31,43.14l-1.54-.09a3.54,3.54,0,0,0-2.06.56,3.58,3.58,0,0,0-1.28,1.59V56.76h-3V40.51h2.65l.21,2.52A5.62,5.62,0,0,1,1043.1,41a4.1,4.1,0,0,1,2.46-.76,3.24,3.24,0,0,1,.64.06,3.37,3.37,0,0,1,.51.11Z"/><path class="cls-4" d="M1059.77,54.33a5.35,5.35,0,0,1-4.87,2.75,5.35,5.35,0,0,1-4.22-1.71q-1.52-1.69-1.51-5.28V40.51h2.95v9.61a5.82,5.82,0,0,0,.8,3.58,3,3,0,0,0,2.46,1,5.1,5.1,0,0,0,2.69-.65,4.05,4.05,0,0,0,1.6-1.84V40.51h2.95V56.76H1060Z"/><path class="cls-4" d="M1073.43,54.75a3.88,3.88,0,0,0,2.54-.91,2.77,2.77,0,0,0,1.12-2.22h2.65l0,.1a4.51,4.51,0,0,1-1.87,3.72,6.76,6.76,0,0,1-4.47,1.64,6.53,6.53,0,0,1-5.32-2.35,8.72,8.72,0,0,1-1.94-5.78v-.62a8.76,8.76,0,0,1,1.95-5.77,6.53,6.53,0,0,1,5.31-2.36,6.46,6.46,0,0,1,4.6,1.69,5.19,5.19,0,0,1,1.76,4.12l0,.1h-2.67a3.42,3.42,0,0,0-1.07-2.52,3.52,3.52,0,0,0-2.59-1,3.57,3.57,0,0,0-3.23,1.72,7.48,7.48,0,0,0-1.08,4.06V49A7.49,7.49,0,0,0,1070.2,53,3.58,3.58,0,0,0,1073.43,54.75Z"/><path class="cls-4" d="M1087.27,36.59v3.92h3.65V42.7h-3.65v9.85a2.5,2.5,0,0,0,.43,1.64,1.39,1.39,0,0,0,1.12.5,5.5,5.5,0,0,0,.94-.09,3.51,3.51,0,0,0,.78-.21l.66,2a4.15,4.15,0,0,1-1.39.51,8.39,8.39,0,0,1-1.75.2,3.33,3.33,0,0,1-2.73-1.25,6.11,6.11,0,0,1-1-3.88V42.7h-2.51V40.51h2.51V36.59Z"/><path class="cls-4" d="M1104.29,54.33a5.57,5.57,0,0,1-2,2,5.63,5.63,0,0,1-2.85.71,5.33,5.33,0,0,1-4.22-1.71q-1.52-1.69-1.52-5.28V40.51h3v9.61a5.89,5.89,0,0,0,.8,3.58,3,3,0,0,0,2.47,1,5.13,5.13,0,0,0,2.69-.65,4,4,0,0,0,1.59-1.84V40.51h3V56.76h-2.64Z"/><path class="cls-4" d="M1119.2,43.14l-1.53-.09a3.38,3.38,0,0,0-3.35,2.15V56.76h-3V40.51H1114l.21,2.52A5.62,5.62,0,0,1,1116,41a4.1,4.1,0,0,1,2.46-.76,3.42,3.42,0,0,1,.65.06,3.49,3.49,0,0,1,.5.11Z"/><path class="cls-4" d="M1128.45,57.08a7.47,7.47,0,0,1-5.78-2.25,8.27,8.27,0,0,1-2.08-5.88V48.3a8.23,8.23,0,0,1,2.11-5.81,6.82,6.82,0,0,1,5.2-2.29,6,6,0,0,1,4.77,1.88,7.78,7.78,0,0,1,1.62,5.25V49h-10.64l0,.08a6.3,6.3,0,0,0,1.12,4.1,4.34,4.34,0,0,0,3.71,1.6,8,8,0,0,0,2.47-.34,10.4,10.4,0,0,0,2-.9l.73,2.1a8.13,8.13,0,0,1-2,1A9.85,9.85,0,0,1,1128.45,57.08Zm-.55-14.53a3.66,3.66,0,0,0-2.79,1.16,5.31,5.31,0,0,0-1.35,3l0,.09h7.55v-.31a4.61,4.61,0,0,0-.81-2.88A3.09,3.09,0,0,0,1127.9,42.55Z"/><path class="cls-4" d="M1147,47.05h-9V44.72h9Z"/><path class="cls-4" d="M1161.32,56.76c-.09-.44-.17-.86-.22-1.23a10.83,10.83,0,0,1-.12-1.13,6.63,6.63,0,0,1-2.06,1.91,5.29,5.29,0,0,1-2.8.77,5.43,5.43,0,0,1-3.92-1.31,4.7,4.7,0,0,1-1.36-3.57,4.21,4.21,0,0,1,1.88-3.65,8.84,8.84,0,0,1,5.15-1.32H1161V45.62a3,3,0,0,0-.84-2.26,3.42,3.42,0,0,0-2.47-.81,3.52,3.52,0,0,0-2.31.7,2.16,2.16,0,0,0-.85,1.73l-2.81,0,0-.09a3.91,3.91,0,0,1,1.62-3.25,6.75,6.75,0,0,1,4.54-1.47,6.61,6.61,0,0,1,4.44,1.41,5,5,0,0,1,1.65,4v7.83a15.31,15.31,0,0,0,.09,1.7,8.77,8.77,0,0,0,.35,1.58Zm-4.76-2.15a5,5,0,0,0,2.83-.81,3.88,3.88,0,0,0,1.59-1.9V49.23h-3.21a4.38,4.38,0,0,0-2.91.9,2.72,2.72,0,0,0-1.07,2.13,2.21,2.21,0,0,0,.7,1.72A3,3,0,0,0,1156.56,54.61Z"/><path class="cls-4" d="M1178.15,52.39a1.92,1.92,0,0,0-.77-1.59,7.48,7.48,0,0,0-2.89-1.08A12,12,0,0,1,1170,48a3.47,3.47,0,0,1-1.57-3,4.26,4.26,0,0,1,1.71-3.39,7.7,7.7,0,0,1,9,.08,4.26,4.26,0,0,1,1.67,3.5l0,.1H1178a2.54,2.54,0,0,0-1-1.9,3.48,3.48,0,0,0-2.43-.85,3.59,3.59,0,0,0-2.42.7,2.16,2.16,0,0,0-.8,1.67,1.75,1.75,0,0,0,.69,1.48,7.73,7.73,0,0,0,2.86,1,11.87,11.87,0,0,1,4.61,1.78,3.61,3.61,0,0,1,1.57,3,4.24,4.24,0,0,1-1.78,3.52,7.45,7.45,0,0,1-4.65,1.37,7.35,7.35,0,0,1-5-1.58,4.48,4.48,0,0,1-1.73-3.67l0-.1h2.82A2.68,2.68,0,0,0,1172,54a4.73,4.73,0,0,0,2.65.73,4.35,4.35,0,0,0,2.56-.66A2,2,0,0,0,1178.15,52.39Z"/><path class="cls-4" d="M1194,47.05h-9V44.72h9Z"/><path class="cls-4" d="M1208.29,56.76c-.09-.44-.17-.86-.23-1.23s-.09-.75-.11-1.13a6.63,6.63,0,0,1-2.06,1.91,5.29,5.29,0,0,1-2.8.77,5.43,5.43,0,0,1-3.92-1.31,4.7,4.7,0,0,1-1.36-3.57,4.21,4.21,0,0,1,1.88-3.65,8.82,8.82,0,0,1,5.15-1.32H1208V45.62a3,3,0,0,0-.84-2.26,3.43,3.43,0,0,0-2.48-.81,3.51,3.51,0,0,0-2.3.7,2.16,2.16,0,0,0-.85,1.73l-2.81,0,0-.09a3.91,3.91,0,0,1,1.62-3.25,6.75,6.75,0,0,1,4.54-1.47,6.61,6.61,0,0,1,4.44,1.41,5,5,0,0,1,1.65,4v7.83a15.31,15.31,0,0,0,.09,1.7,8.77,8.77,0,0,0,.35,1.58Zm-4.77-2.15a5,5,0,0,0,2.84-.81,3.88,3.88,0,0,0,1.59-1.9V49.23h-3.21a4.37,4.37,0,0,0-2.91.9,2.72,2.72,0,0,0-1.07,2.13,2.24,2.24,0,0,0,.69,1.72A3,3,0,0,0,1203.52,54.61Z"/><path class="cls-4" d="M1224.62,47.05h-9V44.72h9Z"/><path class="cls-4" d="M1241.18,51a2.83,2.83,0,0,0-1.12-2.32,10.88,10.88,0,0,0-4-1.6,12.57,12.57,0,0,1-5.22-2.43,5.13,5.13,0,0,1-1.86-4.06,5.42,5.42,0,0,1,2-4.28,7.73,7.73,0,0,1,5.23-1.7,7.82,7.82,0,0,1,5.6,2,5.87,5.87,0,0,1,2,4.57l0,.09H1241a4,4,0,0,0-1.32-3.07,4.89,4.89,0,0,0-3.43-1.21,4.55,4.55,0,0,0-3.19,1,3.39,3.39,0,0,0-1.07,2.62,2.9,2.9,0,0,0,1.19,2.38,10.87,10.87,0,0,0,4,1.65,12.7,12.7,0,0,1,5.22,2.43,5,5,0,0,1,1.78,3.95,5.42,5.42,0,0,1-2.13,4.4,8.4,8.4,0,0,1-5.49,1.74,9.45,9.45,0,0,1-5.7-1.78,5.33,5.33,0,0,1-2.39-4.74l0-.09h2.81a3.62,3.62,0,0,0,1.6,3.17,6.25,6.25,0,0,0,3.65,1.11,5.18,5.18,0,0,0,3.4-1.06A3.39,3.39,0,0,0,1241.18,51Z"/><path class="cls-4" d="M1254.85,57.08a7.48,7.48,0,0,1-5.78-2.25A8.31,8.31,0,0,1,1247,49V48.3a8.23,8.23,0,0,1,2.12-5.81,6.79,6.79,0,0,1,5.2-2.29,6,6,0,0,1,4.76,1.88,7.78,7.78,0,0,1,1.63,5.25V49h-10.64l0,.08a6.3,6.3,0,0,0,1.13,4.1,4.32,4.32,0,0,0,3.7,1.6,7.93,7.93,0,0,0,2.47-.34,9.9,9.9,0,0,0,2-.9l.74,2.1a8,8,0,0,1-2,1A9.81,9.81,0,0,1,1254.85,57.08Zm-.54-14.53a3.65,3.65,0,0,0-2.79,1.16,5.18,5.18,0,0,0-1.35,3l0,.09h7.54v-.31a4.61,4.61,0,0,0-.8-2.88A3.11,3.11,0,0,0,1254.31,42.55Z"/><path class="cls-4" d="M1271.92,43.14l-1.54-.09a3.54,3.54,0,0,0-2.06.56A3.58,3.58,0,0,0,1267,45.2V56.76h-3V40.51h2.65L1267,43A5.59,5.59,0,0,1,1268.7,41a4.16,4.16,0,0,1,2.47-.76,3.31,3.31,0,0,1,.64.06,3.37,3.37,0,0,1,.51.11Z"/><path class="cls-4" d="M1280.85,52l.28,1.23h.1l.31-1.23,3.86-11.46h3l-6.13,16.25h-2.23l-6.18-16.25h3Z"/><path class="cls-4" d="M1294.17,36.34h-3v-3h3Zm0,20.42h-3V40.51h3Z"/><path class="cls-4" d="M1305.23,54.75a3.9,3.9,0,0,0,2.54-.91,2.76,2.76,0,0,0,1.11-2.22h2.66l0,.1a4.53,4.53,0,0,1-1.87,3.72,6.8,6.8,0,0,1-4.47,1.64,6.52,6.52,0,0,1-5.32-2.35,8.73,8.73,0,0,1-2-5.78v-.62a8.71,8.71,0,0,1,2-5.77,7.13,7.13,0,0,1,9.91-.67,5.22,5.22,0,0,1,1.76,4.12l0,.1h-2.68a3.41,3.41,0,0,0-1.06-2.52,3.83,3.83,0,0,0-5.82.68,7.48,7.48,0,0,0-1.08,4.06V49A7.49,7.49,0,0,0,1302,53,3.58,3.58,0,0,0,1305.23,54.75Z"/><path class="cls-4" d="M1322.49,57.08a7.48,7.48,0,0,1-5.78-2.25,8.31,8.31,0,0,1-2.08-5.88V48.3a8.23,8.23,0,0,1,2.12-5.81,6.79,6.79,0,0,1,5.2-2.29,6,6,0,0,1,4.76,1.88,7.73,7.73,0,0,1,1.63,5.25V49H1317.7l0,.08a6.24,6.24,0,0,0,1.12,4.1,4.32,4.32,0,0,0,3.7,1.6,7.93,7.93,0,0,0,2.47-.34,9.9,9.9,0,0,0,2-.9l.74,2.1a8,8,0,0,1-2,1A9.76,9.76,0,0,1,1322.49,57.08ZM1322,42.55a3.65,3.65,0,0,0-2.79,1.16,5.18,5.18,0,0,0-1.35,3l0,.09h7.54v-.31a4.61,4.61,0,0,0-.8-2.88A3.1,3.1,0,0,0,1322,42.55Z"/><path class="cls-4" d="M152.93,47.78a9.26,9.26,0,0,1-2.52,6.66,8.66,8.66,0,0,1-6.55,2.64,8.24,8.24,0,0,1-6.36-2.64,9.42,9.42,0,0,1-2.44-6.66V43.89a9.45,9.45,0,0,1,2.43-6.66,8.21,8.21,0,0,1,6.35-2.65,8.64,8.64,0,0,1,6.57,2.65,9.26,9.26,0,0,1,2.52,6.66Zm-3-3.92a7.26,7.26,0,0,0-1.66-4.93A5.61,5.61,0,0,0,143.84,37a5.19,5.19,0,0,0-4.25,1.93A7.53,7.53,0,0,0,138,43.86v3.92a7.59,7.59,0,0,0,1.58,5,5.23,5.23,0,0,0,4.27,1.92,5.58,5.58,0,0,0,4.46-1.92,7.32,7.32,0,0,0,1.66-5Z"/><path class="cls-4" d="M159.46,40.51l.21,2.43a5.8,5.8,0,0,1,2.07-2,5.66,5.66,0,0,1,2.87-.72,5.44,5.44,0,0,1,4.14,1.54,6.68,6.68,0,0,1,1.46,4.76V56.76h-3V46.56a4.34,4.34,0,0,0-.87-3.05,3.6,3.6,0,0,0-2.68-.9,4.72,4.72,0,0,0-2.39.57,4.06,4.06,0,0,0-1.56,1.57v12h-2.95V40.51Z"/><path class="cls-4" d="M183.75,47.05h-9V44.72h9Z"/><path class="cls-4" d="M191.56,48.3v8.46h-2.95V34.89h8.46a7.76,7.76,0,0,1,5.54,1.87,6.32,6.32,0,0,1,2,4.83,6.32,6.32,0,0,1-2,4.85,7.8,7.8,0,0,1-5.54,1.86Zm0-2.33h5.51a4.16,4.16,0,0,0,4.57-4.35,4.49,4.49,0,0,0-1.14-3.11,4.38,4.38,0,0,0-3.43-1.28h-5.51Z"/><path class="cls-4" d="M215.57,43.14,214,43.05a3.54,3.54,0,0,0-2.06.56,3.58,3.58,0,0,0-1.28,1.59V56.76h-2.95V40.51h2.65l.21,2.52A5.59,5.59,0,0,1,212.36,41a4.15,4.15,0,0,1,2.46-.76,3.34,3.34,0,0,1,.65.06,3.67,3.67,0,0,1,.51.11Z"/><path class="cls-4" d="M224.82,57.08A7.5,7.5,0,0,1,219,54.83,8.31,8.31,0,0,1,217,49V48.3a8.23,8.23,0,0,1,2.12-5.81,6.8,6.8,0,0,1,5.2-2.29A6,6,0,0,1,229,42.08a7.73,7.73,0,0,1,1.63,5.25V49H220l0,.08a6.24,6.24,0,0,0,1.12,4.1,4.32,4.32,0,0,0,3.7,1.6,7.93,7.93,0,0,0,2.47-.34,9.9,9.9,0,0,0,2-.9l.74,2.1a8,8,0,0,1-2,1A9.76,9.76,0,0,1,224.82,57.08Zm-.54-14.53a3.65,3.65,0,0,0-2.79,1.16,5.18,5.18,0,0,0-1.35,3l0,.09h7.54v-.31a4.61,4.61,0,0,0-.8-2.88A3.1,3.1,0,0,0,224.28,42.55Z"/><path class="cls-4" d="M236.7,40.51l.2,2.14A5.74,5.74,0,0,1,239,40.84a6.41,6.41,0,0,1,2.92-.64,5.79,5.79,0,0,1,3,.77,4.62,4.62,0,0,1,1.9,2.31A6,6,0,0,1,248.9,41,5.61,5.61,0,0,1,252,40.2a5.39,5.39,0,0,1,4.22,1.71,7.45,7.45,0,0,1,1.55,5.14v9.71h-3V47a4.94,4.94,0,0,0-.93-3.4,3.58,3.58,0,0,0-2.76-1,3.28,3.28,0,0,0-2.59,1.09,4.72,4.72,0,0,0-1.13,2.75V56.76h-3V47a4.88,4.88,0,0,0-1-3.34,3.49,3.49,0,0,0-2.75-1.06,4.34,4.34,0,0,0-2.32.57A3.66,3.66,0,0,0,237,44.76v12h-2.95V40.51Z"/><path class="cls-4" d="M265.12,36.34h-2.95v-3h2.95Zm0,20.42h-2.95V40.51h2.95Z"/><path class="cls-4" d="M279.46,52.39a1.92,1.92,0,0,0-.76-1.59,7.48,7.48,0,0,0-2.89-1.08A12.06,12.06,0,0,1,271.3,48a3.47,3.47,0,0,1-1.57-3,4.24,4.24,0,0,1,1.72-3.39,7.68,7.68,0,0,1,9,.08,4.27,4.27,0,0,1,1.68,3.5l0,.1h-2.82a2.53,2.53,0,0,0-1-1.9,4.19,4.19,0,0,0-4.85-.15,2.14,2.14,0,0,0-.81,1.67,1.75,1.75,0,0,0,.7,1.48,7.59,7.59,0,0,0,2.85,1,12,12,0,0,1,4.62,1.78,3.64,3.64,0,0,1,1.57,3,4.27,4.27,0,0,1-1.78,3.52A7.46,7.46,0,0,1,276,57.08a7.38,7.38,0,0,1-5-1.58,4.44,4.44,0,0,1-1.72-3.67l0-.1h2.81A2.7,2.7,0,0,0,273.33,54a4.77,4.77,0,0,0,2.65.73,4.33,4.33,0,0,0,2.56-.66A2,2,0,0,0,279.46,52.39Z"/><path class="cls-4" d="M293.11,57.08a7.5,7.5,0,0,1-5.79-2.25A8.31,8.31,0,0,1,285.25,49V48.3a8.23,8.23,0,0,1,2.11-5.81,6.8,6.8,0,0,1,5.2-2.29,6,6,0,0,1,4.76,1.88A7.73,7.73,0,0,1,299,47.33V49H288.31l0,.08a6.3,6.3,0,0,0,1.12,4.1,4.33,4.33,0,0,0,3.71,1.6,7.86,7.86,0,0,0,2.46-.34,10.23,10.23,0,0,0,2-.9l.73,2.1a8,8,0,0,1-2,1A9.74,9.74,0,0,1,293.11,57.08Zm-.55-14.53a3.65,3.65,0,0,0-2.79,1.16,5.25,5.25,0,0,0-1.35,3l0,.09H296v-.31a4.61,4.61,0,0,0-.81-2.88A3.1,3.1,0,0,0,292.56,42.55Z"/><path class="cls-4" d="M312.2,52.39a1.92,1.92,0,0,0-.77-1.59,7.48,7.48,0,0,0-2.89-1.08A11.93,11.93,0,0,1,304,48a3.48,3.48,0,0,1-1.58-3,4.27,4.27,0,0,1,1.72-3.39,7.7,7.7,0,0,1,9,.08,4.26,4.26,0,0,1,1.67,3.5l0,.1H312a2.54,2.54,0,0,0-1-1.9,3.48,3.48,0,0,0-2.43-.85,3.59,3.59,0,0,0-2.42.7,2.16,2.16,0,0,0-.8,1.67,1.75,1.75,0,0,0,.69,1.48,7.73,7.73,0,0,0,2.85,1,11.86,11.86,0,0,1,4.62,1.78,3.61,3.61,0,0,1,1.57,3,4.24,4.24,0,0,1-1.78,3.52,7.46,7.46,0,0,1-4.66,1.37,7.34,7.34,0,0,1-5-1.58A4.45,4.45,0,0,1,302,51.83l0-.1h2.82A2.68,2.68,0,0,0,306.07,54a4.71,4.71,0,0,0,2.64.73,4.36,4.36,0,0,0,2.57-.66A2,2,0,0,0,312.2,52.39Z"/><path class="cls-4" d="M330.17,56.76h-3V34.89h3Z"/><path class="cls-4" d="M337.82,40.51l.21,2.43a5.8,5.8,0,0,1,2.07-2A5.65,5.65,0,0,1,343,40.2a5.45,5.45,0,0,1,4.15,1.54,6.73,6.73,0,0,1,1.46,4.76V56.76h-2.95V46.56a4.34,4.34,0,0,0-.87-3.05,3.6,3.6,0,0,0-2.68-.9,4.72,4.72,0,0,0-2.39.57,4.06,4.06,0,0,0-1.56,1.57v12h-2.95V40.51Z"/><path class="cls-4" d="M353.73,56.76V42.7h-2.59V40.51h2.59V38.45a5.5,5.5,0,0,1,1.38-4A5.14,5.14,0,0,1,359,33a6.56,6.56,0,0,1,1.08.09c.35.06.73.13,1.13.23l-.36,2.26a4.8,4.8,0,0,0-.67-.12,7.08,7.08,0,0,0-.82,0,2.42,2.42,0,0,0-2,.79,3.4,3.4,0,0,0-.66,2.24v2.06h3.5V42.7h-3.5V56.76Z"/><path class="cls-4" d="M370.71,43.14l-1.53-.09a3.54,3.54,0,0,0-2.06.56,3.58,3.58,0,0,0-1.28,1.59V56.76h-2.95V40.51h2.65l.21,2.52A5.59,5.59,0,0,1,367.5,41,4.15,4.15,0,0,1,370,40.2a4.88,4.88,0,0,1,1.16.17Z"/><path class="cls-4" d="M383.42,56.76c-.1-.44-.17-.86-.23-1.23a10.83,10.83,0,0,1-.12-1.13A6.59,6.59,0,0,1,381,56.31a5.3,5.3,0,0,1-2.81.77,5.46,5.46,0,0,1-3.92-1.31,4.74,4.74,0,0,1-1.36-3.57,4.21,4.21,0,0,1,1.89-3.65A8.81,8.81,0,0,1,380,47.23h3.11V45.62a3,3,0,0,0-.83-2.26,3.43,3.43,0,0,0-2.48-.81,3.47,3.47,0,0,0-2.3.7,2.16,2.16,0,0,0-.85,1.73l-2.82,0v-.09a3.87,3.87,0,0,1,1.61-3.25,6.79,6.79,0,0,1,4.54-1.47,6.62,6.62,0,0,1,4.45,1.41,5,5,0,0,1,1.65,4v7.83a15.31,15.31,0,0,0,.09,1.7,8.74,8.74,0,0,0,.34,1.58Zm-4.77-2.15a5,5,0,0,0,2.84-.81,3.86,3.86,0,0,0,1.58-1.9V49.23h-3.2a4.37,4.37,0,0,0-2.91.9,2.69,2.69,0,0,0-1.07,2.13,2.24,2.24,0,0,0,.69,1.72A3,3,0,0,0,378.65,54.61Z"/><path class="cls-4" d="M400.25,52.39a1.92,1.92,0,0,0-.77-1.59,7.48,7.48,0,0,0-2.89-1.08A12.06,12.06,0,0,1,392.08,48a3.5,3.5,0,0,1-1.57-3,4.24,4.24,0,0,1,1.72-3.39,7.7,7.7,0,0,1,9,.08,4.29,4.29,0,0,1,1.67,3.5l0,.1h-2.82a2.53,2.53,0,0,0-.95-1.9,3.51,3.51,0,0,0-2.44-.85,3.57,3.57,0,0,0-2.41.7,2.14,2.14,0,0,0-.81,1.67,1.75,1.75,0,0,0,.7,1.48,7.59,7.59,0,0,0,2.85,1,12,12,0,0,1,4.62,1.78,3.61,3.61,0,0,1,1.57,3,4.24,4.24,0,0,1-1.78,3.52,7.46,7.46,0,0,1-4.66,1.37,7.34,7.34,0,0,1-5-1.58,4.45,4.45,0,0,1-1.73-3.67l0-.1h2.81A2.7,2.7,0,0,0,394.11,54a4.77,4.77,0,0,0,2.65.73,4.31,4.31,0,0,0,2.56-.66A2,2,0,0,0,400.25,52.39Z"/><path class="cls-4" d="M410.46,36.59v3.92h3.65V42.7h-3.65v9.85a2.5,2.5,0,0,0,.43,1.64,1.39,1.39,0,0,0,1.12.5,5.5,5.5,0,0,0,.94-.09,3.51,3.51,0,0,0,.78-.21l.66,2a4.15,4.15,0,0,1-1.39.51,8.39,8.39,0,0,1-1.75.2,3.33,3.33,0,0,1-2.73-1.25,6.11,6.11,0,0,1-1-3.88V42.7H405V40.51h2.51V36.59Z"/><path class="cls-4" d="M424.76,43.14l-1.53-.09a3.54,3.54,0,0,0-2.06.56,3.58,3.58,0,0,0-1.28,1.59V56.76h-3V40.51h2.66l.2,2.52A5.71,5.71,0,0,1,421.55,41,4.1,4.1,0,0,1,424,40.2a3.34,3.34,0,0,1,.65.06,4,4,0,0,1,.51.11Z"/><path class="cls-4" d="M438.23,54.33a5.57,5.57,0,0,1-2,2,5.63,5.63,0,0,1-2.85.71,5.33,5.33,0,0,1-4.22-1.71q-1.51-1.69-1.52-5.28V40.51h2.95v9.61a5.89,5.89,0,0,0,.8,3.58,3,3,0,0,0,2.47,1,5.13,5.13,0,0,0,2.69-.65,4,4,0,0,0,1.59-1.84V40.51h2.95V56.76h-2.64Z"/><path class="cls-4" d="M451.89,54.75a3.92,3.92,0,0,0,2.54-.91,2.76,2.76,0,0,0,1.11-2.22h2.66l0,.1a4.53,4.53,0,0,1-1.87,3.72,6.8,6.8,0,0,1-4.47,1.64,6.52,6.52,0,0,1-5.32-2.35A8.73,8.73,0,0,1,444.62,49v-.62a8.76,8.76,0,0,1,1.95-5.77,6.57,6.57,0,0,1,5.32-2.36,6.5,6.5,0,0,1,4.6,1.69A5.22,5.22,0,0,1,458.25,46l0,.1h-2.67a3.41,3.41,0,0,0-1.06-2.52,3.83,3.83,0,0,0-5.82.68,7.49,7.49,0,0,0-1.09,4.06V49A7.5,7.5,0,0,0,448.66,53,3.57,3.57,0,0,0,451.89,54.75Z"/><path class="cls-4" d="M465.73,36.59v3.92h3.64V42.7h-3.64v9.85a2.5,2.5,0,0,0,.42,1.64,1.41,1.41,0,0,0,1.13.5,5.39,5.39,0,0,0,.93-.09,3.47,3.47,0,0,0,.79-.21l.65,2a4,4,0,0,1-1.38.51,8.48,8.48,0,0,1-1.76.2,3.32,3.32,0,0,1-2.72-1.25,6,6,0,0,1-1-3.88V42.7h-2.52V40.51h2.52V36.59Z"/><path class="cls-4" d="M482.75,54.33a5.38,5.38,0,0,1-4.88,2.75,5.35,5.35,0,0,1-4.22-1.71q-1.51-1.69-1.51-5.28V40.51h2.95v9.61a5.89,5.89,0,0,0,.8,3.58,3,3,0,0,0,2.47,1A5.09,5.09,0,0,0,481,54a4.05,4.05,0,0,0,1.6-1.84V40.51h2.95V56.76H483Z"/><path class="cls-4" d="M497.65,43.14l-1.53-.09a3.54,3.54,0,0,0-2.06.56,3.58,3.58,0,0,0-1.28,1.59V56.76h-3V40.51h2.66l.2,2.52A5.71,5.71,0,0,1,494.44,41a4.13,4.13,0,0,1,2.46-.76,3.34,3.34,0,0,1,.65.06,4,4,0,0,1,.51.11Z"/><path class="cls-4" d="M506.9,57.08a7.48,7.48,0,0,1-5.78-2.25A8.31,8.31,0,0,1,499,49V48.3a8.23,8.23,0,0,1,2.12-5.81,6.79,6.79,0,0,1,5.2-2.29,6,6,0,0,1,4.76,1.88,7.78,7.78,0,0,1,1.63,5.25V49H502.11l0,.08a6.3,6.3,0,0,0,1.13,4.1,4.32,4.32,0,0,0,3.7,1.6,7.93,7.93,0,0,0,2.47-.34,9.9,9.9,0,0,0,2-.9l.74,2.1a8,8,0,0,1-2,1A9.81,9.81,0,0,1,506.9,57.08Zm-.54-14.53a3.65,3.65,0,0,0-2.79,1.16,5.26,5.26,0,0,0-1.36,3l0,.09h7.54v-.31a4.67,4.67,0,0,0-.8-2.88A3.11,3.11,0,0,0,506.36,42.55Z"/></g></svg>