<svg id="Layer_1" data-name="Layer 1" xmlns="http://www.w3.org/2000/svg" xmlns:xlink="http://www.w3.org/1999/xlink" viewBox="0 0 670 292.5"><defs><linearGradient id="linear-gradient" y1="146.25" x2="210" y2="146.25" gradientUnits="userSpaceOnUse"><stop offset="0" stop-color="#76c4e2"/><stop offset="1" stop-color="#85cba8"/></linearGradient><linearGradient id="linear-gradient-2" x1="234" y1="45.1" x2="436" y2="45.1" xlink:href="#linear-gradient"/><linearGradient id="linear-gradient-3" x1="234" x2="436" xlink:href="#linear-gradient"/><linearGradient id="linear-gradient-4" x1="234" y1="247.4" x2="436" y2="247.4" xlink:href="#linear-gradient"/><linearGradient id="linear-gradient-5" x1="468" y1="20.96" x2="670" y2="20.96" xlink:href="#linear-gradient"/><linearGradient id="linear-gradient-6" x1="468" y1="71.08" x2="670" y2="71.08" xlink:href="#linear-gradient"/><linearGradient id="linear-gradient-7" x1="468" y1="121.19" x2="670" y2="121.19" xlink:href="#linear-gradient"/><linearGradient id="linear-gradient-8" x1="468" y1="171.31" x2="670" y2="171.31" xlink:href="#linear-gradient"/><linearGradient id="linear-gradient-9" x1="468" y1="221.42" x2="670" y2="221.42" xlink:href="#linear-gradient"/><linearGradient id="linear-gradient-10" x1="468" y1="271.54" x2="670" y2="271.54" xlink:href="#linear-gradient"/><linearGradient id="linear-gradient-11" x1="217" x2="227.61" xlink:href="#linear-gradient"/><linearGradient id="linear-gradient-12" x1="447" x2="457.61" xlink:href="#linear-gradient"/></defs><title>MRK-7156</title><path d="M70,139.8V129h-.1l-4.4,10.8H64L59.6,129h-.2v10.8H57.8V125.7h2l4.9,11.7h.1l4.8-11.7h2.1v14.1Z" style="fill:#707070"/><path d="M74.5,134.5c0-3.4,1.9-5.4,4.9-5.4s4.8,2,4.8,5.4-1.8,5.5-4.8,5.5S74.5,137.9,74.5,134.5Zm8,0c0-2.5-1.1-3.9-3.1-3.9s-3.1,1.4-3.1,3.9,1.1,3.9,3.1,3.9S82.5,137,82.5,134.5Z" style="fill:#707070"/><path d="M86.9,129.2h1.6v1.7h.1a3.2,3.2,0,0,1,3.2-1.8c2.4,0,3.7,1.4,3.7,3.9v6.8H93.8v-6.4c0-1.9-.8-2.8-2.5-2.8a2.6,2.6,0,0,0-2.7,2.9v6.3H86.9Z" style="fill:#707070"/><path d="M98,134.5c0-3.4,1.9-5.4,4.9-5.4s4.8,2,4.8,5.4-1.8,5.5-4.8,5.5S98,137.9,98,134.5Zm8,0c0-2.5-1.1-3.9-3.1-3.9s-3.1,1.4-3.1,3.9,1.1,3.9,3.1,3.9S106,137,106,134.5Z" style="fill:#707070"/><path d="M110.5,125.1h1.6v14.7h-1.6Z" style="fill:#707070"/><path d="M115.1,126a1.1,1.1,0,0,1,1.2-1.1,1.2,1.2,0,0,1,1.2,1.1,1.2,1.2,0,0,1-1.2,1.2A1.2,1.2,0,0,1,115.1,126Zm.3,3.2h1.7v10.6h-1.7Z" style="fill:#707070"/><path d="M122.7,126.5v2.7h2.4v1.4h-2.4v6c0,1.2.5,1.8,1.6,1.8h.8v1.5h-1c-2.2,0-3.1-.8-3.1-2.8v-6.4h-1.7v-1.4H121v-2.7Z" style="fill:#707070"/><path d="M127.7,125.1h1.7v5.8h.1a3.4,3.4,0,0,1,3.3-1.8c2.2,0,3.6,1.4,3.6,3.9v6.8h-1.7v-6.4c0-1.9-.8-2.8-2.4-2.8a2.7,2.7,0,0,0-2.9,2.9v6.3h-1.7Z" style="fill:#707070"/><path d="M139.2,126a1.1,1.1,0,0,1,1.1-1.1,1.1,1.1,0,0,1,1.2,1.1,1.2,1.2,0,0,1-1.2,1.2A1.1,1.1,0,0,1,139.2,126Zm.3,3.2h1.7v10.6h-1.7Z" style="fill:#707070"/><path d="M151.4,132.5a2.6,2.6,0,0,0-2.7-1.9c-1.9,0-3.1,1.5-3.1,3.9s1.2,3.9,3.1,3.9a2.5,2.5,0,0,0,2.7-1.8h1.7a4.1,4.1,0,0,1-4.4,3.4c-3,0-4.8-2.2-4.8-5.5s1.8-5.4,4.8-5.4a4.1,4.1,0,0,1,4.4,3.4Z" style="fill:#707070"/><path d="M61.7,159.7H56.1l-1.4,4.1H52.8L58,149.7h1.8l5.1,14.1H63.1Zm-5.1-1.5h4.6L59,152h-.2Z" style="fill:#707070"/><path d="M76.8,158.5c0,3.3-1.8,5.5-4.5,5.5a3.6,3.6,0,0,1-3.3-1.8h-.1v5.1H67.2V153.2h1.6V155H69a3.6,3.6,0,0,1,3.3-1.9C75,153.1,76.8,155.2,76.8,158.5Zm-1.8,0c0-2.5-1.1-3.9-3.1-3.9s-3.1,1.5-3.1,3.9,1.2,3.9,3.1,3.9S75,161,75,158.5Z" style="fill:#707070"/><path d="M88.9,158.5c0,3.3-1.7,5.5-4.4,5.5a3.6,3.6,0,0,1-3.3-1.8h-.1v5.1H79.4V153.2H81V155h.1a3.9,3.9,0,0,1,3.4-1.9C87.2,153.1,88.9,155.2,88.9,158.5Zm-1.7,0c0-2.5-1.2-3.9-3.1-3.9s-3.1,1.5-3.1,3.9,1.2,3.9,3.1,3.9S87.2,161,87.2,158.5Z" style="fill:#707070"/><path d="M91.7,149.1h1.7v14.7H91.7Z" style="fill:#707070"/><path d="M96.3,150a1.2,1.2,0,0,1,2.4,0,1.2,1.2,0,1,1-2.4,0Zm.4,3.2h1.6v10.6H96.7Z" style="fill:#707070"/><path d="M108.5,156.5a2.5,2.5,0,0,0-2.7-1.9c-1.9,0-3.1,1.5-3.1,3.9s1.3,3.9,3.1,3.9,2.4-.6,2.7-1.8h1.7c-.3,1.9-1.8,3.4-4.4,3.4s-4.8-2.2-4.8-5.5,1.9-5.4,4.8-5.4,4.2,1.5,4.4,3.4Z" style="fill:#707070"/><path d="M112.1,160.8c0-1.9,1.4-2.9,3.8-3.1l3.1-.2v-.9c0-1.3-.8-2-2.4-2s-2.1.4-2.4,1.3h-1.7c.2-1.7,1.9-2.8,4.2-2.8s4,1.3,4,3.5v7.2h-1.6v-1.6h-.2a3.7,3.7,0,0,1-3.2,1.8C113.6,164,112.1,162.7,112.1,160.8Zm6.9-1v-.9l-2.9.2c-1.6.1-2.3.6-2.3,1.7s1,1.7,2.2,1.7A2.8,2.8,0,0,0,119,159.8Z" style="fill:#707070"/><path d="M126.1,150.5v2.7h2.4v1.4h-2.4v6c0,1.2.5,1.8,1.6,1.8h.8v1.5h-1c-2.2,0-3-.8-3-2.8v-6.4h-1.7v-1.4h1.7v-2.7Z" style="fill:#707070"/><path d="M130.7,150a1.2,1.2,0,0,1,1.2-1.1,1.1,1.1,0,0,1,1.2,1.1,1.2,1.2,0,0,1-1.2,1.2A1.2,1.2,0,0,1,130.7,150Zm.4,3.2h1.6v10.6h-1.6Z" style="fill:#707070"/><path d="M135.4,158.5c0-3.4,1.9-5.4,4.9-5.4s4.8,2,4.8,5.4-1.8,5.5-4.8,5.5S135.4,161.9,135.4,158.5Zm8,0c0-2.5-1.1-3.9-3.1-3.9s-3.1,1.4-3.1,3.9,1.1,3.9,3.1,3.9S143.4,161,143.4,158.5Z" style="fill:#707070"/><path d="M147.8,153.2h1.6v1.7h.1a3.2,3.2,0,0,1,3.2-1.8c2.4,0,3.7,1.4,3.7,3.9v6.8h-1.7v-6.4c0-1.9-.8-2.8-2.5-2.8a2.7,2.7,0,0,0-2.8,2.9v6.3h-1.6Z" style="fill:#707070"/><path d="M288.7,52.8V42h-.1l-4.4,10.8h-1.5L278.2,42h-.1V52.8h-1.6V38.7h2l4.8,11.7h.2l4.8-11.7h2.1V52.8Z" style="fill:#707070"/><path d="M293.5,39a1.1,1.1,0,0,1,1.1-1.1,1.1,1.1,0,0,1,1.2,1.1,1.2,1.2,0,0,1-1.2,1.2A1.1,1.1,0,0,1,293.5,39Zm.3,3.2h1.7V52.8h-1.7Z" style="fill:#707070"/><path d="M305.7,45.5a2.6,2.6,0,0,0-2.7-1.9c-1.9,0-3.1,1.5-3.1,3.9s1.2,3.9,3.1,3.9a2.5,2.5,0,0,0,2.7-1.8h1.7A4.1,4.1,0,0,1,303,53c-3,0-4.9-2.2-4.9-5.5s1.9-5.4,4.9-5.4a4.1,4.1,0,0,1,4.4,3.4Z" style="fill:#707070"/><path d="M309.9,42.2h1.6v1.6h.1a2.9,2.9,0,0,1,2.9-1.7h.9v1.7h-1.1a2.6,2.6,0,0,0-2.8,2.5v6.6h-1.6Z" style="fill:#707070"/><path d="M316.7,47.5c0-3.4,1.8-5.4,4.8-5.4s4.9,2,4.9,5.4-1.9,5.5-4.9,5.5S316.7,50.9,316.7,47.5Zm7.9,0c0-2.5-1.1-3.9-3.1-3.9s-3.1,1.4-3.1,3.9,1.1,3.9,3.1,3.9S324.6,50,324.6,47.5Z" style="fill:#707070"/><path d="M332.7,42.1c2.2,0,3.7,1.1,4,2.8H335c-.2-.9-1.1-1.4-2.3-1.4s-2.3.6-2.3,1.6.6,1.1,1.9,1.4l1.6.4c2,.5,2.9,1.4,2.9,2.9S335,53,332.6,53s-3.9-1.2-4.1-2.9h1.7c.3.9,1.1,1.4,2.5,1.4s2.4-.6,2.4-1.6-.5-1.2-1.7-1.5l-1.8-.4c-1.9-.5-2.8-1.4-2.8-2.9S330.4,42.1,332.7,42.1Z" style="fill:#707070"/><path d="M348.1,50a4.2,4.2,0,0,1-4.4,3c-2.9,0-4.8-2.2-4.8-5.5s1.9-5.4,4.8-5.4,4.6,2,4.6,5.3V48h-7.6c.1,2.1,1.2,3.4,3,3.4a2.6,2.6,0,0,0,2.7-1.5Zm-7.4-3.4h5.8a2.9,2.9,0,0,0-2.8-3.1A3,3,0,0,0,340.7,46.6Z" style="fill:#707070"/><path d="M350.9,42.2h1.6v1.6h.2a2.9,2.9,0,0,1,2.9-1.7h.8v1.7h-1.1a2.5,2.5,0,0,0-2.7,2.5v6.6h-1.7Z" style="fill:#707070"/><path d="M363.2,52.8h-1.7l-3.9-10.6h1.8l2.9,8.7h.1l2.9-8.7h1.8Z" style="fill:#707070"/><path d="M369.1,39a1.1,1.1,0,0,1,1.1-1.1,1.1,1.1,0,0,1,1.2,1.1,1.2,1.2,0,0,1-1.2,1.2A1.1,1.1,0,0,1,369.1,39Zm.3,3.2h1.7V52.8h-1.7Z" style="fill:#707070"/><path d="M381.3,45.5a2.6,2.6,0,0,0-2.7-1.9c-1.9,0-3.1,1.5-3.1,3.9s1.2,3.9,3.1,3.9a2.5,2.5,0,0,0,2.7-1.8H383a4.1,4.1,0,0,1-4.4,3.4c-3,0-4.8-2.2-4.8-5.5s1.8-5.4,4.8-5.4a4.1,4.1,0,0,1,4.4,3.4Z" style="fill:#707070"/><path d="M394.1,50a4.2,4.2,0,0,1-4.4,3c-2.9,0-4.8-2.2-4.8-5.5s1.9-5.4,4.8-5.4,4.6,2,4.6,5.3V48h-7.6c.1,2.1,1.2,3.4,3,3.4a2.6,2.6,0,0,0,2.7-1.5Zm-7.4-3.4h5.8a2.9,2.9,0,0,0-2.8-3.1A3,3,0,0,0,386.7,46.6Z" style="fill:#707070"/><path d="M529.9,26.5V12.4h8.5V14h-6.8v4.8h6.3v1.6h-6.3v6.1Z" style="fill:#707070"/><path d="M549.6,26.5H548V24.8h-.1a3.4,3.4,0,0,1-3.3,1.9c-2.4,0-3.6-1.4-3.6-3.9V16h1.7v6.4c0,1.9.7,2.7,2.4,2.7a2.6,2.6,0,0,0,2.8-2.9V16h1.7Z" style="fill:#707070"/><path d="M552.8,16h1.6v1.6h.1a3.4,3.4,0,0,1,3.2-1.8c2.4,0,3.7,1.4,3.7,3.9v6.8h-1.7V20.1c0-1.9-.8-2.8-2.5-2.8s-2.7,1.1-2.7,3v6.2h-1.7Z" style="fill:#707070"/><path d="M571.5,19.2a2.6,2.6,0,0,0-2.8-1.9c-1.8,0-3,1.5-3,3.9s1.2,4,3,4a2.7,2.7,0,0,0,2.8-1.9h1.7a4.1,4.1,0,0,1-4.4,3.4c-3,0-4.9-2.2-4.9-5.5s1.9-5.4,4.8-5.4,4.2,1.5,4.5,3.4Z" style="fill:#707070"/><path d="M578.2,13.2V16h2.4v1.4h-2.4v5.9c0,1.3.5,1.8,1.6,1.8h.8v1.5h-1c-2.2,0-3.1-.8-3.1-2.9V17.4h-1.7V16h1.7V13.2Z" style="fill:#707070"/><path d="M582.8,12.8a1.2,1.2,0,0,1,1.2-1.2,1.2,1.2,0,0,1,1.2,1.2,1.2,1.2,0,0,1-1.2,1.1A1.1,1.1,0,0,1,582.8,12.8Zm.3,3.2h1.7V26.5h-1.7Z" style="fill:#707070"/><path d="M587.5,21.2c0-3.4,1.9-5.4,4.8-5.4s4.9,2,4.9,5.4-1.9,5.5-4.9,5.5S587.5,24.6,587.5,21.2Zm8,0c0-2.5-1.2-3.9-3.2-3.9s-3.1,1.4-3.1,3.9,1.2,4,3.1,4S595.5,23.7,595.5,21.2Z" style="fill:#707070"/><path d="M599.8,16h1.6v1.6h.2a3.3,3.3,0,0,1,3.2-1.8c2.3,0,3.6,1.4,3.6,3.9v6.8h-1.6V20.1c0-1.9-.8-2.8-2.5-2.8a2.7,2.7,0,0,0-2.8,3v6.2h-1.7Z" style="fill:#707070"/><path d="M529.9,76.6V62.5h8.5v1.6h-6.8v4.8h6.3v1.6h-6.3v6.1Z" style="fill:#707070"/><path d="M549.6,76.6H548V74.9h-.1a3.4,3.4,0,0,1-3.3,1.9c-2.4,0-3.6-1.4-3.6-3.9V66.1h1.7v6.4c0,1.9.7,2.7,2.4,2.7a2.6,2.6,0,0,0,2.8-2.9V66.1h1.7Z" style="fill:#707070"/><path d="M552.8,66.1h1.6v1.6h.1a3.4,3.4,0,0,1,3.2-1.8c2.4,0,3.7,1.4,3.7,3.9v6.8h-1.7V70.2c0-1.9-.8-2.8-2.5-2.8s-2.7,1.1-2.7,3v6.2h-1.7Z" style="fill:#707070"/><path d="M571.5,69.3a2.6,2.6,0,0,0-2.8-1.9c-1.8,0-3,1.5-3,3.9s1.2,4,3,4a2.7,2.7,0,0,0,2.8-1.9h1.7c-.3,2-1.9,3.4-4.4,3.4s-4.9-2.2-4.9-5.5,1.9-5.4,4.8-5.4,4.2,1.5,4.5,3.4Z" style="fill:#707070"/><path d="M578.2,63.3v2.8h2.4v1.4h-2.4v5.9c0,1.3.5,1.8,1.6,1.8h.8v1.4h-1c-2.2,0-3.1-.8-3.1-2.8V67.5h-1.7V66.1h1.7V63.3Z" style="fill:#707070"/><path d="M582.8,62.9a1.2,1.2,0,0,1,1.2-1.2,1.2,1.2,0,0,1,1.2,1.2A1.2,1.2,0,0,1,584,64,1.1,1.1,0,0,1,582.8,62.9Zm.3,3.2h1.7V76.6h-1.7Z" style="fill:#707070"/><path d="M587.5,71.3c0-3.4,1.9-5.4,4.8-5.4s4.9,2,4.9,5.4-1.9,5.5-4.9,5.5S587.5,74.7,587.5,71.3Zm8,0c0-2.5-1.2-3.9-3.2-3.9s-3.1,1.4-3.1,3.9,1.2,4,3.1,4S595.5,73.8,595.5,71.3Z" style="fill:#707070"/><path d="M599.8,66.1h1.6v1.6h.2a3.3,3.3,0,0,1,3.2-1.8c2.3,0,3.6,1.4,3.6,3.9v6.8h-1.6V70.2c0-1.9-.8-2.8-2.5-2.8a2.7,2.7,0,0,0-2.8,3v6.2h-1.7Z" style="fill:#707070"/><path d="M529.9,126.7V112.6h8.5v1.6h-6.8V119h6.3v1.6h-6.3v6.1Z" style="fill:#707070"/><path d="M549.6,126.7H548v-1.6h-.1a3.5,3.5,0,0,1-3.3,1.8c-2.4,0-3.6-1.4-3.6-3.9v-6.8h1.7v6.4c0,1.9.7,2.8,2.4,2.8s2.8-1.1,2.8-3v-6.2h1.7Z" style="fill:#707070"/><path d="M552.8,116.2h1.6v1.6h.1a3.4,3.4,0,0,1,3.2-1.8c2.4,0,3.7,1.4,3.7,3.9v6.8h-1.7v-6.4c0-1.9-.8-2.8-2.5-2.8s-2.7,1.1-2.7,3v6.2h-1.7Z" style="fill:#707070"/><path d="M571.5,119.4a2.7,2.7,0,0,0-2.8-1.9c-1.8,0-3,1.5-3,3.9s1.2,4,3,4a2.7,2.7,0,0,0,2.8-1.9h1.7c-.3,2-1.9,3.4-4.4,3.4s-4.9-2.1-4.9-5.5,1.9-5.4,4.8-5.4,4.2,1.5,4.5,3.4Z" style="fill:#707070"/><path d="M578.2,113.5v2.7h2.4v1.4h-2.4v5.9c0,1.3.5,1.8,1.6,1.8h.8v1.4h-1c-2.2,0-3.1-.8-3.1-2.8v-6.4h-1.7v-1.4h1.7v-2.7Z" style="fill:#707070"/><path d="M582.8,113a1.2,1.2,0,0,1,1.2-1.2,1.2,1.2,0,0,1,1.2,1.2,1.3,1.3,0,0,1-1.2,1.2A1.2,1.2,0,0,1,582.8,113Zm.3,3.2h1.7v10.5h-1.7Z" style="fill:#707070"/><path d="M587.5,121.4c0-3.3,1.9-5.4,4.8-5.4s4.9,2.1,4.9,5.4-1.9,5.5-4.9,5.5S587.5,124.8,587.5,121.4Zm8,0c0-2.5-1.2-3.9-3.2-3.9s-3.1,1.4-3.1,3.9,1.2,4,3.1,4S595.5,123.9,595.5,121.4Z" style="fill:#707070"/><path d="M599.8,116.2h1.6v1.6h.2a3.3,3.3,0,0,1,3.2-1.8c2.3,0,3.6,1.4,3.6,3.9v6.8h-1.6v-6.4c0-1.9-.8-2.8-2.5-2.8a2.7,2.7,0,0,0-2.8,3v6.2h-1.7Z" style="fill:#707070"/><path d="M529.9,176.8V162.7h8.5v1.6h-6.8v4.9h6.3v1.5h-6.3v6.1Z" style="fill:#707070"/><path d="M549.6,176.8H548v-1.6h-.1a3.5,3.5,0,0,1-3.3,1.8c-2.4,0-3.6-1.4-3.6-3.9v-6.8h1.7v6.4c0,1.9.7,2.8,2.4,2.8s2.8-1.1,2.8-3v-6.2h1.7Z" style="fill:#707070"/><path d="M552.8,166.3h1.6V168h.1a3.3,3.3,0,0,1,3.2-1.9c2.4,0,3.7,1.4,3.7,3.9v6.8h-1.7v-6.4c0-1.9-.8-2.8-2.5-2.8s-2.7,1.2-2.7,3v6.2h-1.7Z" style="fill:#707070"/><path d="M571.5,169.5a2.7,2.7,0,0,0-2.8-1.9c-1.8,0-3,1.5-3,3.9s1.2,4,3,4a2.7,2.7,0,0,0,2.8-1.8h1.7c-.3,1.9-1.9,3.3-4.4,3.3s-4.9-2.1-4.9-5.5,1.9-5.4,4.8-5.4,4.2,1.5,4.5,3.4Z" style="fill:#707070"/><path d="M578.2,163.6v2.7h2.4v1.4h-2.4v6c0,1.2.5,1.7,1.6,1.7h.8v1.4h-1c-2.2,0-3.1-.8-3.1-2.8v-6.4h-1.7v-1.4h1.7v-2.7Z" style="fill:#707070"/><path d="M582.8,163.1a1.2,1.2,0,0,1,1.2-1.2,1.2,1.2,0,1,1,0,2.4A1.2,1.2,0,0,1,582.8,163.1Zm.3,3.2h1.7v10.5h-1.7Z" style="fill:#707070"/><path d="M587.5,171.6c0-3.4,1.9-5.5,4.8-5.5s4.9,2.1,4.9,5.5-1.9,5.4-4.9,5.4S587.5,174.9,587.5,171.6Zm8,0c0-2.5-1.2-4-3.2-4s-3.1,1.5-3.1,4,1.2,3.9,3.1,3.9S595.5,174.1,595.5,171.6Z" style="fill:#707070"/><path d="M599.8,166.3h1.6V168h.2a3.2,3.2,0,0,1,3.2-1.9c2.3,0,3.6,1.4,3.6,3.9v6.8h-1.6v-6.4c0-1.9-.8-2.8-2.5-2.8a2.7,2.7,0,0,0-2.8,3v6.2h-1.7Z" style="fill:#707070"/><path d="M529.9,226.9v-14h8.5v1.5h-6.8v4.9h6.3v1.5h-6.3v6.1Z" style="fill:#707070"/><path d="M549.6,226.9H548v-1.6h-.1a3.4,3.4,0,0,1-3.3,1.8c-2.4,0-3.6-1.4-3.6-3.9v-6.8h1.7v6.4c0,1.9.7,2.8,2.4,2.8s2.8-1.1,2.8-3v-6.2h1.7Z" style="fill:#707070"/><path d="M552.8,216.4h1.6v1.7h.1a3.3,3.3,0,0,1,3.2-1.9c2.4,0,3.7,1.4,3.7,3.9v6.8h-1.7v-6.4c0-1.9-.8-2.8-2.5-2.8s-2.7,1.2-2.7,3v6.2h-1.7Z" style="fill:#707070"/><path d="M571.5,219.6a2.7,2.7,0,0,0-2.8-1.9c-1.8,0-3,1.6-3,3.9s1.2,4,3,4a2.6,2.6,0,0,0,2.8-1.8h1.7c-.3,1.9-1.9,3.3-4.4,3.3s-4.9-2.1-4.9-5.5,1.9-5.4,4.8-5.4a4.3,4.3,0,0,1,4.5,3.4Z" style="fill:#707070"/><path d="M578.2,213.7v2.7h2.4v1.4h-2.4v6c0,1.2.5,1.7,1.6,1.7h.8v1.4h-1c-2.2,0-3.1-.8-3.1-2.8v-6.4h-1.7v-1.4h1.7v-2.7Z" style="fill:#707070"/><path d="M582.8,213.2A1.2,1.2,0,0,1,584,212a1.3,1.3,0,0,1,1.2,1.2,1.2,1.2,0,0,1-1.2,1.2A1.2,1.2,0,0,1,582.8,213.2Zm.3,3.2h1.7v10.5h-1.7Z" style="fill:#707070"/><path d="M587.5,221.7c0-3.4,1.9-5.5,4.8-5.5s4.9,2.1,4.9,5.5-1.9,5.4-4.9,5.4S587.5,225.1,587.5,221.7Zm8,0c0-2.5-1.2-4-3.2-4s-3.1,1.5-3.1,4,1.2,3.9,3.1,3.9S595.5,224.2,595.5,221.7Z" style="fill:#707070"/><path d="M599.8,216.4h1.6v1.7h.2a3.2,3.2,0,0,1,3.2-1.9c2.3,0,3.6,1.4,3.6,3.9v6.8h-1.6v-6.4c0-1.9-.8-2.8-2.5-2.8a2.7,2.7,0,0,0-2.8,3v6.2h-1.7Z" style="fill:#707070"/><path d="M529.9,277.1V263h8.5v1.5h-6.8v4.9h6.3V271h-6.3v6.1Z" style="fill:#707070"/><path d="M549.6,277.1H548v-1.7h-.1a3.4,3.4,0,0,1-3.3,1.8c-2.4,0-3.6-1.4-3.6-3.9v-6.8h1.7v6.4c0,1.9.7,2.8,2.4,2.8a2.6,2.6,0,0,0,2.8-2.9v-6.3h1.7Z" style="fill:#707070"/><path d="M552.8,266.5h1.6v1.7h.1a3.3,3.3,0,0,1,3.2-1.9c2.4,0,3.7,1.4,3.7,3.9v6.9h-1.7v-6.4c0-1.9-.8-2.8-2.5-2.8a2.6,2.6,0,0,0-2.7,2.9v6.3h-1.7Z" style="fill:#707070"/><path d="M571.5,269.8a2.6,2.6,0,0,0-2.8-1.9c-1.8,0-3,1.5-3,3.9s1.2,3.9,3,3.9a2.6,2.6,0,0,0,2.8-1.8h1.7c-.3,1.9-1.9,3.3-4.4,3.3s-4.9-2.1-4.9-5.4,1.9-5.5,4.8-5.5a4.2,4.2,0,0,1,4.5,3.5Z" style="fill:#707070"/><path d="M578.2,263.8v2.7h2.4v1.4h-2.4v6c0,1.2.5,1.8,1.6,1.8h.8V277h-1c-2.2,0-3.1-.8-3.1-2.8v-6.4h-1.7v-1.4h1.7v-2.7Z" style="fill:#707070"/><path d="M582.8,263.3a1.1,1.1,0,0,1,1.2-1.1,1.2,1.2,0,0,1,1.2,1.1,1.2,1.2,0,0,1-1.2,1.2A1.2,1.2,0,0,1,582.8,263.3Zm.3,3.2h1.7v10.6h-1.7Z" style="fill:#707070"/><path d="M587.5,271.8c0-3.4,1.9-5.5,4.8-5.5s4.9,2.1,4.9,5.5-1.9,5.4-4.9,5.4S587.5,275.2,587.5,271.8Zm8,0c0-2.5-1.2-3.9-3.2-3.9s-3.1,1.4-3.1,3.9,1.2,3.9,3.1,3.9S595.5,274.3,595.5,271.8Z" style="fill:#707070"/><path d="M599.8,266.5h1.6v1.7h.2a3.2,3.2,0,0,1,3.2-1.9c2.3,0,3.6,1.4,3.6,3.9v6.9h-1.6v-6.4c0-1.9-.8-2.8-2.5-2.8a2.7,2.7,0,0,0-2.8,2.9v6.3h-1.7Z" style="fill:#707070"/><path d="M288.7,153.8V143h-.1l-4.4,10.8h-1.5L278.2,143h-.1v10.8h-1.6V139.7h2l4.8,11.7h.2l4.8-11.7h2.1v14.1Z" style="fill:#707070"/><path d="M293.5,140a1.1,1.1,0,0,1,1.1-1.1,1.1,1.1,0,0,1,1.2,1.1,1.2,1.2,0,0,1-1.2,1.2A1.1,1.1,0,0,1,293.5,140Zm.3,3.2h1.7v10.6h-1.7Z" style="fill:#707070"/><path d="M305.7,146.5a2.6,2.6,0,0,0-2.7-1.9c-1.9,0-3.1,1.5-3.1,3.9s1.2,3.9,3.1,3.9a2.5,2.5,0,0,0,2.7-1.8h1.7A4.1,4.1,0,0,1,303,154c-3,0-4.9-2.2-4.9-5.5s1.9-5.4,4.9-5.4a4.1,4.1,0,0,1,4.4,3.4Z" style="fill:#707070"/><path d="M309.9,143.2h1.6v1.6h.1a2.9,2.9,0,0,1,2.9-1.7h.9v1.7h-1.1a2.6,2.6,0,0,0-2.8,2.5v6.6h-1.6Z" style="fill:#707070"/><path d="M316.7,148.5c0-3.4,1.8-5.4,4.8-5.4s4.9,2,4.9,5.4-1.9,5.5-4.9,5.5S316.7,151.9,316.7,148.5Zm7.9,0c0-2.5-1.1-3.9-3.1-3.9s-3.1,1.4-3.1,3.9,1.1,3.9,3.1,3.9S324.6,151,324.6,148.5Z" style="fill:#707070"/><path d="M332.7,143.1c2.2,0,3.7,1.1,4,2.8H335c-.2-.9-1.1-1.4-2.3-1.4s-2.3.6-2.3,1.6.6,1.1,1.9,1.4l1.6.4c2,.5,2.9,1.4,2.9,2.9s-1.8,3.2-4.2,3.2-3.9-1.2-4.1-2.9h1.7c.3.9,1.1,1.4,2.5,1.4s2.4-.6,2.4-1.6-.5-1.2-1.7-1.5l-1.8-.4c-1.9-.5-2.8-1.4-2.8-2.9S330.4,143.1,332.7,143.1Z" style="fill:#707070"/><path d="M348.1,151a4.2,4.2,0,0,1-4.4,3c-2.9,0-4.8-2.2-4.8-5.5s1.9-5.4,4.8-5.4,4.6,2,4.6,5.2v.7h-7.6c.1,2.1,1.2,3.4,3,3.4a2.6,2.6,0,0,0,2.7-1.5Zm-7.4-3.4h5.8a2.9,2.9,0,0,0-2.8-3.1A3,3,0,0,0,340.7,147.6Z" style="fill:#707070"/><path d="M350.9,143.2h1.6v1.6h.2a2.9,2.9,0,0,1,2.9-1.7h.8v1.7h-1.1a2.5,2.5,0,0,0-2.7,2.5v6.6h-1.7Z" style="fill:#707070"/><path d="M363.2,153.8h-1.7l-3.9-10.6h1.8l2.9,8.7h.1l2.9-8.7h1.8Z" style="fill:#707070"/><path d="M369.1,140a1.1,1.1,0,0,1,1.1-1.1,1.1,1.1,0,0,1,1.2,1.1,1.2,1.2,0,0,1-1.2,1.2A1.1,1.1,0,0,1,369.1,140Zm.3,3.2h1.7v10.6h-1.7Z" style="fill:#707070"/><path d="M381.3,146.5a2.6,2.6,0,0,0-2.7-1.9c-1.9,0-3.1,1.5-3.1,3.9s1.2,3.9,3.1,3.9a2.5,2.5,0,0,0,2.7-1.8H383a4.1,4.1,0,0,1-4.4,3.4c-3,0-4.8-2.2-4.8-5.5s1.8-5.4,4.8-5.4a4.1,4.1,0,0,1,4.4,3.4Z" style="fill:#707070"/><path d="M394.1,151a4.2,4.2,0,0,1-4.4,3c-2.9,0-4.8-2.2-4.8-5.5s1.9-5.4,4.8-5.4,4.6,2,4.6,5.2v.7h-7.6c.1,2.1,1.2,3.4,3,3.4a2.6,2.6,0,0,0,2.7-1.5Zm-7.4-3.4h5.8a2.9,2.9,0,0,0-2.8-3.1A3,3,0,0,0,386.7,147.6Z" style="fill:#707070"/><path d="M288.7,253.8V243h-.1l-4.4,10.8h-1.5L278.2,243h-.1v10.8h-1.6V239.7h2l4.8,11.7h.2l4.8-11.7h2.1v14.1Z" style="fill:#707070"/><path d="M293.5,240a1.1,1.1,0,0,1,1.1-1.1,1.1,1.1,0,0,1,1.2,1.1,1.2,1.2,0,0,1-1.2,1.2A1.1,1.1,0,0,1,293.5,240Zm.3,3.2h1.7v10.6h-1.7Z" style="fill:#707070"/><path d="M305.7,246.5a2.6,2.6,0,0,0-2.7-1.9c-1.9,0-3.1,1.5-3.1,3.9s1.2,3.9,3.1,3.9a2.5,2.5,0,0,0,2.7-1.8h1.7A4.1,4.1,0,0,1,303,254c-3,0-4.9-2.2-4.9-5.5s1.9-5.4,4.9-5.4a4.1,4.1,0,0,1,4.4,3.4Z" style="fill:#707070"/><path d="M309.9,243.2h1.6v1.6h.1a2.9,2.9,0,0,1,2.9-1.7h.9v1.7h-1.1a2.6,2.6,0,0,0-2.8,2.5v6.6h-1.6Z" style="fill:#707070"/><path d="M316.7,248.5c0-3.4,1.8-5.4,4.8-5.4s4.9,2,4.9,5.4-1.9,5.5-4.9,5.5S316.7,251.9,316.7,248.5Zm7.9,0c0-2.5-1.1-3.9-3.1-3.9s-3.1,1.4-3.1,3.9,1.1,3.9,3.1,3.9S324.6,251,324.6,248.5Z" style="fill:#707070"/><path d="M332.7,243.1c2.2,0,3.7,1.1,4,2.8H335c-.2-.9-1.1-1.4-2.3-1.4s-2.3.6-2.3,1.6.6,1.1,1.9,1.4l1.6.4c2,.5,2.9,1.4,2.9,2.9s-1.8,3.2-4.2,3.2-3.9-1.2-4.1-2.9h1.7c.3.9,1.1,1.4,2.5,1.4s2.4-.6,2.4-1.6-.5-1.2-1.7-1.5l-1.8-.4c-1.9-.5-2.8-1.4-2.8-2.9S330.4,243.1,332.7,243.1Z" style="fill:#707070"/><path d="M348.1,251a4.2,4.2,0,0,1-4.4,3c-2.9,0-4.8-2.2-4.8-5.5s1.9-5.4,4.8-5.4,4.6,2,4.6,5.2v.7h-7.6c.1,2.1,1.2,3.4,3,3.4a2.6,2.6,0,0,0,2.7-1.5Zm-7.4-3.4h5.8a2.9,2.9,0,0,0-2.8-3.1A3,3,0,0,0,340.7,247.6Z" style="fill:#707070"/><path d="M350.9,243.2h1.6v1.6h.2a2.9,2.9,0,0,1,2.9-1.7h.8v1.7h-1.1a2.5,2.5,0,0,0-2.7,2.5v6.6h-1.7Z" style="fill:#707070"/><path d="M363.2,253.8h-1.7l-3.9-10.6h1.8l2.9,8.7h.1l2.9-8.7h1.8Z" style="fill:#707070"/><path d="M369.1,240a1.1,1.1,0,0,1,1.1-1.1,1.1,1.1,0,0,1,1.2,1.1,1.2,1.2,0,0,1-1.2,1.2A1.1,1.1,0,0,1,369.1,240Zm.3,3.2h1.7v10.6h-1.7Z" style="fill:#707070"/><path d="M381.3,246.5a2.6,2.6,0,0,0-2.7-1.9c-1.9,0-3.1,1.5-3.1,3.9s1.2,3.9,3.1,3.9a2.5,2.5,0,0,0,2.7-1.8H383a4.1,4.1,0,0,1-4.4,3.4c-3,0-4.8-2.2-4.8-5.5s1.8-5.4,4.8-5.4a4.1,4.1,0,0,1,4.4,3.4Z" style="fill:#707070"/><path d="M394.1,251a4.2,4.2,0,0,1-4.4,3c-2.9,0-4.8-2.2-4.8-5.5s1.9-5.4,4.8-5.4,4.6,2,4.6,5.2v.7h-7.6c.1,2.1,1.2,3.4,3,3.4a2.6,2.6,0,0,0,2.7-1.5Zm-7.4-3.4h5.8a2.9,2.9,0,0,0-2.8-3.1A3,3,0,0,0,386.7,247.6Z" style="fill:#707070"/><rect x="1" y="1" width="208" height="290.5" style="fill:none;stroke-miterlimit:10;stroke-width:2px;stroke:url(#linear-gradient)"/><rect x="235" y="1.5" width="200" height="87.2" style="fill:none;stroke-miterlimit:10;stroke-width:2px;stroke:url(#linear-gradient-2)"/><rect x="235" y="102.7" width="200" height="87.2" style="fill:none;stroke-miterlimit:10;stroke-width:2px;stroke:url(#linear-gradient-3)"/><rect x="235" y="203.8" width="200" height="87.2" style="fill:none;stroke-miterlimit:10;stroke-width:2px;stroke:url(#linear-gradient-4)"/><rect x="469" y="1.5" width="200" height="38.93" style="fill:none;stroke-miterlimit:10;stroke-width:2px;stroke:url(#linear-gradient-5)"/><rect x="469" y="51.6" width="200" height="38.93" style="fill:none;stroke-miterlimit:10;stroke-width:2px;stroke:url(#linear-gradient-6)"/><rect x="469" y="101.7" width="200" height="38.93" style="fill:none;stroke-miterlimit:10;stroke-width:2px;stroke:url(#linear-gradient-7)"/><rect x="469" y="151.8" width="200" height="38.93" style="fill:none;stroke-miterlimit:10;stroke-width:2px;stroke:url(#linear-gradient-8)"/><rect x="469" y="202" width="200" height="38.93" style="fill:none;stroke-miterlimit:10;stroke-width:2px;stroke:url(#linear-gradient-9)"/><rect x="469" y="252.1" width="200" height="38.93" style="fill:none;stroke-miterlimit:10;stroke-width:2px;stroke:url(#linear-gradient-10)"/><polygon points="227.6 146.3 217 156.9 217 146.3 217 135.6 227.6 146.3" style="fill:url(#linear-gradient-11)"/><polygon points="457.6 146.3 447 156.9 447 146.3 447 135.6 457.6 146.3" style="fill:url(#linear-gradient-12)"/></svg>