<svg id="Layer_1" data-name="Layer 1" xmlns="http://www.w3.org/2000/svg" viewBox="0 0 1480 600"><defs><style>.cls-1{fill:#ceeaee;}.cls-2{fill:#c7a1c9;}.cls-3{fill:#36393a;}.cls-4{fill:#764082;}.cls-5{fill:#2b808d;}</style></defs><title>MRK-9756_What-Is-a-Private-Cloud_190910</title><path class="cls-1" d="M1387.37,235a59.23,59.23,0,0,1-9.11,117.75h-237a41.32,41.32,0,0,1-10.2-81.36,59.26,59.26,0,0,1,74.08-67,95.74,95.74,0,0,1,87.54-58.19A95,95,0,0,1,1387.37,235Zm45.29,58.52a54.43,54.43,0,0,0-47.88-54,2.4,2.4,0,0,1-2.11-2.29,90.23,90.23,0,0,0-90-86.19,90.86,90.86,0,0,0-83.89,57.18,2.41,2.41,0,0,1-3,1.41,54.44,54.44,0,0,0-69.61,63.11,2.39,2.39,0,0,1-1.89,2.86,36.5,36.5,0,0,0,6.94,72.34h237A54.47,54.47,0,0,0,1432.66,293.5Z"/><path class="cls-1" d="M1384.78,239.49a54.41,54.41,0,0,1-6.52,108.42h-237a36.5,36.5,0,0,1-6.94-72.34,2.39,2.39,0,0,0,1.89-2.86,54.45,54.45,0,0,1,69.61-63.11,2.41,2.41,0,0,0,3-1.41A90.86,90.86,0,0,1,1292.63,151a90.23,90.23,0,0,1,90,86.19A2.4,2.4,0,0,0,1384.78,239.49Z"/><path class="cls-1" d="M972.75,459.16c49.72-65.1,56-173.22-13.73-232.9-66.18-56.66-186.49-72.48-222,18.29-9.76,25-17.63,52.9-38.92,68.67-10.7,7.92-23.88,12-34.78,19.61-24.92,17.51-18.61,54-7.74,79.49,4.93,11.58,11.28,22.93,20.77,31.23,17.57,15.38,42.09,17.52,64.07,24.35,24.08,7.47,46,21.11,69.36,31.05C879.24,528.56,937.34,505.53,972.75,459.16Z"/><path class="cls-2" d="M563.7,439.54h-159a2,2,0,0,1-2-2.05V257.83a2,2,0,0,1,2-2h159a2,2,0,0,1,2,2V437.49A2,2,0,0,1,563.7,439.54Z"/><path class="cls-2" d="M385.11,288.84c-5.87-8.5-15.34-15.08-24.91-19.51-14.78-6.85-31.2-10.77-44.11-20.72-21.31-16.42-28.76-45.8-48.76-63.8-13.48-12.13-31.71-18-49.8-19.24-23.46-1.57-47.67,3.28-69.74,11a219.94,219.94,0,0,0-34.95,15.78,203.79,203.79,0,0,0-53,42.43c-11.16,12.61-22.8,26.57-26.75,42.4q-.3,1.23-.54,2.46c-3,15.39,2,30.13,5.39,45.48A77,77,0,0,1,39.54,349c-.75,8.21.21,16.77-.4,25.1-2.08,28.08-5.84,56.88,3.78,84.14,18.72,53.06,71.23,55.26,119.42,54.52,20.94-.32,39.73-7.17,59.2-13.65,20-6.66,41.06-9.54,61.32-15.39,26.09-7.54,52.79-22.16,62.61-47.48,6-15.5,5.6-33.46,6.44-49.85.86-16.82,8.21-28.31,19.11-40.92,10.25-11.86,21.28-25.51,19.92-41.12A32.05,32.05,0,0,0,385.11,288.84Z"/><path class="cls-3" d="M107.73,107.65V73.83H112v33.82Z"/><path class="cls-3" d="M120.06,82.38h3.84v4h.38c1.26-2.79,3.73-4.43,7.59-4.43,5.67,0,8.84,3.35,8.84,9.35v16.36h-4V92.27c0-4.54-1.92-6.7-6-6.7s-6.63,2.69-6.63,7.12v15h-4Z"/><path class="cls-3" d="M153.79,75.84v6.54h5.62v3.38h-5.62v14.29c0,3,1.12,4.25,3.75,4.25a17.13,17.13,0,0,0,1.87-.1v3.4a13.51,13.51,0,0,1-2.37.24c-5.2,0-7.28-1.93-7.28-6.75V85.76h-4.08V82.38h4.08V75.84Z"/><path class="cls-3" d="M185.92,101.11c-1.17,4.31-5.11,7-10.64,7-7,0-11.39-5.06-11.39-13s4.45-13.1,11.39-13.1,11,4.85,11,12.7v1.55H168.08v.18c.21,5,3,8.16,7.29,8.16,3.26,0,5.46-1.19,6.52-3.42Zm-17.84-8.18H182c-.1-4.48-2.77-7.43-6.78-7.43S168.39,88.45,168.08,92.93Z"/><path class="cls-3" d="M192.58,82.38h3.84v3.75h.37c.75-2.46,3.66-4.19,7-4.19a17.57,17.57,0,0,1,2,.11v4a15.39,15.39,0,0,0-2.58-.24c-3.84,0-6.63,2.58-6.63,6.14v15.66h-4Z"/><path class="cls-3" d="M211.33,82.38h3.84v4h.37c1.27-2.79,3.73-4.43,7.6-4.43,5.67,0,8.83,3.35,8.83,9.35v16.36h-4V92.27c0-4.54-1.92-6.7-5.95-6.7s-6.63,2.69-6.63,7.12v15h-4Z"/><path class="cls-3" d="M237.83,100.57c0-4.52,3.33-7.13,9.21-7.48l7.29-.44v-2.3c0-3.12-1.94-4.83-5.71-4.83-3,0-5.14,1.15-5.7,3.14h-4.08c.54-4,4.53-6.72,9.92-6.72,6.16,0,9.61,3.16,9.61,8.41v17.3h-3.85v-3.73h-.37a8.72,8.72,0,0,1-7.78,4.17C241.47,108.09,237.83,105.19,237.83,100.57Zm16.5-2.34V95.91l-6.79.44c-3.85.26-5.53,1.59-5.53,4.13s2.18,4.07,5.11,4.07C251.26,104.55,254.33,101.84,254.33,98.23Z"/><path class="cls-3" d="M266.05,72.35h4v35.3h-4Z"/><path class="cls-3" d="M304.75,73.83c6.4,0,10.83,4.5,10.83,10.94s-4.53,10.81-10.88,10.81h-8.51v12.07H292V73.83Zm-8.56,18h7.46c4.8,0,7.59-2.58,7.59-7.06,0-4.64-2.7-7.19-7.59-7.19h-7.46Z"/><path class="cls-3" d="M322,82.38h3.84v3.75h.38c.75-2.46,3.66-4.19,7-4.19a17.39,17.39,0,0,1,2,.11v4a15.25,15.25,0,0,0-2.57-.24c-3.85,0-6.64,2.58-6.64,6.14v15.66h-4Z"/><path class="cls-3" d="M339.53,74.69a2.81,2.81,0,1,1,2.81,2.82A2.82,2.82,0,0,1,339.53,74.69Zm.8,7.69h4v25.27h-4Z"/><path class="cls-3" d="M363.32,107.65h-4.13l-9.35-25.27h4.31l6.92,20.81h.37l6.92-20.81h4.31Z"/><path class="cls-3" d="M375.62,100.57c0-4.52,3.33-7.13,9.21-7.48l7.29-.44v-2.3c0-3.12-1.94-4.83-5.72-4.83-3,0-5.13,1.15-5.69,3.14h-4.08c.54-4,4.52-6.72,9.91-6.72,6.17,0,9.61,3.16,9.61,8.41v17.3h-3.84v-3.73h-.37a8.74,8.74,0,0,1-7.79,4.17C379.26,108.09,375.62,105.19,375.62,100.57Zm16.5-2.34V95.91l-6.79.44c-3.85.26-5.54,1.59-5.54,4.13s2.18,4.07,5.11,4.07C389.05,104.55,392.12,101.84,392.12,98.23Z"/><path class="cls-3" d="M409.33,75.84v6.54H415v3.38h-5.62v14.29c0,3,1.12,4.25,3.75,4.25a17.13,17.13,0,0,0,1.87-.1v3.4a13.61,13.61,0,0,1-2.37.24c-5.2,0-7.29-1.93-7.29-6.75V85.76h-4.07V82.38h4.07V75.84Z"/><path class="cls-3" d="M441.46,101.11c-1.17,4.31-5.11,7-10.64,7-7,0-11.39-5.06-11.39-13s4.45-13.1,11.39-13.1,11,4.85,11,12.7v1.55H423.62v.18c.21,5,3,8.16,7.29,8.16,3.26,0,5.46-1.19,6.52-3.42Zm-17.84-8.18h13.92c-.09-4.48-2.76-7.43-6.77-7.43S423.93,88.45,423.62,92.93Z"/><path class="cls-3" d="M460.87,90.75c0-10.92,5.71-17.72,14.9-17.72,7.13,0,12.68,4.48,13.69,11h-4.29a9.29,9.29,0,0,0-9.4-7.1c-6.49,0-10.57,5.34-10.57,13.83s4.08,13.8,10.59,13.8c4.72,0,8.3-2.41,9.38-6.32h4.29c-1.13,6.21-6.47,10.21-13.67,10.21C466.61,108.44,460.87,101.65,460.87,90.75Z"/><path class="cls-3" d="M496.26,72.35h4v35.3h-4Z"/><path class="cls-3" d="M506.85,95c0-8.13,4.45-13.07,11.65-13.07S530.15,86.88,530.15,95s-4.46,13.08-11.65,13.08S506.85,103.12,506.85,95ZM526,95c0-6-2.69-9.44-7.47-9.44S511,89,511,95s2.7,9.45,7.48,9.45S526,101,526,95Z"/><path class="cls-3" d="M556.91,107.65h-3.84v-4h-.38c-1.26,2.81-4,4.4-7.82,4.4-5.68,0-8.63-3.37-8.63-9.35V82.38h4V97.76c0,4.54,1.69,6.65,5.72,6.65,4.45,0,6.89-2.65,6.89-7.07v-15h4Z"/><path class="cls-3" d="M563.24,95c0-7.92,4.2-13.07,10.62-13.07a8.63,8.63,0,0,1,7.92,4.43h.35v-14h4v35.3h-3.84v-4h-.38a9,9,0,0,1-8.08,4.47C567.39,108.09,563.24,103,563.24,95Zm4.17,0c0,5.91,2.77,9.45,7.38,9.45s7.43-3.61,7.43-9.45-2.85-9.44-7.43-9.44S567.41,89.13,567.41,95Z"/><path class="cls-3" d="M846.8,107.65V92.25H828.24v15.4H824V73.83h4.22V88.45H846.8V73.83H851v33.82Z"/><path class="cls-3" d="M857.87,95c0-8.13,4.45-13.07,11.64-13.07S881.16,86.88,881.16,95s-4.45,13.08-11.65,13.08S857.87,103.12,857.87,95ZM877,95c0-6-2.69-9.44-7.48-9.44S862,89,862,95s2.69,9.45,7.47,9.45S877,101,877,95Z"/><path class="cls-3" d="M896.33,81.94c5.29,0,9,2.62,9.51,6.77h-4c-.54-2-2.51-3.35-5.56-3.35S891,86.88,891,89.13c0,1.74,1.41,2.81,4.38,3.54l3.89.94c4.76,1.15,7.06,3.21,7.06,6.84,0,4.53-4.39,7.64-10.13,7.64s-9.49-2.69-9.93-6.89h4.14c.68,2.14,2.7,3.49,5.93,3.49,3.4,0,5.84-1.61,5.84-3.93,0-1.74-1.31-2.91-4-3.57l-4.33-1c-4.74-1.15-6.9-3.19-6.9-6.84C886.9,85.1,891,81.94,896.33,81.94Z"/><path class="cls-3" d="M918.1,75.84v6.54h5.63v3.38H918.1v14.29c0,3,1.13,4.25,3.75,4.25a17.17,17.17,0,0,0,1.88-.1v3.4a13.7,13.7,0,0,1-2.37.24c-5.21,0-7.29-1.93-7.29-6.75V85.76H910V82.38h4.08V75.84Z"/><path class="cls-3" d="M950.23,101.11c-1.17,4.31-5.11,7-10.64,7-7,0-11.39-5.06-11.39-13s4.45-13.1,11.39-13.1,11,4.85,11,12.7v1.55H932.4v.18c.21,5,3,8.16,7.29,8.16,3.25,0,5.46-1.19,6.51-3.42ZM932.4,92.93h13.92c-.09-4.48-2.77-7.43-6.77-7.43S932.7,88.45,932.4,92.93Z"/><path class="cls-3" d="M955.62,95c0-7.92,4.2-13.07,10.62-13.07a8.62,8.62,0,0,1,7.92,4.43h.35v-14h4v35.3H974.7v-4h-.37a9.07,9.07,0,0,1-8.09,4.47C959.77,108.09,955.62,103,955.62,95Zm4.18,0c0,5.91,2.76,9.45,7.38,9.45s7.43-3.61,7.43-9.45-2.86-9.44-7.43-9.44S959.8,89.13,959.8,95Z"/><path class="cls-3" d="M1013.21,73.83c6.4,0,10.83,4.5,10.83,10.94s-4.53,10.81-10.88,10.81h-8.51v12.07h-4.21V73.83Zm-8.56,18h7.46c4.8,0,7.59-2.58,7.59-7.06,0-4.64-2.69-7.19-7.59-7.19h-7.46Z"/><path class="cls-3" d="M1030.41,82.38h3.85v3.75h.37c.75-2.46,3.66-4.19,7-4.19a17.26,17.26,0,0,1,2,.11v4a15.25,15.25,0,0,0-2.57-.24c-3.85,0-6.64,2.58-6.64,6.14v15.66h-4Z"/><path class="cls-3" d="M1048,74.69a2.82,2.82,0,1,1,2.81,2.82A2.83,2.83,0,0,1,1048,74.69Zm.8,7.69h4v25.27h-4Z"/><path class="cls-3" d="M1071.78,107.65h-4.13l-9.35-25.27h4.32l6.91,20.81h.37l6.92-20.81h4.31Z"/><path class="cls-3" d="M1084.08,100.57c0-4.52,3.33-7.13,9.22-7.48l7.28-.44v-2.3c0-3.12-1.94-4.83-5.71-4.83-3,0-5.14,1.15-5.7,3.14h-4.08c.54-4,4.53-6.72,9.92-6.72,6.16,0,9.61,3.16,9.61,8.41v17.3h-3.85v-3.73h-.37a8.72,8.72,0,0,1-7.78,4.17C1087.72,108.09,1084.08,105.19,1084.08,100.57Zm16.5-2.34V95.91l-6.79.44c-3.85.26-5.53,1.59-5.53,4.13s2.18,4.07,5.11,4.07C1097.51,104.55,1100.58,101.84,1100.58,98.23Z"/><path class="cls-3" d="M1117.79,75.84v6.54h5.62v3.38h-5.62v14.29c0,3,1.12,4.25,3.75,4.25a17.13,17.13,0,0,0,1.87-.1v3.4a13.49,13.49,0,0,1-2.36.24c-5.21,0-7.29-1.93-7.29-6.75V85.76h-4.08V82.38h4.08V75.84Z"/><path class="cls-3" d="M1149.92,101.11c-1.17,4.31-5.11,7-10.64,7-7,0-11.39-5.06-11.39-13s4.45-13.1,11.39-13.1,11,4.85,11,12.7v1.55h-18.17v.18c.22,5,3,8.16,7.29,8.16,3.26,0,5.46-1.19,6.52-3.42Zm-17.84-8.18H1146c-.1-4.48-2.77-7.43-6.78-7.43S1132.39,88.45,1132.08,92.93Z"/><path class="cls-3" d="M1169.33,90.75c0-10.92,5.72-17.72,14.9-17.72,7.13,0,12.68,4.48,13.69,11h-4.29a9.29,9.29,0,0,0-9.4-7.1c-6.49,0-10.57,5.34-10.57,13.83s4.08,13.8,10.6,13.8c4.71,0,8.29-2.41,9.37-6.32h4.29c-1.12,6.21-6.47,10.21-13.66,10.21C1175.07,108.44,1169.33,101.65,1169.33,90.75Z"/><path class="cls-3" d="M1204.72,72.35h4v35.3h-4Z"/><path class="cls-3" d="M1215.31,95c0-8.13,4.45-13.07,11.65-13.07s11.65,4.94,11.65,13.07-4.46,13.08-11.65,13.08S1215.31,103.12,1215.31,95Zm19.13,0c0-6-2.7-9.44-7.48-9.44s-7.48,3.44-7.48,9.44,2.7,9.45,7.48,9.45S1234.44,101,1234.44,95Z"/><path class="cls-3" d="M1265.37,107.65h-3.84v-4h-.38c-1.26,2.81-4,4.4-7.82,4.4-5.68,0-8.63-3.37-8.63-9.35V82.38h4V97.76c0,4.54,1.69,6.65,5.72,6.65,4.45,0,6.89-2.65,6.89-7.07v-15h4Z"/><path class="cls-3" d="M1271.7,95c0-7.92,4.2-13.07,10.62-13.07a8.63,8.63,0,0,1,7.92,4.43h.35v-14h4v35.3h-3.84v-4h-.38a9,9,0,0,1-8.08,4.47C1275.85,108.09,1271.7,103,1271.7,95Zm4.17,0c0,5.91,2.77,9.45,7.39,9.45s7.43-3.61,7.43-9.45-2.86-9.44-7.43-9.44S1275.87,89.13,1275.87,95Z"/><path class="cls-4" d="M536.83,272.5H431.56a3.7,3.7,0,0,0-3.7,3.7v36a3.7,3.7,0,0,0,3.7,3.7H536.83a3.7,3.7,0,0,0,3.7-3.7v-36A3.7,3.7,0,0,0,536.83,272.5Zm-.53,39.2H432.09v-35H536.3ZM482.93,301V287.43a1.27,1.27,0,1,1,2.53,0V301a1.27,1.27,0,1,1-2.53,0Zm9.45,0V287.43a1.27,1.27,0,0,1,2.54,0V301a1.27,1.27,0,1,1-2.54,0Zm9.45,0V287.43a1.27,1.27,0,0,1,2.54,0V301a1.27,1.27,0,1,1-2.54,0Zm9.45,0V287.43a1.27,1.27,0,1,1,2.54,0V301a1.27,1.27,0,0,1-2.54,0Zm-66.16,0V287.43a1.27,1.27,0,0,1,2.54,0V301a1.27,1.27,0,1,1-2.54,0Zm9.45,0V287.43a1.27,1.27,0,0,1,2.54,0V301a1.27,1.27,0,1,1-2.54,0Zm9.45,0V287.43a1.27,1.27,0,0,1,2.54,0V301a1.27,1.27,0,1,1-2.54,0Zm9.46,0V287.43a1.27,1.27,0,1,1,2.53,0V301a1.27,1.27,0,1,1-2.53,0Zm47.25,0V287.43a1.27,1.27,0,0,1,2.54,0V301a1.27,1.27,0,0,1-2.54,0Z"/><path class="cls-4" d="M536.83,322.67H431.56a3.7,3.7,0,0,0-3.7,3.69v36a3.7,3.7,0,0,0,3.7,3.7H536.83a3.7,3.7,0,0,0,3.7-3.7v-36A3.7,3.7,0,0,0,536.83,322.67Zm-.53,39.19H432.09v-35H536.3Zm-53.37-10.69V337.59a1.27,1.27,0,1,1,2.53,0v13.58a1.27,1.27,0,0,1-2.53,0Zm9.45,0V337.59a1.27,1.27,0,0,1,2.54,0v13.58a1.27,1.27,0,0,1-2.54,0Zm9.45,0V337.59a1.27,1.27,0,0,1,2.54,0v13.58a1.27,1.27,0,0,1-2.54,0Zm9.45,0V337.59a1.27,1.27,0,1,1,2.54,0v13.58a1.27,1.27,0,0,1-2.54,0Zm-66.16,0V337.59a1.27,1.27,0,0,1,2.54,0v13.58a1.27,1.27,0,0,1-2.54,0Zm9.45,0V337.59a1.27,1.27,0,0,1,2.54,0v13.58a1.27,1.27,0,0,1-2.54,0Zm9.45,0V337.59a1.27,1.27,0,1,1,2.54,0v13.58a1.27,1.27,0,0,1-2.54,0Zm9.46,0V337.59a1.27,1.27,0,1,1,2.53,0v13.58a1.27,1.27,0,0,1-2.53,0Zm47.25,0V337.59a1.27,1.27,0,1,1,2.54,0v13.58a1.27,1.27,0,0,1-2.54,0Z"/><path class="cls-4" d="M536.83,372.83H431.56a3.7,3.7,0,0,0-3.7,3.69v36a3.7,3.7,0,0,0,3.7,3.69H536.83a3.7,3.7,0,0,0,3.7-3.69v-36A3.7,3.7,0,0,0,536.83,372.83ZM536.3,412H432.09v-35H536.3Zm-53.37-10.7V387.75a1.27,1.27,0,1,1,2.53,0v13.58a1.27,1.27,0,1,1-2.53,0Zm9.45,0V387.75a1.27,1.27,0,0,1,2.54,0v13.58a1.27,1.27,0,0,1-2.54,0Zm9.45,0V387.75a1.27,1.27,0,1,1,2.54,0v13.58a1.27,1.27,0,1,1-2.54,0Zm9.45,0V387.75a1.27,1.27,0,1,1,2.54,0v13.58a1.27,1.27,0,0,1-2.54,0Zm-66.16,0V387.75a1.27,1.27,0,0,1,2.54,0v13.58a1.27,1.27,0,0,1-2.54,0Zm9.45,0V387.75a1.27,1.27,0,0,1,2.54,0v13.58a1.27,1.27,0,0,1-2.54,0Zm9.45,0V387.75a1.27,1.27,0,1,1,2.54,0v13.58a1.27,1.27,0,1,1-2.54,0Zm9.46,0V387.75a1.27,1.27,0,1,1,2.53,0v13.58a1.27,1.27,0,1,1-2.53,0Zm47.25,0V387.75a1.27,1.27,0,0,1,2.54,0v13.58a1.27,1.27,0,0,1-2.54,0Zm2.8,20.87a2.12,2.12,0,0,1-2.11,2.11H447a2.12,2.12,0,0,1,0-4.23h74.45A2.12,2.12,0,0,1,523.53,422.2Z"/><path class="cls-4" d="M330.87,438.57H49.13a2.5,2.5,0,1,1,0-5H330.87a2.5,2.5,0,0,1,0,5Z"/><polygon class="cls-4" points="219.01 436.07 214.01 436.07 214.01 272.45 196.77 272.45 196.77 242.31 135.14 242.31 135.14 272.45 117.73 272.45 117.73 319.89 71.29 319.89 71.29 434.22 66.29 434.22 66.29 314.89 112.73 314.89 112.73 267.45 130.14 267.45 130.14 237.31 201.77 237.31 201.77 267.45 219.01 267.45 219.01 436.07"/><polygon class="cls-4" points="311.89 436.07 306.89 436.07 306.89 295.52 233.22 295.52 233.22 436.07 228.22 436.07 228.22 290.52 311.89 290.52 311.89 436.07"/><rect class="cls-4" x="132.64" y="267.46" width="66.63" height="5"/><rect class="cls-4" x="112.73" y="317.39" width="5" height="118.68"/><polygon class="cls-4" points="161.26 239.3 165.95 193.43 170.65 239.3 161.26 239.3"/><rect class="cls-4" x="142.03" y="322.29" width="47.16" height="5"/><rect class="cls-4" x="142.03" y="353.26" width="47.16" height="5"/><rect class="cls-4" x="142.03" y="384.24" width="47.16" height="5"/><rect class="cls-4" x="78.88" y="350.29" width="10.56" height="5"/><rect class="cls-4" x="96.3" y="350.05" width="10.56" height="5"/><rect class="cls-4" x="78.88" y="365.5" width="10.56" height="5"/><rect class="cls-4" x="96.3" y="365.5" width="10.56" height="5"/><rect class="cls-4" x="78.88" y="380.94" width="10.56" height="5"/><rect class="cls-4" x="96.3" y="380.94" width="10.56" height="5"/><rect class="cls-4" x="78.88" y="396.38" width="10.56" height="5"/><rect class="cls-4" x="96.3" y="396.38" width="10.56" height="5"/><rect class="cls-4" x="78.88" y="411.83" width="10.56" height="5"/><rect class="cls-4" x="96.3" y="411.83" width="10.56" height="5"/><rect class="cls-4" x="246.64" y="310.71" width="5" height="17.71"/><rect class="cls-4" x="261.06" y="310.71" width="5" height="17.71"/><rect class="cls-4" x="275.47" y="310.71" width="5" height="17.71"/><rect class="cls-4" x="289.89" y="310.71" width="5" height="17.71"/><rect class="cls-4" x="246.64" y="339.61" width="5" height="17.71"/><rect class="cls-4" x="261.06" y="339.61" width="5" height="17.71"/><rect class="cls-4" x="275.47" y="339.61" width="5" height="17.71"/><rect class="cls-4" x="289.89" y="339.61" width="5" height="17.71"/><rect class="cls-4" x="246.64" y="368.52" width="5" height="17.71"/><rect class="cls-4" x="261.06" y="368.52" width="5" height="17.71"/><rect class="cls-4" x="275.47" y="368.52" width="5" height="17.71"/><rect class="cls-4" x="289.89" y="368.52" width="5" height="17.71"/><rect class="cls-4" x="246.64" y="397.42" width="5" height="17.71"/><rect class="cls-4" x="261.06" y="397.42" width="5" height="17.71"/><rect class="cls-4" x="275.47" y="397.42" width="5" height="17.71"/><rect class="cls-4" x="289.89" y="397.42" width="5" height="17.71"/><path class="cls-5" d="M979.93,438.57H698.18a2.5,2.5,0,0,1,0-5H979.93a2.5,2.5,0,0,1,0,5Z"/><polygon class="cls-5" points="868.06 436.07 863.06 436.07 863.06 272.45 845.83 272.45 845.83 242.31 784.2 242.31 784.2 272.45 766.78 272.45 766.78 319.89 720.35 319.89 720.35 434.22 715.35 434.22 715.35 314.89 761.78 314.89 761.78 267.45 779.2 267.45 779.2 237.31 850.83 237.31 850.83 267.45 868.06 267.45 868.06 436.07"/><polygon class="cls-5" points="960.95 436.07 955.95 436.07 955.95 295.52 882.27 295.52 882.27 436.07 877.27 436.07 877.27 290.52 960.95 290.52 960.95 436.07"/><rect class="cls-5" x="781.69" y="267.46" width="66.63" height="5"/><rect class="cls-5" x="761.78" y="317.39" width="5" height="118.68"/><polygon class="cls-5" points="810.32 239.3 815.01 193.43 819.71 239.3 810.32 239.3"/><rect class="cls-5" x="791.09" y="322.29" width="47.16" height="5"/><rect class="cls-5" x="791.09" y="353.26" width="47.16" height="5"/><rect class="cls-5" x="791.09" y="384.24" width="47.16" height="5"/><rect class="cls-5" x="727.93" y="350.29" width="10.56" height="5"/><rect class="cls-5" x="745.35" y="350.05" width="10.56" height="5"/><rect class="cls-5" x="727.93" y="365.5" width="10.56" height="5"/><rect class="cls-5" x="745.35" y="365.5" width="10.56" height="5"/><rect class="cls-5" x="727.93" y="380.94" width="10.56" height="5"/><rect class="cls-5" x="745.35" y="380.94" width="10.56" height="5"/><rect class="cls-5" x="727.93" y="396.38" width="10.56" height="5"/><rect class="cls-5" x="745.35" y="396.38" width="10.56" height="5"/><rect class="cls-5" x="727.93" y="411.83" width="10.56" height="5"/><rect class="cls-5" x="745.35" y="411.83" width="10.56" height="5"/><rect class="cls-5" x="895.7" y="310.71" width="5" height="17.71"/><rect class="cls-5" x="910.11" y="310.71" width="5" height="17.71"/><rect class="cls-5" x="924.53" y="310.71" width="5" height="17.71"/><rect class="cls-5" x="938.95" y="310.71" width="5" height="17.71"/><rect class="cls-5" x="895.7" y="339.61" width="5" height="17.71"/><rect class="cls-5" x="910.11" y="339.61" width="5" height="17.71"/><rect class="cls-5" x="924.53" y="339.61" width="5" height="17.71"/><rect class="cls-5" x="938.95" y="339.61" width="5" height="17.71"/><rect class="cls-5" x="895.7" y="368.52" width="5" height="17.71"/><rect class="cls-5" x="910.11" y="368.52" width="5" height="17.71"/><rect class="cls-5" x="924.53" y="368.52" width="5" height="17.71"/><rect class="cls-5" x="938.95" y="368.52" width="5" height="17.71"/><rect class="cls-5" x="895.7" y="397.42" width="5" height="17.71"/><rect class="cls-5" x="910.11" y="397.42" width="5" height="17.71"/><rect class="cls-5" x="924.53" y="397.42" width="5" height="17.71"/><rect class="cls-5" x="938.95" y="397.42" width="5" height="17.71"/><path class="cls-4" d="M393.77,341.68a2.59,2.59,0,0,1,2.6-2.6h0a2.59,2.59,0,0,1,2.59,2.6h0a2.59,2.59,0,0,1-2.59,2.59h0A2.59,2.59,0,0,1,393.77,341.68Zm-10.26,0a2.6,2.6,0,0,1,2.6-2.6h0a2.59,2.59,0,0,1,2.59,2.6h0a2.59,2.59,0,0,1-2.59,2.59h0A2.6,2.6,0,0,1,383.51,341.68Zm-10.25,0a2.59,2.59,0,0,1,2.59-2.6h0a2.59,2.59,0,0,1,2.59,2.6h0a2.59,2.59,0,0,1-2.59,2.59h0A2.59,2.59,0,0,1,373.26,341.68Zm-10.26,0a2.59,2.59,0,0,1,2.58-2.6h0a2.59,2.59,0,0,1,2.6,2.6h0a2.59,2.59,0,0,1-2.6,2.59h0A2.59,2.59,0,0,1,363,341.68Zm-10.26,0a2.59,2.59,0,0,1,2.59-2.6h0a2.59,2.59,0,0,1,2.59,2.6h0a2.59,2.59,0,0,1-2.59,2.59h0A2.59,2.59,0,0,1,352.74,341.68Zm-10.27,0a2.6,2.6,0,0,1,2.6-2.6h0a2.59,2.59,0,0,1,2.59,2.6h0a2.59,2.59,0,0,1-2.59,2.59h0A2.6,2.6,0,0,1,342.47,341.68Zm-10.26,0a2.6,2.6,0,0,1,2.6-2.6h0a2.59,2.59,0,0,1,2.59,2.6h0a2.59,2.59,0,0,1-2.59,2.59h0A2.6,2.6,0,0,1,332.21,341.68Zm-10.26,0a2.59,2.59,0,0,1,2.6-2.6h0a2.6,2.6,0,0,1,2.6,2.6h0a2.6,2.6,0,0,1-2.6,2.59h0A2.59,2.59,0,0,1,322,341.68Z"/><path class="cls-4" d="M393.77,362.87a2.6,2.6,0,0,1,2.59-2.6h0a2.6,2.6,0,0,1,2.6,2.6h0a2.59,2.59,0,0,1-2.6,2.59h0A2.59,2.59,0,0,1,393.77,362.87Zm-10.26,0a2.61,2.61,0,0,1,2.59-2.6h0a2.6,2.6,0,0,1,2.6,2.6h0a2.59,2.59,0,0,1-2.6,2.59h0A2.6,2.6,0,0,1,383.51,362.87Zm-10.25,0a2.6,2.6,0,0,1,2.58-2.6h0a2.6,2.6,0,0,1,2.6,2.6h0a2.59,2.59,0,0,1-2.6,2.59h0A2.59,2.59,0,0,1,373.26,362.87Zm-10.26,0a2.6,2.6,0,0,1,2.59-2.6h0a2.6,2.6,0,0,1,2.59,2.6h0a2.59,2.59,0,0,1-2.59,2.59h0A2.59,2.59,0,0,1,363,362.87Zm-10.27,0a2.61,2.61,0,0,1,2.6-2.6h0a2.6,2.6,0,0,1,2.59,2.6h0a2.59,2.59,0,0,1-2.59,2.59h0A2.6,2.6,0,0,1,352.73,362.87Zm-10.26,0a2.61,2.61,0,0,1,2.6-2.6h0a2.6,2.6,0,0,1,2.59,2.6h0a2.59,2.59,0,0,1-2.59,2.59h0A2.6,2.6,0,0,1,342.47,362.87Zm-10.26,0a2.61,2.61,0,0,1,2.6-2.6h0a2.6,2.6,0,0,1,2.59,2.6h0a2.59,2.59,0,0,1-2.59,2.59h0A2.6,2.6,0,0,1,332.21,362.87Zm-10.26,0a2.61,2.61,0,0,1,2.6-2.6h0a2.61,2.61,0,0,1,2.6,2.6h0a2.6,2.6,0,0,1-2.6,2.59h0A2.6,2.6,0,0,1,322,362.87Z"/><path class="cls-5" d="M1154.51,287.35l-180,64.79a2.5,2.5,0,0,1-1.68-4.71l180-64.79a2.5,2.5,0,0,1,1.68,4.71Z"/><polygon class="cls-5" points="985.88 354.44 975.05 349.29 980.2 338.46 973.42 340.88 968.28 351.7 979.1 356.85 985.88 354.44"/><polygon class="cls-5" points="1147.13 296.32 1152.28 285.49 1141.44 280.34 1148.22 277.93 1159.05 283.08 1153.91 293.9 1147.13 296.32"/><path class="cls-5" d="M1343.32,190.19H1238.05a3.7,3.7,0,0,0-3.7,3.7v36a3.7,3.7,0,0,0,3.7,3.7h105.27a3.7,3.7,0,0,0,3.7-3.7v-36A3.7,3.7,0,0,0,1343.32,190.19Zm-.53,39.2H1238.58v-35h104.21Zm-53.37-10.7V205.12a1.27,1.27,0,1,1,2.53,0v13.57a1.27,1.27,0,1,1-2.53,0Zm9.45,0V205.12a1.27,1.27,0,0,1,2.54,0v13.57a1.27,1.27,0,0,1-2.54,0Zm9.45,0V205.12a1.27,1.27,0,1,1,2.54,0v13.57a1.27,1.27,0,1,1-2.54,0Zm9.45,0V205.12a1.27,1.27,0,1,1,2.54,0v13.57a1.27,1.27,0,1,1-2.54,0Zm-66.16,0V205.12a1.27,1.27,0,0,1,2.54,0v13.57a1.27,1.27,0,0,1-2.54,0Zm9.45,0V205.12a1.27,1.27,0,1,1,2.54,0v13.57a1.27,1.27,0,1,1-2.54,0Zm9.45,0V205.12a1.27,1.27,0,1,1,2.54,0v13.57a1.27,1.27,0,1,1-2.54,0Zm9.46,0V205.12a1.27,1.27,0,1,1,2.53,0v13.57a1.27,1.27,0,1,1-2.53,0Zm47.25,0V205.12a1.27,1.27,0,1,1,2.54,0v13.57a1.27,1.27,0,1,1-2.54,0Z"/><path class="cls-5" d="M1343.32,240.36H1238.05a3.7,3.7,0,0,0-3.7,3.69v36a3.7,3.7,0,0,0,3.7,3.7h105.27a3.7,3.7,0,0,0,3.7-3.7v-36A3.7,3.7,0,0,0,1343.32,240.36Zm-.53,39.19H1238.58v-35h104.21Zm-53.37-10.69V255.28a1.27,1.27,0,1,1,2.53,0v13.58a1.27,1.27,0,0,1-2.53,0Zm9.45,0V255.28a1.27,1.27,0,0,1,2.54,0v13.58a1.27,1.27,0,0,1-2.54,0Zm9.45,0V255.28a1.27,1.27,0,1,1,2.54,0v13.58a1.27,1.27,0,0,1-2.54,0Zm9.45,0V255.28a1.27,1.27,0,1,1,2.54,0v13.58a1.27,1.27,0,0,1-2.54,0Zm-66.16,0V255.28a1.27,1.27,0,1,1,2.54,0v13.58a1.27,1.27,0,0,1-2.54,0Zm9.45,0V255.28a1.27,1.27,0,1,1,2.54,0v13.58a1.27,1.27,0,0,1-2.54,0Zm9.45,0V255.28a1.27,1.27,0,1,1,2.54,0v13.58a1.27,1.27,0,0,1-2.54,0Zm9.46,0V255.28a1.27,1.27,0,1,1,2.53,0v13.58a1.27,1.27,0,0,1-2.53,0Zm47.25,0V255.28a1.27,1.27,0,1,1,2.54,0v13.58a1.27,1.27,0,0,1-2.54,0Z"/><path class="cls-5" d="M1343.32,290.52H1238.05a3.7,3.7,0,0,0-3.7,3.69v36a3.7,3.7,0,0,0,3.7,3.69h105.27a3.7,3.7,0,0,0,3.7-3.69v-36A3.7,3.7,0,0,0,1343.32,290.52Zm-.53,39.19H1238.58v-35h104.21ZM1289.42,319V305.44a1.27,1.27,0,1,1,2.53,0V319a1.27,1.27,0,1,1-2.53,0Zm9.45,0V305.44a1.27,1.27,0,0,1,2.54,0V319a1.27,1.27,0,0,1-2.54,0Zm9.45,0V305.44a1.27,1.27,0,0,1,2.54,0V319a1.27,1.27,0,0,1-2.54,0Zm9.45,0V305.44a1.27,1.27,0,0,1,2.54,0V319a1.27,1.27,0,1,1-2.54,0Zm-66.16,0V305.44a1.27,1.27,0,0,1,2.54,0V319a1.27,1.27,0,0,1-2.54,0Zm9.45,0V305.44a1.27,1.27,0,0,1,2.54,0V319a1.27,1.27,0,1,1-2.54,0Zm9.45,0V305.44a1.27,1.27,0,0,1,2.54,0V319a1.27,1.27,0,0,1-2.54,0Zm9.46,0V305.44a1.27,1.27,0,1,1,2.53,0V319a1.27,1.27,0,1,1-2.53,0Zm47.25,0V305.44a1.27,1.27,0,0,1,2.54,0V319a1.27,1.27,0,1,1-2.54,0Zm2.8,20.87a2.12,2.12,0,0,1-2.11,2.11h-74.45a2.12,2.12,0,0,1,0-4.23h74.45A2.12,2.12,0,0,1,1330,339.89Z"/></svg>