<svg id="Layer_1" data-name="Layer 1" xmlns="http://www.w3.org/2000/svg" viewBox="0 0 1480 766.3"><defs><style>.cls-1{fill:#36393a;}.cls-2,.cls-5,.cls-6{fill:#2c7cb0;}.cls-3{fill:#404242;}.cls-4{fill:none;stroke:#404242;}.cls-4,.cls-5,.cls-6{stroke-miterlimit:10;}.cls-4,.cls-5{stroke-width:5px;}.cls-5,.cls-6{stroke:#2c7cb0;}.cls-7{fill:#fff;}</style></defs><title>MRK-9612_LC-What Is SaaS</title><path class="cls-1" d="M936.26,103.06c.52,3.54,3.89,5.79,8.7,5.79,4.54,0,7.9-2.47,7.9-5.82,0-2.88-2.11-4.71-6.78-5.88L941.75,96c-6.12-1.54-8.77-4.31-8.77-9.11,0-5.74,4.81-9.64,11.95-9.64,6.54,0,11.42,3.9,11.77,9.36h-4.24c-.59-3.47-3.45-5.53-7.67-5.53-4.5,0-7.47,2.25-7.47,5.67,0,2.65,1.85,4.17,6.51,5.36l3.54.94c7,1.76,9.82,4.48,9.82,9.45,0,6.21-4.9,10.17-12.63,10.17-7.17,0-12.12-3.8-12.56-9.63Z"/><path class="cls-1" d="M962.18,104.81c0-4.52,3.33-7.12,9.22-7.47l7.28-.45V94.6c0-3.12-1.94-4.83-5.71-4.83-3,0-5.14,1.15-5.7,3.14h-4.08c.54-4.06,4.53-6.73,9.92-6.73,6.16,0,9.61,3.17,9.61,8.42v17.29h-3.85v-3.72h-.37a8.74,8.74,0,0,1-7.78,4.17C965.82,112.34,962.18,109.43,962.18,104.81Zm16.5-2.34v-2.32l-6.79.45c-3.85.25-5.53,1.59-5.53,4.12s2.18,4.08,5.11,4.08C975.61,108.8,978.68,106.08,978.68,102.47Z"/><path class="cls-1" d="M988.67,104.81c0-4.52,3.33-7.12,9.21-7.47l7.29-.45V94.6c0-3.12-1.95-4.83-5.72-4.83-3,0-5.13,1.15-5.7,3.14h-4.07c.54-4.06,4.52-6.73,9.91-6.73,6.16,0,9.61,3.17,9.61,8.42v17.29h-3.84v-3.72H1005a8.74,8.74,0,0,1-7.78,4.17C992.3,112.34,988.67,109.43,988.67,104.81Zm16.5-2.34v-2.32l-6.8.45c-3.84.25-5.53,1.59-5.53,4.12S995,108.8,998,108.8C1002.1,108.8,1005.17,106.08,1005.17,102.47Z"/><path class="cls-1" d="M1019.82,103.06c.51,3.54,3.89,5.79,8.69,5.79,4.55,0,7.9-2.47,7.9-5.82,0-2.88-2.11-4.71-6.77-5.88L1025.3,96c-6.12-1.54-8.76-4.31-8.76-9.11,0-5.74,4.8-9.64,12-9.64,6.54,0,11.41,3.9,11.76,9.36H1036c-.58-3.47-3.44-5.53-7.66-5.53-4.5,0-7.48,2.25-7.48,5.67,0,2.65,1.85,4.17,6.52,5.36l3.54.94c7,1.76,9.82,4.48,9.82,9.45,0,6.21-4.9,10.17-12.64,10.17-7.17,0-12.11-3.8-12.56-9.63Z"/><path class="cls-1" d="M1079.89,102.21h-13.46l-3.39,9.68h-4.43l12.46-33.82h4.18l12.47,33.82h-4.43Zm-12.21-3.58h11l-5.3-15.1H1073Z"/><path class="cls-1" d="M1116.05,99.26c0,7.9-4.19,13.08-10.62,13.08-3.61,0-6.51-1.57-7.89-4.24h-.38v12.23h-4V86.63H1097v4.22h.38a9.11,9.11,0,0,1,8.08-4.67C1111.88,86.18,1116.05,91.31,1116.05,99.26Zm-4.17,0c0-5.91-2.77-9.45-7.38-9.45s-7.46,3.64-7.46,9.45,2.89,9.44,7.43,9.44S1111.88,105.17,1111.88,99.26Z"/><path class="cls-1" d="M1145.3,99.26c0,7.9-4.19,13.08-10.62,13.08-3.61,0-6.51-1.57-7.89-4.24h-.38v12.23h-4V86.63h3.84v4.22h.38a9.11,9.11,0,0,1,8.08-4.67C1141.13,86.18,1145.3,91.31,1145.3,99.26Zm-4.17,0c0-5.91-2.77-9.45-7.38-9.45s-7.46,3.64-7.46,9.45,2.89,9.44,7.43,9.44S1141.13,105.17,1141.13,99.26Z"/><path class="cls-1" d="M1151.86,76.6h4v35.29h-4Z"/><path class="cls-1" d="M1163,78.94a2.82,2.82,0,1,1,2.81,2.81A2.82,2.82,0,0,1,1163,78.94Zm.8,7.69h4v25.26h-4Z"/><path class="cls-1" d="M1192.36,94.36c-.65-2.51-2.88-4.55-6.51-4.55-4.55,0-7.41,3.64-7.41,9.36s2.91,9.53,7.41,9.53c3.4,0,5.76-1.57,6.51-4.43h4.08c-.72,4.65-4.5,8.07-10.57,8.07-7.08,0-11.6-5.14-11.6-13.17,0-7.88,4.5-13,11.58-13,6.14,0,9.89,3.68,10.59,8.18Z"/><path class="cls-1" d="M1200.9,104.81c0-4.52,3.32-7.12,9.21-7.47l7.29-.45V94.6c0-3.12-2-4.83-5.72-4.83-3,0-5.14,1.15-5.7,3.14h-4.08c.54-4.06,4.53-6.73,9.92-6.73,6.16,0,9.61,3.17,9.61,8.42v17.29h-3.85v-3.72h-.37a8.74,8.74,0,0,1-7.78,4.17C1204.53,112.34,1200.9,109.43,1200.9,104.81Zm16.5-2.34v-2.32l-6.8.45c-3.85.25-5.53,1.59-5.53,4.12s2.18,4.08,5.11,4.08C1214.32,108.8,1217.4,106.08,1217.4,102.47Z"/><path class="cls-1" d="M1234.6,80.09v6.54h5.62V90h-5.62v14.3c0,3,1.12,4.24,3.75,4.24a17.07,17.07,0,0,0,1.87-.09v3.4a13.48,13.48,0,0,1-2.36.23c-5.21,0-7.29-1.92-7.29-6.75V90h-4.08V86.63h4.08V80.09Z"/><path class="cls-1" d="M1245.61,78.94a2.82,2.82,0,1,1,2.82,2.81A2.82,2.82,0,0,1,1245.61,78.94Zm.8,7.69h4v25.26h-4Z"/><path class="cls-1" d="M1256.86,99.26c0-8.13,4.46-13.08,11.65-13.08s11.65,4.95,11.65,13.08-4.45,13.08-11.65,13.08S1256.86,107.37,1256.86,99.26Zm19.13,0c0-6-2.7-9.45-7.48-9.45s-7.47,3.45-7.47,9.45,2.69,9.44,7.47,9.44S1276,105.24,1276,99.26Z"/><path class="cls-1" d="M1286.49,86.63h3.84v4h.38c1.26-2.79,3.72-4.43,7.59-4.43,5.67,0,8.84,3.35,8.84,9.35v16.36h-4V96.52c0-4.55-1.93-6.71-6-6.71s-6.63,2.7-6.63,7.13v15h-4Z"/><path class="cls-1" d="M964.84,644.15h-8.29L954.61,650h-4.08l8-22.55h4.53l8,22.55h-4.33ZM957.48,641h6.43l-3.07-9.37h-.26Z"/><path class="cls-1" d="M990.91,641.45c0,5.42-2.69,8.81-7,8.81a5.45,5.45,0,0,1-5.22-2.87h-.27v8.26h-3.87V632.9h3.73v2.83h.27a5.79,5.79,0,0,1,5.31-3.11C988.19,632.62,990.91,636,990.91,641.45Zm-4,0c0-3.5-1.61-5.59-4.26-5.59s-4.3,2.14-4.32,5.59S980,647,982.64,647,986.92,645,986.92,641.45Z"/><path class="cls-1" d="M1011.16,641.45c0,5.42-2.69,8.81-7,8.81a5.45,5.45,0,0,1-5.22-2.87h-.27v8.26H994.8V632.9h3.73v2.83h.27a5.79,5.79,0,0,1,5.31-3.11C1008.44,632.62,1011.16,636,1011.16,641.45Zm-4,0c0-3.5-1.61-5.59-4.26-5.59s-4.3,2.14-4.32,5.59,1.66,5.59,4.3,5.59S1007.17,645,1007.17,641.45Z"/><path class="cls-1" d="M1015.2,626.29h3.88V650h-3.88Z"/><path class="cls-1" d="M1023.63,627.75a2.32,2.32,0,1,1,2.31,2.29A2.31,2.31,0,0,1,1023.63,627.75Zm.39,5.15h3.86V650H1024Z"/><path class="cls-1" d="M1043.75,638.61a3.56,3.56,0,0,0-3.77-2.86c-2.65,0-4.23,2.09-4.23,5.65s1.59,5.74,4.23,5.74a3.48,3.48,0,0,0,3.77-2.75h3.69c-.42,3.53-3.11,5.94-7.44,5.94-5.14,0-8.17-3.33-8.17-8.93s3-8.82,8.15-8.82c4.4,0,7,2.5,7.46,6Z"/><path class="cls-1" d="M1050.19,645.14c0-3.06,2.33-4.86,6.48-5.1l4.41-.26v-1.47c0-1.7-1.13-2.66-3.22-2.66-1.78,0-3,.64-3.36,1.82h-3.66c.32-3,3.14-4.89,7.21-4.89,4.39,0,6.86,2.12,6.86,5.73V650h-3.74v-2.34h-.26a5.66,5.66,0,0,1-5.07,2.62C1052.55,650.26,1050.19,648.26,1050.19,645.14Zm10.89-1.42v-1.39l-3.86.26c-2.17.14-3.19.94-3.19,2.36s1.24,2.33,3,2.33C1059.33,647.28,1061.08,645.75,1061.08,643.72Z"/><path class="cls-1" d="M1074.66,628.72V633h3.65v3h-3.65v8.5c0,1.7.72,2.47,2.34,2.47a10.47,10.47,0,0,0,1.31-.08v3a11,11,0,0,1-2,.17c-3.92,0-5.48-1.31-5.48-4.61V636h-2.71v-3h2.71v-4.29Z"/><path class="cls-1" d="M1081.84,627.75a2.32,2.32,0,1,1,2.32,2.29A2.32,2.32,0,0,1,1081.84,627.75Zm.39,5.15h3.86V650h-3.86Z"/><path class="cls-1" d="M1090.05,641.43c0-5.5,3.14-8.85,8.22-8.85s8.21,3.34,8.21,8.85-3.1,8.9-8.21,8.9S1090.05,647,1090.05,641.43Zm12.45,0c0-3.61-1.55-5.7-4.23-5.7s-4.25,2.09-4.25,5.7,1.54,5.7,4.25,5.7S1102.5,645.06,1102.5,641.45Z"/><path class="cls-1" d="M1110.39,632.9h3.74v2.74h.26a5.09,5.09,0,0,1,5.08-3.06c3.81,0,5.89,2.29,5.89,6.35V650h-3.88V639.84c0-2.66-1.09-4-3.45-4s-3.76,1.61-3.76,4.17v10h-3.88Z"/><path class="cls-1" d="M1138.64,626.29h3.88V650h-3.88Z"/><path class="cls-1" d="M1146.56,641.43c0-5.5,3.14-8.85,8.22-8.85s8.22,3.34,8.22,8.85-3.11,8.9-8.22,8.9S1146.56,647,1146.56,641.43Zm12.46,0c0-3.61-1.55-5.7-4.24-5.7s-4.25,2.09-4.25,5.7,1.55,5.7,4.25,5.7S1159,645.06,1159,641.45Z"/><path class="cls-1" d="M1166.67,651.62h3.89c.25,1.21,1.63,2,3.75,2,2.66,0,4.21-1.28,4.21-3.45v-3.25h-.27a5.57,5.57,0,0,1-5.22,2.84c-4.31,0-7-3.34-7-8.47s2.7-8.64,7.06-8.64a5.81,5.81,0,0,1,5.3,3h.27V632.9h3.73v17.18c0,3.92-3.16,6.4-8.14,6.4C1169.86,656.48,1167,654.56,1166.67,651.62Zm11.91-10.36c0-3.31-1.64-5.4-4.33-5.4S1170,638,1170,641.25s1.53,5.4,4.23,5.4S1178.58,644.56,1178.58,641.26Z"/><path class="cls-1" d="M1186.8,627.75a2.32,2.32,0,1,1,2.31,2.29A2.31,2.31,0,0,1,1186.8,627.75Zm.39,5.15h3.86V650h-3.86Z"/><path class="cls-1" d="M1206.92,638.61a3.56,3.56,0,0,0-3.76-2.86c-2.66,0-4.24,2.09-4.24,5.65s1.6,5.74,4.24,5.74a3.47,3.47,0,0,0,3.76-2.75h3.69c-.42,3.53-3.11,5.94-7.44,5.94-5.14,0-8.17-3.33-8.17-8.93s3-8.82,8.16-8.82c4.39,0,7,2.5,7.45,6Z"/><path class="cls-1" d="M1222.84,632.9h3.74v2.66h.26a4.53,4.53,0,0,1,4.52-2.94,7.28,7.28,0,0,1,1.61.16v3.53a8.85,8.85,0,0,0-2-.22c-2.51,0-4.26,1.56-4.26,4V650h-3.88Z"/><path class="cls-1" d="M1251,650h-3.74v-2.72H1247c-.83,2-2.5,3.07-5.11,3.07-3.74,0-5.93-2.33-5.93-6.33V632.9h3.88v10.16c0,2.66,1.08,3.94,3.39,3.94,2.52,0,3.89-1.57,3.89-4.14v-10H1251Z"/><path class="cls-1" d="M1255.77,632.9h3.73v2.74h.27a5.08,5.08,0,0,1,5.07-3.06c3.82,0,5.89,2.29,5.89,6.35V650h-3.87V639.84c0-2.66-1.09-4-3.45-4s-3.77,1.61-3.77,4.17v10h-3.87Z"/><path class="cls-1" d="M1281.78,632.58c4.06,0,6.61,1.78,6.89,4.85H1285c-.28-1.2-1.42-2-3.23-2s-3.1.86-3.1,2.13c0,1,.82,1.57,2.53,2l3,.67c3.27.75,4.78,2.14,4.78,4.66,0,3.26-3,5.44-7.28,5.44s-7-1.85-7.25-4.93h3.83c.37,1.27,1.58,2.05,3.51,2.05s3.32-.89,3.32-2.19c0-1-.74-1.59-2.36-2l-3-.7c-3.29-.75-4.83-2.25-4.83-4.81C1274.94,634.72,1277.75,632.58,1281.78,632.58Z"/><path class="cls-1" d="M1030.2,669.75a2.32,2.32,0,1,1,2.32,2.29A2.32,2.32,0,0,1,1030.2,669.75Zm.39,5.15h3.86V692h-3.86Z"/><path class="cls-1" d="M1039.25,674.9H1043v2.74h.27a5.09,5.09,0,0,1,5.08-3.06c3.81,0,5.89,2.29,5.89,6.35V692h-3.88V681.84c0-2.66-1.09-4-3.45-4s-3.76,1.61-3.76,4.17v10h-3.88Z"/><path class="cls-1" d="M1072.44,670.72V675h3.65v3h-3.65v8.5c0,1.7.72,2.47,2.34,2.47a10.35,10.35,0,0,0,1.31-.08v3a11,11,0,0,1-2,.17c-3.92,0-5.48-1.31-5.48-4.61V678h-2.7v-3h2.7v-4.29Z"/><path class="cls-1" d="M1080.13,668.29h3.81v9.38h.28a5.24,5.24,0,0,1,5.19-3.08c3.65,0,5.87,2.31,5.87,6.38v11h-3.87V681.87c0-2.64-1.19-4-3.44-4-2.55,0-4,1.67-4,4.17V692h-3.87Z"/><path class="cls-1" d="M1114.69,687.31c-.71,3.08-3.56,5-7.6,5-5,0-8.06-3.35-8.06-8.82s3.08-8.93,8-8.93,7.8,3.23,7.8,8.59v1.23h-11.94v.21c.1,2.89,1.74,4.7,4.28,4.7,1.93,0,3.25-.72,3.82-2Zm-11.75-5.48h8c-.07-2.6-1.6-4.24-3.93-4.24S1103.11,679.26,1102.94,681.83Z"/><path class="cls-1" d="M1138.36,680.61a3.56,3.56,0,0,0-3.77-2.86c-2.65,0-4.23,2.09-4.23,5.65s1.59,5.74,4.23,5.74a3.48,3.48,0,0,0,3.77-2.75h3.69c-.42,3.53-3.11,5.94-7.44,5.94-5.14,0-8.17-3.33-8.17-8.93s3-8.82,8.15-8.82c4.39,0,7.05,2.5,7.46,6Z"/><path class="cls-1" d="M1145.91,668.29h3.87V692h-3.87Z"/><path class="cls-1" d="M1153.83,683.43c0-5.5,3.14-8.85,8.22-8.85s8.22,3.34,8.22,8.85-3.11,8.9-8.22,8.9S1153.83,689,1153.83,683.43Zm12.45,0c0-3.61-1.55-5.7-4.23-5.7s-4.25,2.09-4.25,5.7,1.54,5.7,4.25,5.7S1166.28,687.06,1166.28,683.45Z"/><path class="cls-1" d="M1189.05,692h-3.74v-2.72h-.26c-.83,2-2.5,3.07-5.11,3.07-3.74,0-5.92-2.33-5.92-6.33V674.9h3.87v10.16c0,2.66,1.08,3.94,3.39,3.94,2.52,0,3.89-1.57,3.89-4.14v-10h3.88Z"/><path class="cls-1" d="M1193,683.43c0-5.4,2.72-8.81,7-8.81a5.54,5.54,0,0,1,5.19,3h.27v-9.33h3.87V692h-3.75v-2.7h-.26a5.77,5.77,0,0,1-5.32,3C1195.66,692.26,1193,688.86,1193,683.43Zm4,0c0,3.5,1.61,5.59,4.27,5.59s4.29-2.12,4.29-5.59-1.64-5.59-4.29-5.59S1196.92,680,1196.92,683.45Z"/><path class="cls-2" d="M1386.11,246.83h0a24.36,24.36,0,0,0-2.52-5.94l-3.23,1.9a20.23,20.23,0,0,0-3.36-4.3l2.63-2.68a25.21,25.21,0,0,0-5.15-3.88l-1.84,3.26a21,21,0,0,0-5.07-2l.94-3.64a24.83,24.83,0,0,0-6.4-.78l0,3.74a21.21,21.21,0,0,0-5.42.76l-1-3.61h0a24.68,24.68,0,0,0-5.93,2.52l1.9,3.23a20.54,20.54,0,0,0-4.31,3.36l-2.67-2.63a24.85,24.85,0,0,0-3.88,5.15l3.26,1.85a20.83,20.83,0,0,0-2,5.06l-3.63-.94a24.38,24.38,0,0,0-.79,6.39l3.75,0a20.71,20.71,0,0,0,.76,5.41h0l-3.61,1a24.49,24.49,0,0,0,2.51,5.93l3.23-1.9a20.92,20.92,0,0,0,3.37,4.31L1345,271a24.79,24.79,0,0,0,5.14,3.88l1.85-3.26a20.74,20.74,0,0,0,5.07,2.05l-1,3.63a24.46,24.46,0,0,0,6.4.79l0-3.75a20.65,20.65,0,0,0,5.41-.76h0l1,3.61a24.56,24.56,0,0,0,5.94-2.51l-1.9-3.23a20.92,20.92,0,0,0,4.31-3.37l2.67,2.63a24.49,24.49,0,0,0,3.87-5.14l-3.25-1.85a20.71,20.71,0,0,0,2-5.07l3.64.95a24.88,24.88,0,0,0,.78-6.4l-3.74,0a21.21,21.21,0,0,0-.76-5.42Zm-10,6.47a14.09,14.09,0,0,1-1.79,6.91,14.07,14.07,0,0,1-2.17,2.87,14.37,14.37,0,0,1-2.84,2.22,13.56,13.56,0,0,1-3.31,1.4h0a13.84,13.84,0,0,1-15.57-6.29,14.21,14.21,0,0,1-1.4-3.32h0A13.76,13.76,0,0,1,1349,250a14.09,14.09,0,0,1,1.35-3.34,13.46,13.46,0,0,1,2.17-2.87,13.67,13.67,0,0,1,2.83-2.22,13.83,13.83,0,0,1,3.32-1.41h0a13.71,13.71,0,0,1,3.56-.5,13.29,13.29,0,0,1,3.57.45,13.65,13.65,0,0,1,3.34,1.34,14.5,14.5,0,0,1,2.88,2.17,14,14,0,0,1,2.21,2.84,13.66,13.66,0,0,1,1.41,3.32h0A13.65,13.65,0,0,1,1376.11,253.3Zm38.41,7.95h0a16.24,16.24,0,0,0-2.54-3.43l-1.79,1.72a13.87,13.87,0,0,0-2.83-2.25l1.28-2.13a16.59,16.59,0,0,0-3.92-1.69l-.68,2.38a14,14,0,0,0-3.58-.53l0-2.48a16.1,16.1,0,0,0-4.24.48l.61,2.41a13.21,13.21,0,0,0-3.37,1.33l-1.21-2.17h0a16.43,16.43,0,0,0-3.42,2.54l1.72,1.78a13.59,13.59,0,0,0-2.25,2.84l-2.13-1.28a16.55,16.55,0,0,0-1.7,3.91l2.39.68a14.42,14.42,0,0,0-.54,3.58l-2.48,0a16.49,16.49,0,0,0,.49,4.24l2.41-.6a13.71,13.71,0,0,0,1.32,3.37h0l-2.16,1.2a16.45,16.45,0,0,0,2.53,3.43l1.79-1.73a13.22,13.22,0,0,0,2.83,2.25l-1.27,2.13a16,16,0,0,0,3.91,1.7l.68-2.39a13.55,13.55,0,0,0,3.58.54l0,2.48a16.1,16.1,0,0,0,4.24-.48l-.6-2.41a14.08,14.08,0,0,0,3.36-1.33h0l1.2,2.17a16.3,16.3,0,0,0,3.44-2.54l-1.73-1.79a13.53,13.53,0,0,0,2.25-2.83l2.13,1.28a16.32,16.32,0,0,0,1.7-3.91l-2.39-.69a13.48,13.48,0,0,0,.53-3.58l2.49,0a16.49,16.49,0,0,0-.49-4.24l-2.4.6a14.15,14.15,0,0,0-1.33-3.37Zm-5.44,5.72a8.65,8.65,0,0,1,.27,2.36,9,9,0,0,1-.35,2.36,8.64,8.64,0,0,1-1,2.18,9,9,0,0,1-3.4,3.29h0a8.87,8.87,0,0,1-2.21.88,9.12,9.12,0,0,1-2.37.26,9,9,0,0,1-2.36-.34,9.49,9.49,0,0,1-4-2.43,9.74,9.74,0,0,1-1.42-1.92h0a9.47,9.47,0,0,1-.87-2.22,8.67,8.67,0,0,1-.27-2.37,8.85,8.85,0,0,1,.35-2.35,9.25,9.25,0,0,1,1-2.19,9.12,9.12,0,0,1,3.39-3.29h0a9.47,9.47,0,0,1,2.22-.87,9.13,9.13,0,0,1,2.37-.27,9.42,9.42,0,0,1,2.36.35,9.24,9.24,0,0,1,4,2.43,9.46,9.46,0,0,1,1.42,1.92h0A8.9,8.9,0,0,1,1409.08,267Z"/><path class="cls-2" d="M1285.77,275.32a1.83,1.83,0,1,1-1.83-1.82A1.82,1.82,0,0,1,1285.77,275.32Zm-1.83-15.5a1.82,1.82,0,1,0,1.83,1.82A1.82,1.82,0,0,0,1283.94,259.82Zm43.78-26.71v42.44a7.09,7.09,0,0,1-2.6,5.16,19.15,19.15,0,0,1-6,3.47,60.13,60.13,0,0,1-37.45,0,19.26,19.26,0,0,1-6-3.47,7.11,7.11,0,0,1-2.59-5.16V233.11a7.11,7.11,0,0,1,2.59-5.16,19.26,19.26,0,0,1,6-3.47,60.51,60.51,0,0,1,37.45,0,19.15,19.15,0,0,1,6,3.47A7.09,7.09,0,0,1,1327.72,233.11Zm-51-.05a4.38,4.38,0,0,0,1.79,2.45,18.11,18.11,0,0,0,5,2.62,57.51,57.51,0,0,0,33.74,0,18,18,0,0,0,5-2.62,4.41,4.41,0,0,0,1.8-2.45V233a3.46,3.46,0,0,0-1.37-2.34,16,16,0,0,0-4.9-2.76,56.68,56.68,0,0,0-34.82,0,16.07,16.07,0,0,0-4.91,2.76,3.44,3.44,0,0,0-1.36,2.34ZM1324.07,267a22.18,22.18,0,0,1-5.53,2.82,60.63,60.63,0,0,1-36.36,0,21.84,21.84,0,0,1-5.53-2.82v8.58A3.45,3.45,0,0,0,1278,278a16.09,16.09,0,0,0,4.91,2.73,56.1,56.1,0,0,0,34.82,0,16,16,0,0,0,4.9-2.73,3.47,3.47,0,0,0,1.4-2.48Zm0-13.68a21.85,21.85,0,0,1-5.53,2.82,60.63,60.63,0,0,1-36.36,0,21.52,21.52,0,0,1-5.53-2.82v7.81l0,.17a4.21,4.21,0,0,0,1.73,2.45,17.71,17.71,0,0,0,5,2.65,57.21,57.21,0,0,0,33.91,0,17.57,17.57,0,0,0,5-2.65,4.19,4.19,0,0,0,1.74-2.45l0-.14Zm0-14.62a22.07,22.07,0,0,1-5.62,2.88,60.7,60.7,0,0,1-36.19,0,22,22,0,0,1-5.61-2.88v8.75l0,.17a4.21,4.21,0,0,0,1.73,2.45,17.71,17.71,0,0,0,5,2.65,57.21,57.21,0,0,0,33.91,0,17.57,17.57,0,0,0,5-2.65,4.19,4.19,0,0,0,1.74-2.45l0-.14Zm-40.13,6.55a1.83,1.83,0,1,0,1.83,1.83A1.83,1.83,0,0,0,1283.94,245.22Z"/><path class="cls-3" d="M1073.38,554.9a88.93,88.93,0,0,0-86.31-67.56H898a88.93,88.93,0,0,0-86.32,67.56Z"/><circle class="cls-3" cx="942.51" cy="397.84" r="66.49" transform="translate(453.73 1296.55) rotate(-84.35)"/><path class="cls-3" d="M1140.29,291H994.07a7.17,7.17,0,0,0-7.07,7.08V414.26a7.17,7.17,0,0,0,7.07,7.08h146.22a7.17,7.17,0,0,0,7.08-7.08V298.12A7.17,7.17,0,0,0,1140.29,291Zm-.16,123-145.87.18-.14-87.45h146Zm-93-102.65a5,5,0,1,1-5-5.05A5,5,0,0,1,1047.1,311.43Zm-14.92,0a5,5,0,1,1-5-5.05A5,5,0,0,1,1032.18,311.43Zm-14.92,0a5,5,0,1,1-5-5.05A5,5,0,0,1,1017.26,311.43Zm-.57,71.85a2.17,2.17,0,0,1,2.18-2.18h39.94a2.18,2.18,0,0,1,0,4.35h-39.94A2.17,2.17,0,0,1,1016.69,383.28Zm0-35.58a2.17,2.17,0,0,1,2.18-2.18h65.19a2.18,2.18,0,0,1,0,4.36h-65.19A2.18,2.18,0,0,1,1016.69,347.7Zm0,17.67a2.18,2.18,0,0,1,2.18-2.18h65.19a2.18,2.18,0,0,1,0,4.36h-65.19A2.18,2.18,0,0,1,1016.69,365.37Z"/><path class="cls-3" d="M1181.72,407.12V270.22a10.82,10.82,0,0,0-10.81-10.81H964.59a10.82,10.82,0,0,0-10.81,10.81v136.9H939.34c1.28,9.77,8.06,17.3,16.19,17.3h223.31c8.13,0,14.91-7.53,16.19-17.3ZM966.13,271.77h203.24V407.12H966.13Z"/><path class="cls-4" d="M1399.49,230.67a53.47,53.47,0,0,0-103.18-17.21,32.85,32.85,0,0,0-42,38.08,22.48,22.48,0,0,0,4.28,44.55h137a32.83,32.83,0,0,0,3.94-65.42Z"/><line class="cls-5" x1="1213.74" y1="371.8" x2="1293.85" y2="315.97"/><polygon class="cls-6" points="1226.76 373.06 1214.95 370.96 1217.06 359.15 1211.16 363.27 1209.05 375.07 1220.85 377.18 1226.76 373.06"/><line class="cls-5" x1="1230.6" y1="389.02" x2="1329.99" y2="319.75"/><polygon class="cls-6" points="1326.66 332.4 1328.78 320.59 1316.97 318.49 1322.87 314.37 1334.67 316.48 1332.57 328.28 1326.66 332.4"/><path class="cls-1" d="M110.13,111.89V78.07h4.1l18.36,26.32H133V78.07h4.17v33.82H133L114.68,85.67h-.38v26.22Z"/><path class="cls-1" d="M144,99.26c0-8.13,4.45-13.08,11.64-13.08s11.65,4.95,11.65,13.08-4.45,13.08-11.65,13.08S144,107.37,144,99.26Zm19.12,0c0-6-2.69-9.45-7.48-9.45s-7.47,3.45-7.47,9.45,2.69,9.44,7.47,9.44S163.1,105.24,163.1,99.26Z"/><path class="cls-1" d="M173.6,86.63h3.85v4h.37c1.27-2.79,3.73-4.43,7.59-4.43,5.68,0,8.84,3.35,8.84,9.35v16.36h-4V96.52c0-4.55-1.92-6.71-5.95-6.71s-6.64,2.7-6.64,7.13v15h-4Z"/><path class="cls-1" d="M201.45,100.2V96.38h15.37v3.82Z"/><path class="cls-1" d="M227.41,103.06c.52,3.54,3.89,5.79,8.7,5.79,4.55,0,7.9-2.47,7.9-5.82,0-2.88-2.11-4.71-6.78-5.88L232.9,96c-6.12-1.54-8.77-4.31-8.77-9.11,0-5.74,4.81-9.64,12-9.64,6.53,0,11.41,3.9,11.76,9.36h-4.24c-.59-3.47-3.45-5.53-7.66-5.53-4.5,0-7.48,2.25-7.48,5.67,0,2.65,1.85,4.17,6.51,5.36l3.54.94c7,1.76,9.82,4.48,9.82,9.45,0,6.21-4.89,10.17-12.63,10.17-7.17,0-12.12-3.8-12.56-9.63Z"/><path class="cls-1" d="M253.34,104.81c0-4.52,3.32-7.12,9.21-7.47l7.29-.45V94.6c0-3.12-1.95-4.83-5.72-4.83-3,0-5.14,1.15-5.7,3.14h-4.08c.54-4.06,4.53-6.73,9.92-6.73,6.16,0,9.61,3.17,9.61,8.42v17.29H270v-3.72h-.37a8.74,8.74,0,0,1-7.78,4.17C257,112.34,253.34,109.43,253.34,104.81Zm16.5-2.34v-2.32l-6.8.45c-3.84.25-5.53,1.59-5.53,4.12s2.18,4.08,5.11,4.08C266.77,108.8,269.84,106.08,269.84,102.47Z"/><path class="cls-1" d="M279.82,104.81c0-4.52,3.33-7.12,9.21-7.47l7.29-.45V94.6c0-3.12-1.94-4.83-5.72-4.83-3,0-5.13,1.15-5.69,3.14h-4.08c.54-4.06,4.52-6.73,9.91-6.73,6.17,0,9.61,3.17,9.61,8.42v17.29h-3.84v-3.72h-.38a8.73,8.73,0,0,1-7.78,4.17C283.45,112.34,279.82,109.43,279.82,104.81Zm16.5-2.34v-2.32l-6.8.45c-3.84.25-5.53,1.59-5.53,4.12s2.18,4.08,5.11,4.08C293.25,108.8,296.32,106.08,296.32,102.47Z"/><path class="cls-1" d="M311,103.06c.51,3.54,3.89,5.79,8.69,5.79,4.55,0,7.9-2.47,7.9-5.82,0-2.88-2.11-4.71-6.77-5.88L316.45,96c-6.11-1.54-8.76-4.31-8.76-9.11,0-5.74,4.8-9.64,11.95-9.64,6.54,0,11.41,3.9,11.77,9.36h-4.25c-.58-3.47-3.44-5.53-7.66-5.53-4.5,0-7.48,2.25-7.48,5.67,0,2.65,1.86,4.17,6.52,5.36l3.54.94c7,1.76,9.82,4.48,9.82,9.45,0,6.21-4.9,10.17-12.63,10.17-7.18,0-12.12-3.8-12.57-9.63Z"/><path class="cls-1" d="M371,102.21H357.59l-3.4,9.68h-4.43l12.47-33.82h4.17l12.47,33.82h-4.43Zm-12.21-3.58h11l-5.3-15.1h-.38Z"/><path class="cls-1" d="M407.2,99.26c0,7.9-4.19,13.08-10.61,13.08-3.61,0-6.52-1.57-7.9-4.24h-.38v12.23h-4V86.63h3.84v4.22h.38a9.11,9.11,0,0,1,8.09-4.67C403,86.18,407.2,91.31,407.2,99.26Zm-4.17,0c0-5.91-2.76-9.45-7.38-9.45s-7.45,3.64-7.45,9.45,2.88,9.44,7.42,9.44S403,105.17,403,99.26Z"/><path class="cls-1" d="M436.45,99.26c0,7.9-4.19,13.08-10.61,13.08-3.61,0-6.52-1.57-7.9-4.24h-.38v12.23h-4V86.63h3.85v4.22h.37a9.11,9.11,0,0,1,8.09-4.67C432.28,86.18,436.45,91.31,436.45,99.26Zm-4.17,0c0-5.91-2.76-9.45-7.38-9.45s-7.45,3.64-7.45,9.45,2.88,9.44,7.43,9.44S432.28,105.17,432.28,99.26Z"/><path class="cls-1" d="M443,76.6h4v35.29h-4Z"/><path class="cls-1" d="M454.17,78.94A2.82,2.82,0,1,1,457,81.75,2.82,2.82,0,0,1,454.17,78.94Zm.8,7.69h4v25.26h-4Z"/><path class="cls-1" d="M483.52,94.36c-.66-2.51-2.89-4.55-6.52-4.55-4.55,0-7.41,3.64-7.41,9.36s2.91,9.53,7.41,9.53c3.4,0,5.77-1.57,6.52-4.43h4.07c-.72,4.65-4.5,8.07-10.57,8.07-7.07,0-11.6-5.14-11.6-13.17,0-7.88,4.5-13,11.58-13,6.14,0,9.89,3.68,10.59,8.18Z"/><path class="cls-1" d="M492.05,104.81c0-4.52,3.33-7.12,9.21-7.47l7.29-.45V94.6c0-3.12-1.95-4.83-5.72-4.83-3,0-5.13,1.15-5.7,3.14h-4.08c.54-4.06,4.53-6.73,9.92-6.73,6.16,0,9.61,3.17,9.61,8.42v17.29h-3.85v-3.72h-.37a8.74,8.74,0,0,1-7.78,4.17C495.68,112.34,492.05,109.43,492.05,104.81Zm16.5-2.34v-2.32l-6.8.45c-3.84.25-5.53,1.59-5.53,4.12s2.18,4.08,5.11,4.08C505.48,108.8,508.55,106.08,508.55,102.47Z"/><path class="cls-1" d="M525.75,80.09v6.54h5.63V90h-5.63v14.3c0,3,1.13,4.24,3.75,4.24a17.25,17.25,0,0,0,1.88-.09v3.4a13.68,13.68,0,0,1-2.37.23c-5.21,0-7.29-1.92-7.29-6.75V90h-4.08V86.63h4.08V80.09Z"/><path class="cls-1" d="M536.77,78.94a2.81,2.81,0,1,1,2.81,2.81A2.81,2.81,0,0,1,536.77,78.94Zm.79,7.69h4v25.26h-4Z"/><path class="cls-1" d="M548,99.26c0-8.13,4.45-13.08,11.64-13.08s11.65,4.95,11.65,13.08-4.45,13.08-11.65,13.08S548,107.37,548,99.26Zm19.12,0c0-6-2.69-9.45-7.48-9.45s-7.47,3.45-7.47,9.45,2.69,9.44,7.47,9.44S567.14,105.24,567.14,99.26Z"/><path class="cls-1" d="M577.64,86.63h3.84v4h.38c1.26-2.79,3.73-4.43,7.59-4.43,5.67,0,8.84,3.35,8.84,9.35v16.36h-4V96.52c0-4.55-1.92-6.71-6-6.71s-6.63,2.7-6.63,7.13v15h-4Z"/><path class="cls-1" d="M198.68,644.15h-8.3L188.45,650h-4.08l8-22.55h4.53l8,22.55h-4.32ZM191.32,641h6.42l-3.06-9.37h-.27Z"/><path class="cls-1" d="M224.74,641.45c0,5.42-2.69,8.81-7,8.81a5.47,5.47,0,0,1-5.22-2.87h-.26v8.26h-3.88V632.9h3.74v2.83h.26a5.8,5.8,0,0,1,5.32-3.11C222,632.62,224.74,636,224.74,641.45Zm-4,0c0-3.5-1.61-5.59-4.27-5.59s-4.29,2.14-4.31,5.59,1.66,5.59,4.3,5.59S220.76,645,220.76,641.45Z"/><path class="cls-1" d="M245,641.45c0,5.42-2.69,8.81-7,8.81a5.47,5.47,0,0,1-5.22-2.87h-.26v8.26h-3.88V632.9h3.74v2.83h.26a5.8,5.8,0,0,1,5.32-3.11C242.27,632.62,245,636,245,641.45Zm-4,0c0-3.5-1.61-5.59-4.27-5.59s-4.29,2.14-4.31,5.59,1.66,5.59,4.3,5.59S241,645,241,641.45Z"/><path class="cls-1" d="M249,626.29h3.87V650H249Z"/><path class="cls-1" d="M257.46,627.75a2.32,2.32,0,1,1,2.31,2.29A2.32,2.32,0,0,1,257.46,627.75Zm.39,5.15h3.86V650h-3.86Z"/><path class="cls-1" d="M277.59,638.61a3.56,3.56,0,0,0-3.77-2.86c-2.66,0-4.23,2.09-4.23,5.65s1.59,5.74,4.23,5.74a3.48,3.48,0,0,0,3.77-2.75h3.68c-.42,3.53-3.11,5.94-7.43,5.94-5.14,0-8.18-3.33-8.18-8.93s3-8.82,8.16-8.82c4.39,0,7.05,2.5,7.45,6Z"/><path class="cls-1" d="M284,645.14c0-3.06,2.33-4.86,6.49-5.1l4.4-.26v-1.47c0-1.7-1.12-2.66-3.21-2.66-1.79,0-3,.64-3.36,1.82h-3.66c.31-3,3.14-4.89,7.2-4.89,4.39,0,6.86,2.12,6.86,5.73V650H295v-2.34h-.27a5.64,5.64,0,0,1-5.06,2.62C286.38,650.26,284,648.26,284,645.14Zm10.89-1.42v-1.39l-3.86.26c-2.17.14-3.18.94-3.18,2.36s1.23,2.33,2.95,2.33C293.16,647.28,294.91,645.75,294.91,643.72Z"/><path class="cls-1" d="M308.49,628.72V633h3.66v3h-3.66v8.5c0,1.7.72,2.47,2.35,2.47a10.59,10.59,0,0,0,1.31-.08v3a11,11,0,0,1-2,.17c-3.92,0-5.49-1.31-5.49-4.61V636h-2.7v-3h2.7v-4.29Z"/><path class="cls-1" d="M315.68,627.75A2.32,2.32,0,1,1,318,630,2.32,2.32,0,0,1,315.68,627.75Zm.39,5.15h3.86V650h-3.86Z"/><path class="cls-1" d="M323.88,641.43c0-5.5,3.14-8.85,8.22-8.85s8.22,3.34,8.22,8.85-3.11,8.9-8.22,8.9S323.88,647,323.88,641.43Zm12.46,0c0-3.61-1.55-5.7-4.24-5.7s-4.25,2.09-4.25,5.7,1.55,5.7,4.25,5.7S336.34,645.06,336.34,641.45Z"/><path class="cls-1" d="M344.23,632.9H348v2.74h.27a5.08,5.08,0,0,1,5.07-3.06c3.82,0,5.9,2.29,5.9,6.35V650h-3.88V639.84c0-2.66-1.09-4-3.45-4s-3.77,1.61-3.77,4.17v10h-3.87Z"/><path class="cls-1" d="M372.48,626.29h3.87V650h-3.87Z"/><path class="cls-1" d="M380.4,641.43c0-5.5,3.14-8.85,8.22-8.85s8.22,3.34,8.22,8.85-3.11,8.9-8.22,8.9S380.4,647,380.4,641.43Zm12.45,0c0-3.61-1.55-5.7-4.23-5.7s-4.25,2.09-4.25,5.7,1.54,5.7,4.25,5.7S392.85,645.06,392.85,641.45Z"/><path class="cls-1" d="M400.51,651.62h3.89c.25,1.21,1.62,2,3.75,2,2.65,0,4.2-1.28,4.2-3.45v-3.25h-.26a5.59,5.59,0,0,1-5.22,2.84c-4.32,0-7-3.34-7-8.47s2.7-8.64,7.06-8.64a5.81,5.81,0,0,1,5.3,3h.26V632.9h3.74v17.18c0,3.92-3.16,6.4-8.14,6.4C403.7,656.48,400.82,654.56,400.51,651.62Zm11.9-10.36c0-3.31-1.64-5.4-4.32-5.4s-4.24,2.09-4.24,5.39,1.53,5.4,4.24,5.4S412.41,644.56,412.41,641.26Z"/><path class="cls-1" d="M420.63,627.75A2.32,2.32,0,1,1,423,630,2.32,2.32,0,0,1,420.63,627.75Zm.39,5.15h3.86V650H421Z"/><path class="cls-1" d="M440.76,638.61a3.56,3.56,0,0,0-3.77-2.86c-2.65,0-4.23,2.09-4.23,5.65s1.59,5.74,4.23,5.74a3.48,3.48,0,0,0,3.77-2.75h3.69c-.43,3.53-3.11,5.94-7.44,5.94-5.14,0-8.17-3.33-8.17-8.93s3-8.82,8.15-8.82c4.39,0,7.05,2.5,7.46,6Z"/><path class="cls-1" d="M456.68,632.9h3.73v2.66h.27a4.52,4.52,0,0,1,4.52-2.94,7.12,7.12,0,0,1,1.6.16v3.53a8.68,8.68,0,0,0-2-.22c-2.52,0-4.27,1.56-4.27,4V650h-3.87Z"/><path class="cls-1" d="M484.85,650h-3.73v-2.72h-.27c-.83,2-2.5,3.07-5.11,3.07-3.73,0-5.92-2.33-5.92-6.33V632.9h3.88v10.16c0,2.66,1.07,3.94,3.39,3.94,2.51,0,3.89-1.57,3.89-4.14v-10h3.87Z"/><path class="cls-1" d="M489.6,632.9h3.74v2.74h.26a5.09,5.09,0,0,1,5.08-3.06c3.81,0,5.89,2.29,5.89,6.35V650H500.7V639.84c0-2.66-1.1-4-3.46-4s-3.76,1.61-3.76,4.17v10H489.6Z"/><path class="cls-1" d="M515.62,632.58c4.06,0,6.61,1.78,6.89,4.85h-3.64c-.28-1.2-1.42-2-3.24-2s-3.09.86-3.09,2.13c0,1,.81,1.57,2.53,2l3,.67c3.26.75,4.78,2.14,4.78,4.66,0,3.26-3,5.44-7.28,5.44s-7-1.85-7.25-4.93h3.82c.38,1.27,1.58,2.05,3.52,2.05s3.31-.89,3.31-2.19c0-1-.73-1.59-2.36-2l-3-.7c-3.28-.75-4.83-2.25-4.83-4.81C508.77,634.72,511.59,632.58,515.62,632.58Z"/><path class="cls-1" d="M203.15,683.43c0-5.5,3.14-8.85,8.22-8.85s8.22,3.34,8.22,8.85-3.11,8.9-8.22,8.9S203.15,689,203.15,683.43Zm12.45,0c0-3.61-1.55-5.7-4.23-5.7s-4.25,2.09-4.25,5.7,1.54,5.7,4.25,5.7S215.6,687.06,215.6,683.45Z"/><path class="cls-1" d="M223.49,674.9h3.74v2.74h.26a5.09,5.09,0,0,1,5.08-3.06c3.81,0,5.89,2.29,5.89,6.35V692h-3.87V681.84c0-2.66-1.1-4-3.46-4s-3.76,1.61-3.76,4.17v10h-3.88Z"/><path class="cls-1" d="M266.46,692h-3.73v-2.72h-.27c-.83,2-2.5,3.07-5.11,3.07-3.73,0-5.92-2.33-5.92-6.33V674.9h3.87v10.16c0,2.66,1.08,3.94,3.4,3.94,2.51,0,3.89-1.57,3.89-4.14v-10h3.87Z"/><path class="cls-1" d="M277.66,674.58c4.07,0,6.61,1.78,6.89,4.85h-3.64c-.28-1.2-1.42-2-3.23-2s-3.09.86-3.09,2.13c0,1,.81,1.57,2.53,2l3,.67c3.27.75,4.78,2.14,4.78,4.66,0,3.26-3,5.44-7.28,5.44s-6.95-1.85-7.25-4.93h3.83c.38,1.27,1.58,2.05,3.52,2.05s3.31-.89,3.31-2.19c0-1-.74-1.59-2.36-2l-3-.7c-3.28-.75-4.83-2.25-4.83-4.81C270.82,676.72,273.63,674.58,277.66,674.58Z"/><path class="cls-1" d="M303.65,687.31c-.7,3.08-3.56,5-7.6,5-5,0-8.06-3.35-8.06-8.82s3.08-8.93,8-8.93,7.8,3.23,7.8,8.59v1.23H291.88v.21c.1,2.89,1.74,4.7,4.28,4.7,1.93,0,3.25-.72,3.82-2Zm-11.75-5.48H300c-.08-2.6-1.61-4.24-3.94-4.24S292.07,679.26,291.9,681.83Z"/><path class="cls-1" d="M307.71,674.9h3.74v2.66h.26a4.52,4.52,0,0,1,4.52-2.94,7.28,7.28,0,0,1,1.61.16v3.53a8.85,8.85,0,0,0-2-.22c-2.51,0-4.26,1.56-4.26,4V692h-3.88Z"/><path class="cls-1" d="M322.48,678.51l1.72-9.08h4l-3,9.08Z"/><path class="cls-1" d="M337.24,674.58c4.06,0,6.61,1.78,6.89,4.85h-3.64c-.28-1.2-1.42-2-3.23-2s-3.1.86-3.1,2.13c0,1,.82,1.57,2.54,2l3,.67c3.27.75,4.78,2.14,4.78,4.66,0,3.26-3,5.44-7.28,5.44s-6.95-1.85-7.25-4.93h3.83c.37,1.27,1.58,2.05,3.51,2.05s3.32-.89,3.32-2.19c0-1-.74-1.59-2.36-2l-3-.7c-3.28-.75-4.83-2.25-4.83-4.81C330.4,676.72,333.21,674.58,337.24,674.58Z"/><path class="cls-1" d="M368,680.61a3.56,3.56,0,0,0-3.76-2.86c-2.66,0-4.24,2.09-4.24,5.65s1.6,5.74,4.24,5.74a3.47,3.47,0,0,0,3.76-2.75h3.69c-.42,3.53-3.11,5.94-7.44,5.94-5.14,0-8.17-3.33-8.17-8.93s3-8.82,8.16-8.82c4.39,0,7,2.5,7.45,6Z"/><path class="cls-1" d="M374.57,683.43c0-5.5,3.14-8.85,8.22-8.85s8.22,3.34,8.22,8.85-3.11,8.9-8.22,8.9S374.57,689,374.57,683.43Zm12.45,0c0-3.61-1.54-5.7-4.23-5.7s-4.25,2.09-4.25,5.7,1.55,5.7,4.25,5.7S387,687.06,387,683.45Z"/><path class="cls-1" d="M394.91,674.9h3.74v2.75h.26a4.83,4.83,0,0,1,4.75-3.07,4.72,4.72,0,0,1,4.72,3.07h.27a5.52,5.52,0,0,1,5.19-3.07c3.42,0,5.48,2.1,5.48,5.65V692h-3.86v-10.8c0-2.21-1-3.32-3.12-3.32a3.27,3.27,0,0,0-3.35,3.45V692h-3.76V680.9a2.84,2.84,0,0,0-3.1-3,3.47,3.47,0,0,0-3.34,3.73V692h-3.88Z"/><path class="cls-1" d="M440.27,683.45c0,5.42-2.68,8.81-7,8.81a5.47,5.47,0,0,1-5.22-2.87h-.26v8.26h-3.88V674.9h3.74v2.83h.26a5.8,5.8,0,0,1,5.32-3.11C437.55,674.62,440.27,678,440.27,683.45Zm-4,0c0-3.5-1.61-5.59-4.27-5.59s-4.29,2.14-4.31,5.59S429.37,689,432,689,436.29,687,436.29,683.45Z"/><path class="cls-1" d="M459,692H455.3v-2.72H455c-.83,2-2.5,3.07-5.11,3.07-3.73,0-5.92-2.33-5.92-6.33V674.9h3.87v10.16c0,2.66,1.08,3.94,3.39,3.94,2.52,0,3.89-1.57,3.89-4.14v-10H459Z"/><path class="cls-1" d="M468.88,670.72V675h3.66v3h-3.66v8.5c0,1.7.72,2.47,2.35,2.47a10.59,10.59,0,0,0,1.31-.08v3a11,11,0,0,1-2,.17c-3.92,0-5.49-1.31-5.49-4.61V678h-2.7v-3H465v-4.29Z"/><path class="cls-1" d="M491.07,687.31c-.7,3.08-3.56,5-7.59,5-5,0-8.07-3.35-8.07-8.82s3.08-8.93,8-8.93,7.79,3.23,7.79,8.59v1.23H479.3v.21c.1,2.89,1.74,4.7,4.29,4.7,1.92,0,3.25-.72,3.81-2Zm-11.75-5.48h8.05c-.08-2.6-1.61-4.24-3.94-4.24S479.49,679.26,479.32,681.83Z"/><path class="cls-1" d="M495.13,674.9h3.74v2.66h.26a4.53,4.53,0,0,1,4.52-2.94,7.28,7.28,0,0,1,1.61.16v3.53a8.85,8.85,0,0,0-2-.22c-2.51,0-4.26,1.56-4.26,4V692h-3.88Z"/><path class="cls-3" d="M469.35,189.73h-304A14.09,14.09,0,0,0,151.11,204V373.88a14.09,14.09,0,0,0,14.24,14.24H282v54.8H241.14a7.58,7.58,0,0,0,0,15.16H392.72a7.58,7.58,0,0,0,0-15.16H352.33v-54.8h117a14.47,14.47,0,0,0,14.24-14.66V204A14.09,14.09,0,0,0,469.35,189.73ZM468.43,373H166.27V204.89H468.43Z"/><path class="cls-3" d="M313.38,554.9a88.93,88.93,0,0,0-86.31-67.56H138A88.93,88.93,0,0,0,51.63,554.9Z"/><circle class="cls-3" cx="182.51" cy="397.84" r="66.49" transform="translate(-231.38 540.25) rotate(-84.35)"/><path class="cls-3" d="M398.58,234.94H236.11a8,8,0,0,0-7.86,7.86V371.86a8,8,0,0,0,7.86,7.86H398.58a8,8,0,0,0,7.86-7.86V242.8A8,8,0,0,0,398.58,234.94Zm-.18,136.71-162.08.21-.15-97.18H398.38ZM295,257.6a5.61,5.61,0,1,1-5.61-5.62A5.61,5.61,0,0,1,295,257.6Zm-16.58,0a5.61,5.61,0,1,1-5.61-5.62A5.61,5.61,0,0,1,278.45,257.6Zm-16.58,0a5.61,5.61,0,1,1-5.61-5.62A5.61,5.61,0,0,1,261.87,257.6Zm-.63,79.83a2.42,2.42,0,0,1,2.42-2.43H308a2.43,2.43,0,0,1,0,4.85H263.66A2.42,2.42,0,0,1,261.24,337.43Zm0-39.54a2.42,2.42,0,0,1,2.42-2.42h72.43a2.42,2.42,0,1,1,0,4.84H263.66A2.42,2.42,0,0,1,261.24,297.89Zm0,19.64a2.42,2.42,0,0,1,2.42-2.42h72.43a2.42,2.42,0,1,1,0,4.84H263.66A2.42,2.42,0,0,1,261.24,317.53Z"/><path class="cls-3" d="M583.41,272.68H451.87a8.14,8.14,0,0,0-8.14,8.14V546.48a8.14,8.14,0,0,0,8.14,8.14H583.41a8.14,8.14,0,0,0,8.14-8.14V280.82A8.14,8.14,0,0,0,583.41,272.68Z"/><rect class="cls-7" x="478.23" y="299.16" width="82.51" height="11"/><rect class="cls-7" x="478.23" y="327.66" width="82.51" height="11"/><rect class="cls-7" x="478.23" y="356.16" width="82.51" height="11"/><circle class="cls-7" cx="517.64" cy="433.02" r="10.58"/><circle class="cls-7" cx="517.64" cy="464.33" r="7.41"/></svg>