<svg id="Layer_1" data-name="Layer 1" xmlns="http://www.w3.org/2000/svg" viewBox="0 0 1480 766.3"><defs><style>.cls-1{fill:#36393a;}.cls-2{fill:#404242;}.cls-3,.cls-5,.cls-6{fill:#2c7cb0;}.cls-4{fill:none;stroke:#404242;}.cls-4,.cls-5,.cls-6{stroke-miterlimit:10;}.cls-4,.cls-5{stroke-width:5px;}.cls-5,.cls-6{stroke:#2c7cb0;}</style></defs><title>MRK-9612_LC-What Is SaaS_v2_190714</title><path class="cls-1" d="M354.29,731.67a4.83,4.83,0,0,0,5.23,5.17c3.35,0,5.24-2.1,5.24-5.17V717.24h4V732c0,4.92-3.56,8.32-9.27,8.32s-9.26-3.4-9.26-8.32V717.24h4Z"/><path class="cls-1" d="M380.38,722.38c4.07,0,6.61,1.79,6.89,4.86h-3.64c-.28-1.2-1.42-2-3.23-2s-3.09.86-3.09,2.12c0,1,.81,1.58,2.53,2l3,.67c3.27.75,4.78,2.14,4.78,4.66,0,3.26-3,5.43-7.28,5.43s-7-1.84-7.25-4.92h3.83c.38,1.27,1.58,2,3.52,2s3.31-.89,3.31-2.19c0-1-.74-1.59-2.36-2l-3-.7c-3.28-.75-4.83-2.25-4.83-4.81C373.54,724.53,376.35,722.38,380.38,722.38Z"/><path class="cls-1" d="M406.37,735.12c-.71,3.08-3.56,5-7.6,5-5,0-8.06-3.34-8.06-8.81s3.08-8.94,8-8.94,7.8,3.24,7.8,8.6v1.23H394.6v.21c.1,2.89,1.74,4.7,4.28,4.7,1.93,0,3.25-.72,3.82-2Zm-11.75-5.49h8c-.07-2.59-1.6-4.23-3.93-4.23S394.79,727.07,394.62,729.63Z"/><path class="cls-1" d="M410.43,722.71h3.73v2.66h.27a4.52,4.52,0,0,1,4.52-2.94,7.28,7.28,0,0,1,1.61.16v3.53a8.85,8.85,0,0,0-2-.22c-2.51,0-4.26,1.56-4.26,4v9.92h-3.88Z"/><path class="cls-1" d="M429.82,722.38c4.06,0,6.61,1.79,6.89,4.86h-3.64c-.28-1.2-1.42-2-3.23-2s-3.1.86-3.1,2.12c0,1,.82,1.58,2.53,2l3,.67c3.27.75,4.78,2.14,4.78,4.66,0,3.26-3,5.43-7.28,5.43s-7-1.84-7.25-4.92h3.83c.37,1.27,1.58,2,3.51,2s3.32-.89,3.32-2.19c0-1-.74-1.59-2.36-2l-3-.7c-3.29-.75-4.83-2.25-4.83-4.81C423,724.53,425.79,722.38,429.82,722.38Z"/><path class="cls-1" d="M460.6,728.42a3.56,3.56,0,0,0-3.76-2.86c-2.66,0-4.24,2.09-4.24,5.65s1.6,5.74,4.24,5.74a3.47,3.47,0,0,0,3.76-2.75h3.69c-.42,3.53-3.11,5.93-7.44,5.93-5.14,0-8.17-3.32-8.17-8.92s3-8.83,8.16-8.83c4.39,0,7,2.5,7.45,6Z"/><path class="cls-1" d="M467,735c0-3.07,2.33-4.86,6.48-5.1l4.41-.26v-1.47c0-1.7-1.12-2.66-3.22-2.66-1.78,0-3,.64-3.36,1.82H467.7c.31-3,3.14-4.9,7.2-4.9,4.39,0,6.86,2.13,6.86,5.74v11.67H478v-2.34h-.26a5.64,5.64,0,0,1-5.06,2.62C469.4,740.07,467,738.07,467,735Zm10.89-1.42v-1.4l-3.86.27c-2.17.14-3.19.94-3.19,2.36s1.24,2.33,3,2.33C476.18,737.09,477.93,735.56,477.93,733.53Z"/><path class="cls-1" d="M486.41,722.71h3.74v2.74h.26a5.11,5.11,0,0,1,5.08-3.07c3.82,0,5.89,2.3,5.89,6.36v11h-3.87V729.65c0-2.66-1.1-4-3.45-4s-3.77,1.61-3.77,4.17v9.95h-3.88Z"/><path class="cls-1" d="M513.56,735c0-3.07,2.32-4.86,6.48-5.1l4.41-.26v-1.47c0-1.7-1.13-2.66-3.22-2.66-1.78,0-3,.64-3.36,1.82h-3.66c.31-3,3.14-4.9,7.2-4.9,4.4,0,6.86,2.13,6.86,5.74v11.67h-3.73v-2.34h-.27a5.63,5.63,0,0,1-5.06,2.62C515.91,740.07,513.56,738.07,513.56,735Zm10.89-1.42v-1.4l-3.86.27c-2.18.14-3.19.94-3.19,2.36s1.23,2.33,3,2.33C522.7,737.09,524.45,735.56,524.45,733.53Z"/><path class="cls-1" d="M544,728.42a3.56,3.56,0,0,0-3.77-2.86c-2.65,0-4.23,2.09-4.23,5.65s1.59,5.74,4.23,5.74A3.48,3.48,0,0,0,544,734.2h3.69c-.43,3.53-3.11,5.93-7.44,5.93-5.14,0-8.17-3.32-8.17-8.92s3-8.83,8.15-8.83c4.39,0,7,2.5,7.46,6Z"/><path class="cls-1" d="M562.48,728.42a3.56,3.56,0,0,0-3.77-2.86c-2.65,0-4.23,2.09-4.23,5.65s1.59,5.74,4.23,5.74a3.48,3.48,0,0,0,3.77-2.75h3.68c-.42,3.53-3.1,5.93-7.43,5.93-5.14,0-8.17-3.32-8.17-8.92s3-8.83,8.15-8.83c4.39,0,7,2.5,7.45,6Z"/><path class="cls-1" d="M584.68,735.12c-.7,3.08-3.56,5-7.59,5-5,0-8.07-3.34-8.07-8.81s3.08-8.94,8-8.94,7.79,3.24,7.79,8.6v1.23H572.91v.21c.1,2.89,1.74,4.7,4.29,4.7,1.92,0,3.25-.72,3.81-2Zm-11.75-5.49H581c-.08-2.59-1.61-4.23-3.94-4.23S573.1,727.07,572.93,729.63Z"/><path class="cls-1" d="M595.2,722.38c4.06,0,6.61,1.79,6.89,4.86h-3.64c-.29-1.2-1.43-2-3.24-2s-3.09.86-3.09,2.12c0,1,.81,1.58,2.53,2l3,.67c3.27.75,4.79,2.14,4.79,4.66,0,3.26-3,5.43-7.29,5.43s-6.95-1.84-7.25-4.92h3.83c.38,1.27,1.58,2,3.52,2s3.31-.89,3.31-2.19c0-1-.73-1.59-2.36-2l-3-.7c-3.28-.75-4.83-2.25-4.83-4.81C588.35,724.53,591.16,722.38,595.2,722.38Z"/><path class="cls-1" d="M612.51,722.38c4.06,0,6.61,1.79,6.89,4.86h-3.64c-.28-1.2-1.42-2-3.24-2s-3.09.86-3.09,2.12c0,1,.81,1.58,2.53,2l3,.67c3.26.75,4.78,2.14,4.78,4.66,0,3.26-3,5.43-7.28,5.43s-7-1.84-7.25-4.92h3.83c.37,1.27,1.57,2,3.51,2s3.31-.89,3.31-2.19c0-1-.73-1.59-2.36-2l-3-.7c-3.28-.75-4.83-2.25-4.83-4.81C605.66,724.53,608.48,722.38,612.51,722.38Z"/><path class="cls-1" d="M635.52,733.68c.25,2.06,2.25,3.38,5.11,3.38,2.66,0,4.58-1.39,4.58-3.32,0-1.64-1.23-2.64-4.12-3.31l-2.93-.67c-4.09-.94-6-3-6-6.3,0-4.06,3.34-6.78,8.39-6.78,4.73,0,8.16,2.7,8.34,6.56H645c-.28-2-2-3.28-4.5-3.28s-4.31,1.28-4.31,3.24c0,1.54,1.14,2.43,3.94,3.09l2.59.59c4.58,1,6.5,3,6.5,6.38,0,4.37-3.39,7.09-8.86,7.09-5.17,0-8.59-2.59-8.79-6.67Z"/><path class="cls-1" d="M652.26,735c0-3.07,2.33-4.86,6.48-5.1l4.41-.26v-1.47c0-1.7-1.13-2.66-3.22-2.66-1.78,0-3,.64-3.36,1.82h-3.66c.32-3,3.15-4.9,7.21-4.9,4.39,0,6.86,2.13,6.86,5.74v11.67h-3.74v-2.34H663a5.66,5.66,0,0,1-5.07,2.62C654.62,740.07,652.26,738.07,652.26,735Zm10.89-1.42v-1.4l-3.86.27c-2.17.14-3.19.94-3.19,2.36s1.24,2.33,3,2.33C661.4,737.09,663.15,735.56,663.15,733.53Z"/><path class="cls-1" d="M670.68,735c0-3.07,2.33-4.86,6.48-5.1l4.41-.26v-1.47c0-1.7-1.12-2.66-3.22-2.66-1.78,0-3,.64-3.36,1.82h-3.65c.31-3,3.14-4.9,7.2-4.9,4.39,0,6.86,2.13,6.86,5.74v11.67h-3.74v-2.34h-.26a5.64,5.64,0,0,1-5.06,2.62C673,740.07,670.68,738.07,670.68,735Zm10.89-1.42v-1.4l-3.86.27c-2.17.14-3.19.94-3.19,2.36s1.24,2.33,3,2.33C679.82,737.09,681.57,735.56,681.57,733.53Z"/><path class="cls-1" d="M693.37,733.68c.25,2.06,2.25,3.38,5.11,3.38,2.65,0,4.58-1.39,4.58-3.32,0-1.64-1.24-2.64-4.13-3.31l-2.92-.67c-4.1-.94-6-3-6-6.3,0-4.06,3.35-6.78,8.39-6.78,4.74,0,8.16,2.7,8.35,6.56h-3.86c-.28-2-2-3.28-4.5-3.28s-4.31,1.28-4.31,3.24c0,1.54,1.14,2.43,3.93,3.09l2.6.59c4.57,1,6.5,3,6.5,6.38,0,4.37-3.39,7.09-8.86,7.09-5.17,0-8.6-2.59-8.8-6.67Z"/><path class="cls-1" d="M718.79,735c0-3.07,2.33-4.86,6.48-5.1l4.41-.26v-1.47c0-1.7-1.12-2.66-3.22-2.66-1.78,0-3,.64-3.36,1.82h-3.65c.31-3,3.14-4.9,7.2-4.9,4.39,0,6.86,2.13,6.86,5.74v11.67h-3.74v-2.34h-.26a5.64,5.64,0,0,1-5.06,2.62C721.15,740.07,718.79,738.07,718.79,735Zm10.89-1.42v-1.4l-3.86.27c-2.17.14-3.19.94-3.19,2.36s1.24,2.33,3,2.33C727.93,737.09,729.68,735.56,729.68,733.53Z"/><path class="cls-1" d="M754.52,731.26c0,5.42-2.68,8.81-7,8.81a5.45,5.45,0,0,1-5.21-2.87H742v8.26h-3.88V722.71h3.74v2.83h.26a5.8,5.8,0,0,1,5.32-3.11C751.81,722.43,754.52,725.79,754.52,731.26Zm-4,0c0-3.5-1.61-5.59-4.27-5.59s-4.29,2.14-4.31,5.59,1.66,5.59,4.3,5.59S750.54,734.76,750.54,731.26Z"/><path class="cls-1" d="M774.77,731.26c0,5.42-2.68,8.81-7,8.81a5.45,5.45,0,0,1-5.21-2.87h-.27v8.26h-3.88V722.71h3.74v2.83h.26a5.8,5.8,0,0,1,5.32-3.11C772.06,722.43,774.77,725.79,774.77,731.26Zm-4,0c0-3.5-1.61-5.59-4.27-5.59s-4.29,2.14-4.31,5.59,1.66,5.59,4.3,5.59S770.79,734.76,770.79,731.26Z"/><path class="cls-1" d="M778.82,716.1h3.88v23.69h-3.88Z"/><path class="cls-1" d="M787.24,717.56a2.32,2.32,0,1,1,2.32,2.29A2.32,2.32,0,0,1,787.24,717.56Zm.39,5.15h3.86v17.08h-3.86Z"/><path class="cls-1" d="M807.37,728.42a3.56,3.56,0,0,0-3.77-2.86c-2.65,0-4.23,2.09-4.23,5.65S801,737,803.6,737a3.48,3.48,0,0,0,3.77-2.75h3.69c-.43,3.53-3.11,5.93-7.44,5.93-5.14,0-8.17-3.32-8.17-8.92s3-8.83,8.15-8.83c4.39,0,7,2.5,7.46,6Z"/><path class="cls-1" d="M813.81,735c0-3.07,2.32-4.86,6.48-5.1l4.41-.26v-1.47c0-1.7-1.13-2.66-3.22-2.66-1.78,0-3,.64-3.36,1.82h-3.66c.31-3,3.14-4.9,7.2-4.9,4.4,0,6.86,2.13,6.86,5.74v11.67h-3.73v-2.34h-.27a5.63,5.63,0,0,1-5.06,2.62C816.16,740.07,813.81,738.07,813.81,735Zm10.89-1.42v-1.4l-3.86.27c-2.18.14-3.19.94-3.19,2.36s1.23,2.33,3,2.33C823,737.09,824.7,735.56,824.7,733.53Z"/><path class="cls-1" d="M838.27,718.53v4.29h3.66v3h-3.66v8.5c0,1.7.72,2.47,2.35,2.47a10.59,10.59,0,0,0,1.31-.08v3a11,11,0,0,1-2,.17c-3.92,0-5.49-1.31-5.49-4.61v-9.42h-2.7v-3h2.7v-4.29Z"/><path class="cls-1" d="M845.46,717.56a2.32,2.32,0,1,1,2.31,2.29A2.32,2.32,0,0,1,845.46,717.56Zm.39,5.15h3.86v17.08h-3.86Z"/><path class="cls-1" d="M853.66,731.24c0-5.5,3.15-8.86,8.22-8.86s8.22,3.35,8.22,8.86-3.11,8.89-8.22,8.89S853.66,736.79,853.66,731.24Zm12.46,0c0-3.61-1.55-5.7-4.24-5.7s-4.25,2.09-4.25,5.7,1.55,5.7,4.25,5.7S866.12,734.87,866.12,731.26Z"/><path class="cls-1" d="M874,722.71h3.73v2.74H878a5.09,5.09,0,0,1,5.08-3.07c3.81,0,5.89,2.3,5.89,6.36v11H885.1V729.65c0-2.66-1.09-4-3.45-4s-3.77,1.61-3.77,4.17v9.95H874Z"/><path class="cls-1" d="M900,722.38c4.07,0,6.61,1.79,6.89,4.86h-3.64c-.28-1.2-1.42-2-3.23-2s-3.09.86-3.09,2.12c0,1,.81,1.58,2.53,2l3,.67c3.27.75,4.78,2.14,4.78,4.66,0,3.26-3,5.43-7.28,5.43s-7-1.84-7.25-4.92h3.83c.38,1.27,1.58,2,3.52,2s3.31-.89,3.31-2.19c0-1-.74-1.59-2.36-2l-3-.7c-3.28-.75-4.83-2.25-4.83-4.81C893.18,724.53,896,722.38,900,722.38Z"/><path class="cls-1" d="M918.88,731.24c0-5.5,3.14-8.86,8.22-8.86s8.22,3.35,8.22,8.86-3.11,8.89-8.22,8.89S918.88,736.79,918.88,731.24Zm12.46,0c0-3.61-1.55-5.7-4.24-5.7s-4.25,2.09-4.25,5.7,1.55,5.7,4.25,5.7S931.34,734.87,931.34,731.26Z"/><path class="cls-1" d="M939.23,722.71H943v2.74h.27a5.09,5.09,0,0,1,5.08-3.07c3.81,0,5.89,2.3,5.89,6.36v11h-3.88V729.65c0-2.66-1.09-4-3.45-4s-3.77,1.61-3.77,4.17v9.95h-3.87Z"/><path class="cls-1" d="M966.37,735c0-3.07,2.33-4.86,6.48-5.1l4.41-.26v-1.47c0-1.7-1.13-2.66-3.22-2.66-1.78,0-3,.64-3.36,1.82H967c.32-3,3.14-4.9,7.21-4.9,4.39,0,6.86,2.13,6.86,5.74v11.67h-3.74v-2.34h-.26a5.66,5.66,0,0,1-5.07,2.62C968.73,740.07,966.37,738.07,966.37,735Zm10.89-1.42v-1.4l-3.86.27c-2.17.14-3.19.94-3.19,2.36s1.24,2.33,2.95,2.33C975.51,737.09,977.26,735.56,977.26,733.53Z"/><path class="cls-1" d="M985.74,722.71h3.74v2.74h.26a5.1,5.1,0,0,1,5.08-3.07c3.81,0,5.89,2.3,5.89,6.36v11h-3.87V729.65c0-2.66-1.1-4-3.46-4s-3.76,1.61-3.76,4.17v9.95h-3.88Z"/><path class="cls-1" d="M1005.12,745.92v-3.08c.22,0,.79,0,1.06,0a2.79,2.79,0,0,0,3.06-2.23l.21-.8-6.11-17.14h4.25l4,13.41h.26l4-13.41h4.09l-6.17,17.67c-1.45,4.21-3.28,5.6-7.11,5.6C1006.41,746,1005.37,746,1005.12,745.92Z"/><path class="cls-1" d="M1031,731.24c0-5.4,2.71-8.81,7-8.81a5.54,5.54,0,0,1,5.18,3h.27V716.1h3.88v23.69h-3.75v-2.7h-.27a5.76,5.76,0,0,1-5.31,3C1033.65,740.07,1031,736.67,1031,731.24Zm4,0c0,3.5,1.61,5.59,4.27,5.59s4.3-2.12,4.3-5.59-1.64-5.59-4.3-5.59S1034.91,727.78,1034.91,731.26Z"/><path class="cls-1" d="M1067,735.12c-.7,3.08-3.56,5-7.6,5-5,0-8.06-3.34-8.06-8.81s3.08-8.94,8-8.94,7.8,3.24,7.8,8.6v1.23h-11.94v.21c.1,2.89,1.74,4.7,4.28,4.7,1.93,0,3.25-.72,3.82-2Zm-11.75-5.49h8c-.08-2.59-1.61-4.23-3.94-4.23S1055.43,727.07,1055.26,729.63Z"/><path class="cls-1" d="M1079.52,739.79h-4.26l-6.08-17.08h4.16l4,13.28h.27l3.92-13.28h4.09Z"/><path class="cls-1" d="M1088.49,717.56a2.32,2.32,0,1,1,2.32,2.29A2.32,2.32,0,0,1,1088.49,717.56Zm.39,5.15h3.86v17.08h-3.86Z"/><path class="cls-1" d="M1108.62,728.42a3.56,3.56,0,0,0-3.77-2.86c-2.65,0-4.23,2.09-4.23,5.65s1.59,5.74,4.23,5.74a3.48,3.48,0,0,0,3.77-2.75h3.69c-.43,3.53-3.11,5.93-7.44,5.93-5.14,0-8.17-3.32-8.17-8.92s3-8.83,8.15-8.83c4.39,0,7.05,2.5,7.46,6Z"/><path class="cls-1" d="M1130.82,735.12c-.7,3.08-3.56,5-7.59,5-5,0-8.07-3.34-8.07-8.81s3.08-8.94,8-8.94,7.79,3.24,7.79,8.6v1.23h-11.93v.21c.09,2.89,1.73,4.7,4.28,4.7,1.92,0,3.25-.72,3.81-2Zm-11.75-5.49h8c-.08-2.59-1.61-4.23-3.94-4.23S1119.24,727.07,1119.07,729.63Z"/><path class="cls-2" d="M335.86,539.62a89,89,0,0,0-86.32-67.56H160.42A88.93,88.93,0,0,0,74.1,539.62Z"/><circle class="cls-2" cx="204.98" cy="382.56" r="66.49" transform="translate(-195.91 548.84) rotate(-84.35)"/><path class="cls-2" d="M1405.9,539.62a88.93,88.93,0,0,0-86.32-67.56h-89.12a89,89,0,0,0-86.32,67.56Z"/><circle class="cls-2" cx="1275.02" cy="382.56" r="66.49" transform="translate(768.69 1613.68) rotate(-84.35)"/><path class="cls-2" d="M391.52,281.76H245.3a7.17,7.17,0,0,0-7.07,7.07V405a7.17,7.17,0,0,0,7.07,7.08H391.52a7.17,7.17,0,0,0,7.07-7.08V288.83A7.17,7.17,0,0,0,391.52,281.76Zm-.16,123L245.49,405l-.14-87.45h146Zm-93-102.64a5.05,5.05,0,1,1-5.05-5A5.06,5.06,0,0,1,298.32,302.15Zm-14.92,0a5,5,0,1,1-5-5A5.06,5.06,0,0,1,283.4,302.15Zm-14.92,0a5.05,5.05,0,1,1-5.05-5A5.06,5.06,0,0,1,268.48,302.15ZM267.91,374a2.19,2.19,0,0,1,2.18-2.18H310a2.18,2.18,0,0,1,0,4.36H270.09A2.19,2.19,0,0,1,267.91,374Zm0-35.58a2.18,2.18,0,0,1,2.18-2.17h65.19a2.18,2.18,0,1,1,0,4.35H270.09A2.18,2.18,0,0,1,267.91,338.41Zm0,17.68a2.19,2.19,0,0,1,2.18-2.18h65.19a2.18,2.18,0,1,1,0,4.36H270.09A2.19,2.19,0,0,1,267.91,356.09Z"/><path class="cls-2" d="M433,397.84V260.94a10.82,10.82,0,0,0-10.81-10.81H215.81A10.82,10.82,0,0,0,205,260.94v136.9H190.57c1.27,9.77,8.06,17.3,16.19,17.3h223.3c8.13,0,14.91-7.53,16.19-17.3ZM217.36,262.48H420.6V397.84H217.36Z"/><path class="cls-2" d="M1234.7,281.76H1088.48a7.17,7.17,0,0,0-7.07,7.07V405a7.17,7.17,0,0,0,7.07,7.08H1234.7a7.17,7.17,0,0,0,7.07-7.08V288.83A7.17,7.17,0,0,0,1234.7,281.76Zm-.16,123-145.87.19-.14-87.45h146Zm-93-102.64a5,5,0,1,1-5-5A5.06,5.06,0,0,1,1141.51,302.15Zm-14.93,0a5,5,0,1,1-5-5A5.05,5.05,0,0,1,1126.58,302.15Zm-14.92,0a5,5,0,1,1-5.05-5A5.06,5.06,0,0,1,1111.66,302.15Zm-.57,71.84a2.19,2.19,0,0,1,2.18-2.18h39.94a2.18,2.18,0,1,1,0,4.36h-39.94A2.19,2.19,0,0,1,1111.09,374Zm0-35.58a2.18,2.18,0,0,1,2.18-2.17h65.19a2.18,2.18,0,1,1,0,4.35h-65.19A2.18,2.18,0,0,1,1111.09,338.41Zm0,17.68a2.19,2.19,0,0,1,2.18-2.18h65.19a2.18,2.18,0,1,1,0,4.36h-65.19A2.19,2.19,0,0,1,1111.09,356.09Z"/><path class="cls-2" d="M1276.13,397.84V260.94a10.82,10.82,0,0,0-10.81-10.81H1059a10.82,10.82,0,0,0-10.81,10.81v136.9h-14.43c1.28,9.77,8.06,17.3,16.19,17.3h223.3c8.13,0,14.92-7.53,16.19-17.3ZM1060.54,262.48h203.24V397.84H1060.54Z"/><path class="cls-3" d="M817.51,114.9h0a35.29,35.29,0,0,0-3.62-8.54l-4.64,2.74a29.41,29.41,0,0,0-4.85-6.2l3.79-3.85a35.6,35.6,0,0,0-7.41-5.57l-2.65,4.69a29.81,29.81,0,0,0-7.29-3L792.19,90A35.32,35.32,0,0,0,783,88.86l0,5.39a29.65,29.65,0,0,0-7.79,1.1l-1.44-5.2h0a35.51,35.51,0,0,0-8.54,3.62L768,98.42a29,29,0,0,0-6.2,4.84L758,99.48a35.59,35.59,0,0,0-5.58,7.4l4.7,2.66a30.24,30.24,0,0,0-3,7.29l-5.22-1.36a35.41,35.41,0,0,0-1.14,9.2l5.4,0a30.43,30.43,0,0,0,1.09,7.79h0l-5.19,1.44a35.49,35.49,0,0,0,3.61,8.54l4.65-2.74a29.49,29.49,0,0,0,4.85,6.2l-3.79,3.85a35.56,35.56,0,0,0,7.41,5.58l2.66-4.69a30,30,0,0,0,7.28,3l-1.35,5.22a35.31,35.31,0,0,0,9.2,1.14l0-5.4a30.05,30.05,0,0,0,7.79-1.09h0l1.43,5.19A35.56,35.56,0,0,0,801.3,155l-2.74-4.65a30,30,0,0,0,6.2-4.84l3.85,3.78a35.46,35.46,0,0,0,5.57-7.4l-4.68-2.66a30.18,30.18,0,0,0,2.94-7.29l5.23,1.35a35.3,35.3,0,0,0,1.13-9.2l-5.39,0a30.07,30.07,0,0,0-1.1-7.79Zm-14.39,9.32a19.62,19.62,0,0,1-.63,5.14,20.24,20.24,0,0,1-2,4.8,20,20,0,0,1-7.2,7.32,19.53,19.53,0,0,1-4.77,2h0a20.2,20.2,0,0,1-5.12.72,19.82,19.82,0,0,1-14.08-5.7,19.25,19.25,0,0,1-3.19-4.08,19.67,19.67,0,0,1-2-4.77h0a19.36,19.36,0,0,1-.72-5.13,19.16,19.16,0,0,1,.64-5.14A19.83,19.83,0,0,1,778,105.26h0a19.9,19.9,0,0,1,5.13-.72,19.11,19.11,0,0,1,5.14.64,19.55,19.55,0,0,1,4.81,1.94,20.15,20.15,0,0,1,4.13,3.11,19.9,19.9,0,0,1,3.19,4.09,19.67,19.67,0,0,1,2,4.77h0A19.84,19.84,0,0,1,803.12,124.22Zm55.27,11.44h0a23.5,23.5,0,0,0-3.65-4.94l-2.57,2.48a19.41,19.41,0,0,0-4.08-3.23l1.84-3.07a23.42,23.42,0,0,0-5.63-2.44l-1,3.43a19.92,19.92,0,0,0-5.15-.76l.06-3.58a23.38,23.38,0,0,0-6.1.7l.86,3.46a20.1,20.1,0,0,0-4.84,1.92l-1.74-3.12h0a23.43,23.43,0,0,0-4.93,3.65l2.48,2.57a19.52,19.52,0,0,0-3.24,4.08L817.66,135a23.25,23.25,0,0,0-2.44,5.63l3.43,1a20.37,20.37,0,0,0-.77,5.15l-3.57-.06a23,23,0,0,0,.7,6.1l3.46-.86a19.7,19.7,0,0,0,1.92,4.84h0l-3.12,1.73a23.5,23.5,0,0,0,3.65,4.94l2.57-2.49a19.08,19.08,0,0,0,4.07,3.24l-1.83,3.07a23.25,23.25,0,0,0,5.63,2.44l1-3.43a19.86,19.86,0,0,0,5.15.76l-.06,3.58a23.47,23.47,0,0,0,6.1-.7l-.87-3.47a19.73,19.73,0,0,0,4.85-1.91h0l1.73,3.12a23.5,23.5,0,0,0,4.94-3.65l-2.49-2.57a19.46,19.46,0,0,0,3.24-4.08l3.07,1.84a24.05,24.05,0,0,0,2.44-5.63l-3.43-1a19.86,19.86,0,0,0,.76-5.15l3.57.06a23.37,23.37,0,0,0-.69-6.1l-3.47.87a20,20,0,0,0-1.91-4.85Zm-7.82,8.23a12.69,12.69,0,0,1,.39,3.4,13.5,13.5,0,0,1-.5,3.4,13.07,13.07,0,0,1-1.37,3.14,13.63,13.63,0,0,1-2.13,2.69,13.16,13.16,0,0,1-2.76,2h0a13.49,13.49,0,0,1-3.19,1.26,13.14,13.14,0,0,1-3.4.38,13,13,0,0,1-6.54-1.87,12.74,12.74,0,0,1-2.69-2.13,12.9,12.9,0,0,1-2-2.76h0a13,13,0,0,1-1.26-3.18,12.79,12.79,0,0,1-.38-3.41,12.47,12.47,0,0,1,.5-3.39,12.75,12.75,0,0,1,1.37-3.15,13,13,0,0,1,2.13-2.69,12.84,12.84,0,0,1,2.75-2h0a13.08,13.08,0,0,1,3.19-1.26,12.79,12.79,0,0,1,3.41-.38,12.93,12.93,0,0,1,3.39.5,13.14,13.14,0,0,1,3.15,1.37,12.69,12.69,0,0,1,2.68,2.13,13.2,13.2,0,0,1,2.05,2.76h0A12.89,12.89,0,0,1,850.57,143.89Z"/><path class="cls-3" d="M673.12,155.91a2.63,2.63,0,1,1-2.62-2.63A2.62,2.62,0,0,1,673.12,155.91ZM670.5,133.6a2.63,2.63,0,1,0,2.62,2.62A2.62,2.62,0,0,0,670.5,133.6Zm63-38.43v61.06a10.23,10.23,0,0,1-3.73,7.43,27.61,27.61,0,0,1-8.7,5C714,171.37,704.57,173,694.12,173s-19.88-1.6-26.94-4.31a27.61,27.61,0,0,1-8.7-5,10.23,10.23,0,0,1-3.73-7.43V95.17a10.21,10.21,0,0,1,3.73-7.42,27.42,27.42,0,0,1,8.7-5c7.06-2.71,16.49-4.27,26.94-4.27S714,80,721.06,82.75a27.42,27.42,0,0,1,8.7,5A10.21,10.21,0,0,1,733.49,95.17ZM660,95.09a6.38,6.38,0,0,0,2.58,3.53,25.94,25.94,0,0,0,7.22,3.77c6.18,2.22,14.79,3.65,24.28,3.65s18.1-1.43,24.28-3.65a25.72,25.72,0,0,0,7.21-3.77,6.36,6.36,0,0,0,2.59-3.53V95a5,5,0,0,0-2-3.36,22.88,22.88,0,0,0-7.05-4C713,85.28,704,83.73,694.12,83.73s-18.83,1.55-25.06,3.94a22.88,22.88,0,0,0-7,4A5,5,0,0,0,660,95Zm68.2,48.8a31.37,31.37,0,0,1-8,4.06c-7,2.53-16.09,4-26.16,4s-19.2-1.49-26.16-4a31.37,31.37,0,0,1-8-4.06v12.34c0,1,.51,2.21,2,3.57a22.9,22.9,0,0,0,7,3.94c6.23,2.38,15.15,4,25.06,4s18.83-1.6,25.06-4a22.9,22.9,0,0,0,7.05-3.94c1.5-1.36,2-2.53,2-3.57Zm0-19.68a31.7,31.7,0,0,1-8,4.06c-7,2.53-16.09,4-26.16,4s-19.2-1.48-26.16-4a31.7,31.7,0,0,1-8-4.06v11.23a2.17,2.17,0,0,1,0,.25,6.13,6.13,0,0,0,2.5,3.53,25.57,25.57,0,0,0,7.18,3.81c6.19,2.25,14.85,3.69,24.4,3.69s18.21-1.44,24.4-3.69a25.57,25.57,0,0,0,7.18-3.81,6.13,6.13,0,0,0,2.5-3.53,1.55,1.55,0,0,1,0-.21Zm0-21a31.67,31.67,0,0,1-8.08,4.14c-6.95,2.5-16,4-26,4s-19.09-1.48-26-4a31.67,31.67,0,0,1-8.08-4.14v12.59a2,2,0,0,1,0,.24,6.1,6.1,0,0,0,2.5,3.53,25.57,25.57,0,0,0,7.18,3.82c6.19,2.24,14.85,3.69,24.4,3.69s18.21-1.45,24.4-3.69a25.57,25.57,0,0,0,7.18-3.82,6.1,6.1,0,0,0,2.5-3.53,1.77,1.77,0,0,1,0-.2ZM670.5,112.6a2.63,2.63,0,1,0,2.62,2.63A2.63,2.63,0,0,0,670.5,112.6Z"/><path class="cls-4" d="M836.76,91.66A76.93,76.93,0,0,0,688.3,66.89a47.26,47.26,0,0,0-60.44,54.8,32.35,32.35,0,0,0,6.15,64.1H831.1a47.24,47.24,0,0,0,5.66-94.13Z"/><line class="cls-5" x1="476.37" y1="257.12" x2="591.46" y2="176.9"/><polygon class="cls-6" points="489.39 258.38 477.58 256.28 479.69 244.47 473.79 248.59 471.68 260.39 483.48 262.5 489.39 258.38"/><line class="cls-5" x1="494.14" y1="286.69" x2="614.03" y2="203.12"/><polygon class="cls-6" points="610.71 215.77 612.82 203.96 601.02 201.86 606.92 197.74 618.72 199.85 616.62 211.65 610.71 215.77"/><line class="cls-5" x1="1014.84" y1="257.12" x2="899.75" y2="176.9"/><polygon class="cls-6" points="1011.52 244.47 1013.63 256.28 1001.83 258.38 1007.73 262.5 1019.53 260.39 1017.42 248.59 1011.52 244.47"/><line class="cls-5" x1="997.07" y1="286.69" x2="877.18" y2="203.12"/><polygon class="cls-6" points="890.2 201.86 878.39 203.96 880.5 215.77 874.6 211.65 872.49 199.85 884.29 197.74 890.2 201.86"/><line class="cls-5" x1="730.78" y1="346.66" x2="730.32" y2="200.51"/><polygon class="cls-6" points="738.83 210.44 730.32 201.99 721.87 210.5 721.85 203.3 730.3 194.79 738.8 203.25 738.83 210.44"/><line class="cls-5" x1="764.73" y1="194.8" x2="765.2" y2="340.94"/><polygon class="cls-6" points="756.69 331.01 765.19 339.46 773.64 330.96 773.66 338.15 765.21 346.66 756.71 338.21 756.69 331.01"/><path class="cls-2" d="M836.88,677.63a88.93,88.93,0,0,0-86.32-67.56H661.44a89,89,0,0,0-86.32,67.56Z"/><circle class="cls-2" cx="706" cy="520.57" r="66.49" transform="translate(118.4 1171.84) rotate(-84.35)"/><path class="cls-2" d="M892.7,358.93H754.14A12.18,12.18,0,0,0,742,371.1V571.43a12.18,12.18,0,0,0,12.17,12.16H892.7a12.18,12.18,0,0,0,12.18-12.16V371.1A12.19,12.19,0,0,0,892.7,358.93ZM817.59,568.75a6,6,0,1,1,.42,2.07A5.66,5.66,0,0,1,817.59,568.75ZM754.74,556V387.35H892.11V556ZM841.66,374.7a.82.82,0,0,1-.83.82H806a.82.82,0,0,1-.83-.82.83.83,0,0,1,.83-.83h34.81A.83.83,0,0,1,841.66,374.7Z"/><rect class="cls-2" x="774.72" y="404.12" width="20.9" height="20.9"/><rect class="cls-2" x="812.97" y="404.12" width="20.9" height="20.9"/><rect class="cls-2" x="851.22" y="404.12" width="20.9" height="20.9"/><rect class="cls-2" x="774.72" y="437.4" width="20.9" height="20.9"/><rect class="cls-2" x="812.97" y="437.4" width="20.9" height="20.9"/><rect class="cls-2" x="851.22" y="437.4" width="20.9" height="20.9"/><rect class="cls-2" x="774.72" y="470.67" width="20.9" height="20.9"/><rect class="cls-2" x="812.97" y="470.67" width="20.9" height="20.9"/><rect class="cls-2" x="851.22" y="470.67" width="20.9" height="20.9"/><rect class="cls-2" x="774.72" y="503.95" width="20.9" height="20.9"/><rect class="cls-2" x="812.97" y="503.95" width="20.9" height="20.9"/><rect class="cls-2" x="851.22" y="503.95" width="20.9" height="20.9"/></svg>